<?xml version="1.0" encoding="UTF-8"?>
<svg width="22px" height="14px" viewBox="0 0 22 14" version="1.1" xmlns="http://www.w3.org/2000/svg" xmlns:xlink="http://www.w3.org/1999/xlink">
    <!-- Generator: Sketch 46.2 (44496) - http://www.bohemiancoding.com/sketch -->
    <title>BL</title>
    <desc>Created with Sketch.</desc>
    <defs></defs>
    <g id="Page-1" stroke="none" stroke-width="1" fill="none" fill-rule="evenodd">
        <g id="Горизонтальный-лэндинг" transform="translate(-584.000000, -982.000000)" fill="#FFFFFF">
            <g id="Bottom-bar-Copy" transform="translate(561.000000, 957.000000)">
                <g id="Group-27" transform="translate(23.000000, 25.000000)">
                    <g id="Group-21">
                        <path d="M0.996376812,0 L6.09782609,0 C9.1865942,0 10.6612319,0.725490196 10.6612319,3.84313725 C10.6612319,5.2745098 10.0833333,6.19607843 9.06702899,6.7254902 C10.3224638,7.33333333 11,8.37254902 11,10 C11,13.3137255 9.12681159,14 6.09782609,14 L0,14 L0,0.980392157 C0,0.196078431 0.199275362,0 0.996376812,0 Z M6.05470085,8.52173913 L3.66666667,8.52173913 L3.66666667,10.9565217 L6.05470085,10.9565217 C7.03247863,10.9565217 7.33333333,10.8043478 7.33333333,9.7201087 C7.33333333,8.67391304 7.03247863,8.52173913 6.05470085,8.52173913 Z M6.13182674,3.04347826 L3.66666667,3.04347826 L3.66666667,5.47826087 L6.13182674,5.47826087 C7.02259887,5.47826087 7.33333333,5.29411765 7.33333333,4.25063939 C7.33333333,3.18670077 7.02259887,3.04347826 6.13182674,3.04347826 Z M22,14 L22,11.8431373 C22,11.0392157 21.7962963,10.8235294 20.9814815,10.8235294 L16.4592593,10.8235294 L16.4592593,0.980392157 C16.4592593,0.196078431 16.2555556,0 15.4203704,0 L12.8333333,0 L12.8333333,12.9803922 C12.8333333,13.8235294 13.037037,14 13.8518519,14 L22,14 Z" id="BL"></path>
                    </g>
                </g>
            </g>
        </g>
    </g>
</svg>