<?xml version="1.0" encoding="UTF-8"?>
<svg width="20px" height="20px" viewBox="0 0 20 20" version="1.1" xmlns="http://www.w3.org/2000/svg" xmlns:xlink="http://www.w3.org/1999/xlink">
    <!-- Generator: Sketch 46.2 (44496) - http://www.bohemiancoding.com/sketch -->
    <title>explore</title>
    <desc>Created with Sketch.</desc>
    <defs></defs>
    <g id="Page-1" stroke="none" stroke-width="1" fill="none" fill-rule="evenodd" opacity="0.5">
        <g id="Горизонтальный-лэндинг" transform="translate(-1220.000000, -979.000000)" fill="#FFFFFF">
            <g id="Bottom-bar-Copy" transform="translate(561.000000, 957.000000)">
                <g id="compass-with-white-needles-2-copy" transform="translate(659.000000, 22.000000)">
                    <g id="Capa_1">
                        <g id="explore">
                            <path d="M10,8.9 C9.4,8.9 8.9,9.4 8.9,10 C8.9,10.6 9.4,11.1 10,11.1 C10.6,11.1 11.1,10.6 11.1,10 C11.1,9.4 10.6,8.9 10,8.9 L10,8.9 Z M10,0 C4.5,0 0,4.5 0,10 C0,15.5 4.5,20 10,20 C15.5,20 20,15.5 20,10 C20,4.5 15.5,0 10,0 L10,0 Z M12.2,12.2 L4,16 L7.8,7.8 L16,4 L12.2,12.2 L12.2,12.2 Z" id="Shape"></path>
                        </g>
                    </g>
                </g>
            </g>
        </g>
    </g>
</svg>