<?xml version="1.0" encoding="UTF-8"?>
<svg width="19px" height="19px" viewBox="0 0 19 19" version="1.1" xmlns="http://www.w3.org/2000/svg" xmlns:xlink="http://www.w3.org/1999/xlink">
    <!-- Generator: Sketch 46.2 (44496) - http://www.bohemiancoding.com/sketch -->
    <title>forum</title>
    <desc>Created with Sketch.</desc>
    <defs></defs>
    <g id="Page-1" stroke="none" stroke-width="1" fill="none" fill-rule="evenodd" opacity="0.5">
        <g id="Горизонтальный-лэндинг" transform="translate(-793.000000, -980.000000)" fill="#FFFFFF">
            <g id="Bottom-bar-Copy" transform="translate(561.000000, 957.000000)">
                <g id="chat-bubbles-2" transform="translate(232.000000, 23.000000)">
                    <g id="Capa_1">
                        <g id="forum">
                            <path d="M18.05,3.8 L16.15,3.8 L16.15,12.35 L3.8,12.35 L3.8,14.25 C3.8,14.82 4.18,15.2 4.75,15.2 L15.2,15.2 L19,19 L19,4.75 C19,4.18 18.62,3.8 18.05,3.8 L18.05,3.8 Z M14.25,9.5 L14.25,0.95 C14.25,0.38 13.87,0 13.3,0 L0.95,0 C0.38,0 0,0.38 0,0.95 L0,14.25 L3.8,10.45 L13.3,10.45 C13.87,10.45 14.25,10.07 14.25,9.5 L14.25,9.5 Z" id="Shape"></path>
                        </g>
                    </g>
                </g>
            </g>
        </g>
    </g>
</svg>