<?xml version="1.0" encoding="UTF-8"?>
<svg width="25px" height="19px" viewBox="0 0 25 19" version="1.1" xmlns="http://www.w3.org/2000/svg" xmlns:xlink="http://www.w3.org/1999/xlink">
    <!-- Generator: Sketch 46.2 (44496) - http://www.bohemiancoding.com/sketch -->
    <title>superman-flying</title>
    <desc>Created with Sketch.</desc>
    <defs></defs>
    <g id="Page-1" stroke="none" stroke-width="1" fill="none" fill-rule="evenodd" opacity="0.5">
        <g id="Горизонтальный-лэндинг" transform="translate(-1418.000000, -980.000000)" fill="#FFFFFF">
            <g id="Bottom-bar-Copy" transform="translate(561.000000, 957.000000)">
                <g id="superman-flying" transform="translate(871.291074, 31.975486) rotate(-30.000000) translate(-871.291074, -31.975486) translate(858.291074, 25.975486)">
                    <g id="Capa_1" transform="translate(-0.000000, 0.000000)">
                        <g id="Group">
                            <ellipse id="Oval" cx="19.3779223" cy="2.45691603" rx="1.71944612" ry="1.77491213"></ellipse>
                            <path d="M24.0000133,3.95546056 C22.1431685,4.44660063 20.2721913,4.86804095 18.3882593,5.22383384 C18.3808005,5.10348021 18.3623499,4.97907427 18.328589,4.85102125 C17.9505464,3.44567987 15.8887814,2.99384721 15.3886502,2.78920552 C15.7101631,2.42814463 16.031676,2.06748897 16.3531888,1.7068333 C17.0723727,0.900423458 15.9088023,-0.306354696 15.187263,0.503297 C14.5980191,1.16503935 14.0079899,1.82718694 13.4183534,2.48852406 C13.0823155,2.86579419 13.0878115,3.57454335 13.5855872,3.82457092 C13.8619548,3.96356518 14.1446035,4.09080774 14.429215,4.21359276 C12.5441053,4.7942889 11.65651,4.86966188 11.6148978,4.87290373 C7.90591905,5.20357229 4.63975656,5.50141713 0.930777798,5.83249092 C-0.383145985,5.9496027 -0.27244192,8.06045139 1.05208119,7.94252915 C3.25438547,7.74680254 5.45708232,7.54864454 7.6593866,7.35332316 C5.64041139,7.87607125 3.62104361,8.39922458 1.60246098,8.92116221 C0.314054086,9.25426215 0.860508196,11.3059471 2.15009279,10.9724419 C4.74064643,10.302595 14.7181448,7.97981041 16.6095355,7.25242062 C19.2440567,6.82976461 21.8542387,6.28027126 24.4381187,5.59583597 C25.4678236,5.32311545 25.0308958,3.68274005 24.0000133,3.95546056 L24.0000133,3.95546056 Z" id="Shape"></path>
                            <path d="M12.8785729,4.0081406 C12.7474554,3.83753832 12.6567722,3.63249139 12.6151601,3.40637245 C12.5978871,3.31154838 12.5963168,3.21510338 12.5963168,3.11946885 L12.5762959,3.09029221 L0.367050713,1.10465992 L1.84860087,5.12738884 L11.5634715,4.26059957 C11.5897735,4.25816818 12.0141391,4.21926599 12.8785729,4.0081406 L12.8785729,4.0081406 Z" id="Shape"></path>
                        </g>
                    </g>
                </g>
            </g>
        </g>
    </g>
</svg>