<?xml version="1.0" encoding="UTF-8"?>
<svg width="20px" height="19px" viewBox="0 0 20 19" version="1.1" xmlns="http://www.w3.org/2000/svg" xmlns:xlink="http://www.w3.org/1999/xlink">
    <!-- Generator: Sketch 46.2 (44496) - http://www.bohemiancoding.com/sketch -->
    <title>Shape</title>
    <desc>Created with Sketch.</desc>
    <defs></defs>
    <g id="Page-1" stroke="none" stroke-width="1" fill="none" fill-rule="evenodd" opacity="0.5">
        <g id="Горизонтальный-лэндинг" transform="translate(-1019.000000, -979.000000)" fill="#FFFFFF">
            <g id="Bottom-bar-Copy" transform="translate(561.000000, 957.000000)">
                <g id="favourites-filled-star-symbol" transform="translate(458.000000, 22.000000)">
                    <g id="Capa_1">
                        <path d="M19.0889764,6.47130579 L13.5930709,5.95312397 C13.2466142,5.92171901 12.9472441,5.7018843 12.8056693,5.37213223 L10.8371654,0.614280992 C10.5222047,-0.170842975 9.40393701,-0.170842975 9.08897638,0.614280992 L7.13622047,5.37213223 C7.01023622,5.7018843 6.69527559,5.92171901 6.3488189,5.95312397 L0.852755906,6.47130579 C0.0338582677,6.54981818 -0.296850394,7.57047934 0.317322835,8.12006612 L4.45905512,11.7473388 C4.72677165,11.982876 4.83700787,12.3283306 4.75826772,12.6737851 L3.51417323,17.7612314 C3.32519685,18.5622149 4.19133858,19.221562 4.91574803,18.7977521 L9.4984252,16.1124711 C9.7976378,15.9397438 10.1598425,15.9397438 10.4590551,16.1124711 L15.0418898,18.7977521 C15.7662992,19.221562 16.6324409,18.5779174 16.4433071,17.7612314 L15.2149606,12.6737851 C15.1362205,12.3283306 15.2464567,11.982876 15.5141732,11.7473388 L19.6559055,8.12006612 C20.2543307,7.57047934 19.907874,6.54981818 19.0889764,6.47130579 L19.0889764,6.47130579 Z" id="Shape"></path>
                    </g>
                </g>
            </g>
        </g>
    </g>
</svg>