<?xml version="1.0" encoding="UTF-8"?>
<svg width="14px" height="17px" viewBox="0 0 14 17" version="1.1" xmlns="http://www.w3.org/2000/svg" xmlns:xlink="http://www.w3.org/1999/xlink">
    <!-- Generator: Sketch 46.2 (44496) - http://www.bohemiancoding.com/sketch -->
    <title>bell-10</title>
    <desc>Created with Sketch.</desc>
    <defs></defs>
    <g id="Symbols" stroke="none" stroke-width="1" fill="none" fill-rule="evenodd">
        <g id="Меню-сверху" transform="translate(-44.000000, -29.000000)" fill-rule="nonzero" fill="#FFFFFF">
            <g id="Group-14">
                <g id="bell-10" transform="translate(44.000000, 29.000000)">
                    <path d="M13.6844952,11.1353125 L12.4768942,9.969245 C12.0730481,9.579115 11.8461538,9.0501125 11.8461538,8.49849 L11.8461538,5.880225 C11.8461538,3.6339225 10.2620673,1.649635 8.06430288,1.1604775 C8.06904808,1.1205025 8.07692308,1.081275 8.07692308,1.04 C8.07692308,0.4666675 7.5936875,0 7,0 C6.4063125,0 5.92307692,0.4666675 5.92307692,1.04 C5.92307692,1.080625 5.93071635,1.119105 5.93542788,1.1584625 C3.772125,1.627535 2.15384615,3.4891675 2.15384615,5.72 L2.15384615,8.49849 C2.15384615,9.0501125 1.92695192,9.579115 1.52310577,9.969245 L0.315504808,11.1353125 C0.113581731,11.3304425 0,11.594895 0,11.870755 L0,13 L14,13 L14,11.870755 C14,11.594895 13.8864183,11.3304425 13.6844952,11.1353125 Z" id="Shape"></path>
                    <path d="M5,15.4 C5,16.2836 6.119375,17 7.5,17 C8.880625,17 10,16.2836 10,15.4 L10,15 L5,15 L5,15.4 Z" id="Shape"></path>
                </g>
            </g>
        </g>
    </g>
</svg>