<?xml version="1.0" encoding="UTF-8"?>
<svg width="305px" height="349px" viewBox="0 0 305 349" version="1.1" xmlns="http://www.w3.org/2000/svg" xmlns:xlink="http://www.w3.org/1999/xlink">
    <!-- Generator: Sketch 46.2 (44496) - http://www.bohemiancoding.com/sketch -->
    <title>Group 14 Copy</title>
    <desc>Created with Sketch.</desc>
    <defs>
        <linearGradient x1="0%" y1="2.13047471%" x2="95.6951402%" y2="50%" id="linearGradient-1">
            <stop stop-color="#FFEB22" offset="0%"></stop>
            <stop stop-color="#8CF137" offset="100%"></stop>
        </linearGradient>
        <linearGradient x1="4.78862246%" y1="37.0267052%" x2="95.2029387%" y2="72.4662534%" id="linearGradient-2">
            <stop stop-color="#F9B903" offset="0%"></stop>
            <stop stop-color="#E4D432" offset="100%"></stop>
        </linearGradient>
        <linearGradient x1="3.77861129%" y1="50%" x2="89.4151262%" y2="75.2490048%" id="linearGradient-3">
            <stop stop-color="#118FFF" offset="0%"></stop>
            <stop stop-color="#315BE5" offset="100%"></stop>
        </linearGradient>
        <linearGradient x1="11.0851382%" y1="24.7088601%" x2="90.3297764%" y2="57.9072606%" id="linearGradient-4">
            <stop stop-color="#C373D6" offset="0%"></stop>
            <stop stop-color="#EF3E72" offset="100%"></stop>
        </linearGradient>
    </defs>
    <g id="Page-1" stroke="none" stroke-width="1" fill="none" fill-rule="evenodd">
        <g id="Group-14-Copy" transform="translate(-10.000000, 0.000000)">
            <polygon id="Path-6-Copy-4" fill="#B26A00" points="245 120 258.73707 179 309.194507 170.494881 315 120"></polygon>
            <polygon id="Path-14-Copy-2" fill="#C43249" transform="translate(69.500000, 310.500000) scale(-1, 1) translate(-69.500000, -310.500000) " points="21 349 51.7560943 281.049344 118 272 88.523558 349"></polygon>
            <polygon id="Path-6-Copy-3" fill="#B2BC03" points="12 0 29.8868028 75.5638589 99 78 84.2338074 5.36129529"></polygon>
            <polygon id="Path-5-Copy-3" fill="url(#linearGradient-1)" points="33 14 270 43.1110698 253.117883 95 47.311691 95"></polygon>
            <g id="chat-bubbles-2-copy-2" transform="translate(177.000000, 51.000000)" fill="#324B00">
                <g id="Capa_1">
                    <g id="forum">
                        <path d="M20.9,4.4 L18.7,4.4 L18.7,14.3 L4.4,14.3 L4.4,16.5 C4.4,17.16 4.84,17.6 5.5,17.6 L17.6,17.6 L22,22 L22,5.5 C22,4.84 21.56,4.4 20.9,4.4 L20.9,4.4 Z M16.5,11 L16.5,1.1 C16.5,0.44 16.06,0 15.4,0 L1.1,0 C0.44,0 0,0.44 0,1.1 L0,16.5 L4.4,12.1 L15.4,12.1 C16.06,12.1 16.5,11.66 16.5,11 L16.5,11 Z" id="Shape"></path>
                    </g>
                </g>
            </g>
            <path d="M80.8546654,45.032 C79.1186654,45.032 78.0126654,45.62 77.0746654,46.516 L77.9986654,47.636 C78.7406654,46.922 79.5806654,46.544 80.7426654,46.544 C81.8346654,46.544 82.5906654,47.09 82.5906654,47.916 C82.5906654,48.84 81.8206654,49.344 80.5746654,49.344 L79.4826654,49.344 L79.4826654,50.772 L80.5886654,50.772 C81.8626654,50.772 82.8286654,51.192 82.8286654,52.2 C82.8286654,53.124 81.9466654,53.67 80.9106654,53.67 C79.5806654,53.67 78.5306654,53.208 77.6486654,52.368 L76.7106654,53.558 C77.8026654,54.608 79.0486654,55.168 80.9526654,55.168 C83.1366654,55.168 84.5506654,53.922 84.5506654,52.298 C84.5506654,51.024 83.7246654,50.282 82.6326654,49.946 C83.5006654,49.582 84.2986654,48.924 84.2986654,47.664 C84.2986654,46.138 82.8846654,45.032 80.8546654,45.032 Z M86.4873322,55 L88.1813322,55 L88.1813322,52.018 L91.4433322,52.018 L91.4433322,55 L93.1373322,55 L93.1373322,47.608 L91.4433322,47.608 L91.4433322,50.604 L88.1813322,50.604 L88.1813322,47.608 L86.4873322,47.608 L86.4873322,55 Z M101.583999,55 L99.903999,55 L99.903999,54.09 C99.399999,54.692 98.629999,55.154 97.509999,55.154 C96.109999,55.154 94.877999,54.356 94.877999,52.844 C94.877999,51.206 96.151999,50.422 97.873999,50.422 C98.769999,50.422 99.343999,50.548 99.917999,50.73 L99.917999,50.59 C99.917999,49.568 99.273999,49.008 98.097999,49.008 C97.271999,49.008 96.655999,49.19 95.983999,49.47 L95.521999,48.112 C96.333999,47.748 97.131999,47.496 98.335999,47.496 C100.519999,47.496 101.583999,48.644 101.583999,50.618 L101.583999,55 Z M99.945999,52.326 L99.945999,51.906 C99.511999,51.738 98.909999,51.612 98.251999,51.612 C97.187999,51.612 96.557999,52.046 96.557999,52.788 C96.557999,53.488 97.187999,53.88 97.985999,53.88 C99.105999,53.88 99.945999,53.25 99.945999,52.326 Z M103.716666,55 L105.396666,55 L105.396666,53.222 L106.600666,51.948 L108.840666,55 L110.842666,55 L107.734666,50.716 L110.604666,47.608 L108.616666,47.608 L105.396666,51.15 L105.396666,47.608 L103.716666,47.608 L103.716666,55 Z M115.229333,55.168 C112.975333,55.168 111.309333,53.446 111.309333,51.318 C111.309333,49.204 112.989333,47.454 115.257333,47.454 C117.525333,47.454 119.191333,49.176 119.191333,51.318 C119.191333,53.418 117.511333,55.168 115.229333,55.168 Z M115.257333,53.698 C116.629333,53.698 117.497333,52.62 117.497333,51.318 C117.497333,50.016 116.559333,48.938 115.229333,48.938 C113.871333,48.938 113.003333,50.002 113.003333,51.318 C113.003333,52.606 113.941333,53.698 115.257333,53.698 Z M121.029999,55 L122.681999,55 L122.681999,50.1 L124.991999,53.39 L127.315999,50.072 L127.315999,55 L129.023999,55 L129.023999,47.608 L127.343999,47.608 L125.019999,51.038 L122.709999,47.608 L121.029999,47.608 L121.029999,55 Z M131.268666,55 L131.268666,47.608 L132.962666,47.608 L132.962666,50.198 L134.656666,50.198 C136.322666,50.198 137.596666,50.926 137.596666,52.536 C137.596666,54.062 136.518666,55 134.782666,55 L131.268666,55 Z M132.962666,53.628 L134.558666,53.628 C135.412666,53.628 135.902666,53.25 135.902666,52.536 C135.902666,51.878 135.398666,51.514 134.530666,51.514 L132.962666,51.514 L132.962666,53.628 Z M142.613333,55.168 C144.055333,55.168 144.909333,54.594 145.637333,53.782 L144.615333,52.774 C144.083333,53.32 143.495333,53.698 142.697333,53.698 C141.395333,53.698 140.485333,52.634 140.485333,51.318 L140.485333,51.29 C140.485333,50.002 141.381333,48.938 142.613333,48.938 C143.467333,48.938 144.013333,49.316 144.531333,49.862 L145.581333,48.728 C144.895333,47.972 144.027333,47.454 142.627333,47.454 C140.415333,47.454 138.791333,49.218 138.791333,51.318 L138.791333,51.346 C138.791333,53.446 140.415333,55.168 142.613333,55.168 Z M146.566,55 L148.61,52.228 C147.602,51.92 146.888,51.178 146.888,50.016 C146.888,48.588 147.938,47.608 149.8,47.608 L153.51,47.608 L153.51,55 L151.816,55 L151.816,52.508 L150.304,52.508 L148.554,55 L146.566,55 Z M150.038,51.234 L151.816,51.234 L151.816,48.98 L150.024,48.98 C149.128,48.98 148.582,49.4 148.582,50.1 C148.582,50.814 149.17,51.234 150.038,51.234 Z M160.071333,55 L161.667333,55 L165.181333,50.072 L165.181333,55 L166.819333,55 L166.819333,47.608 L165.223333,47.608 C164.047333,49.26 162.885333,50.912 161.723333,52.564 L161.723333,47.608 L160.071333,47.608 L160.071333,55 Z M106.997333,74.168 C104.743333,74.168 103.077333,72.446 103.077333,70.318 C103.077333,68.204 104.757333,66.454 107.025333,66.454 C109.293333,66.454 110.959333,68.176 110.959333,70.318 C110.959333,72.418 109.279333,74.168 106.997333,74.168 Z M107.025333,72.698 C108.397333,72.698 109.265333,71.62 109.265333,70.318 C109.265333,69.016 108.327333,67.938 106.997333,67.938 C105.639333,67.938 104.771333,69.002 104.771333,70.318 C104.771333,71.606 105.709333,72.698 107.025333,72.698 Z M116.409999,72.698 C117.683999,72.698 118.537999,71.69 118.537999,70.43 C118.537999,69.17 117.613999,68.148 116.381999,68.148 C115.135999,68.148 114.267999,69.156 114.267999,70.43 C114.267999,71.69 115.191999,72.698 116.409999,72.698 Z M116.381999,74.168 C113.987999,74.168 112.573999,72.586 112.573999,69.856 C112.573999,67.56 112.839999,65.25 115.527999,64.69 L119.559999,63.85 L119.839999,65.208 L115.807999,66.09 C114.379999,66.398 113.945999,67.21 113.861999,68.19 C114.239999,67.546 115.163999,66.804 116.703999,66.804 C118.607999,66.804 120.231999,68.372 120.231999,70.402 C120.231999,72.446 118.607999,74.168 116.381999,74.168 Z M132.024666,75.778 L133.438666,75.778 L133.648666,72.544 L132.598666,72.544 L132.598666,66.608 L130.904666,66.608 L130.904666,72.544 L128.174666,72.544 L128.174666,66.608 L126.494666,66.608 L126.494666,72.544 L123.764666,72.544 L123.764666,66.608 L122.070666,66.608 L122.070666,74 L132.024666,74 L132.024666,75.778 Z M141.381333,74 L139.701333,74 L139.701333,73.09 C139.197333,73.692 138.427333,74.154 137.307333,74.154 C135.907333,74.154 134.675333,73.356 134.675333,71.844 C134.675333,70.206 135.949333,69.422 137.671333,69.422 C138.567333,69.422 139.141333,69.548 139.715333,69.73 L139.715333,69.59 C139.715333,68.568 139.071333,68.008 137.895333,68.008 C137.069333,68.008 136.453333,68.19 135.781333,68.47 L135.319333,67.112 C136.131333,66.748 136.929333,66.496 138.133333,66.496 C140.317333,66.496 141.381333,67.644 141.381333,69.618 L141.381333,74 Z M139.743333,71.326 L139.743333,70.906 C139.309333,70.738 138.707333,70.612 138.049333,70.612 C136.985333,70.612 136.355333,71.046 136.355333,71.788 C136.355333,72.488 136.985333,72.88 137.783333,72.88 C138.903333,72.88 139.743333,72.25 139.743333,71.326 Z M146.902,65.754 C148.092,65.754 148.904,64.998 149.086,63.808 L148.064,63.612 C147.882,64.2 147.532,64.564 146.902,64.564 C146.272,64.564 145.922,64.2 145.74,63.612 L144.704,63.808 C144.886,64.998 145.712,65.754 146.902,65.754 Z M143.514,74 L145.11,74 L148.624,69.072 L148.624,74 L150.262,74 L150.262,66.608 L148.666,66.608 C147.49,68.26 146.328,69.912 145.166,71.564 L145.166,66.608 L143.514,66.608 L143.514,74 Z M155.922666,74.168 C157.364666,74.168 158.218666,73.594 158.946666,72.782 L157.924666,71.774 C157.392666,72.32 156.804666,72.698 156.006666,72.698 C154.704666,72.698 153.794666,71.634 153.794666,70.318 L153.794666,70.29 C153.794666,69.002 154.690666,67.938 155.922666,67.938 C156.776666,67.938 157.322666,68.316 157.840666,68.862 L158.890666,67.728 C158.204666,66.972 157.336666,66.454 155.936666,66.454 C153.724666,66.454 152.100666,68.218 152.100666,70.318 L152.100666,70.346 C152.100666,72.446 153.724666,74.168 155.922666,74.168 Z M159.875333,74 L161.919333,71.228 C160.911333,70.92 160.197333,70.178 160.197333,69.016 C160.197333,67.588 161.247333,66.608 163.109333,66.608 L166.819333,66.608 L166.819333,74 L165.125333,74 L165.125333,71.508 L163.613333,71.508 L161.863333,74 L159.875333,74 Z M163.347333,70.234 L165.125333,70.234 L165.125333,67.98 L163.333333,67.98 C162.437333,67.98 161.891333,68.4 161.891333,69.1 C161.891333,69.814 162.479333,70.234 163.347333,70.234 Z" id="Знакомься-и-общайся-Copy-2" fill="#2B4100"></path>
            <polygon id="Path-5-Copy-4" fill="url(#linearGradient-2)" points="297 106 285.713177 162.375967 60.5652676 180.809445 49.2966508 106"></polygon>
            <g id="compass-with-white-needles-2-copy-3" transform="translate(218.000000, 123.000000)" fill="#5B4D00">
                <g id="Capa_1">
                    <g id="explore">
                        <path d="M10.5,9.345 C9.87,9.345 9.345,9.87 9.345,10.5 C9.345,11.13 9.87,11.655 10.5,11.655 C11.13,11.655 11.655,11.13 11.655,10.5 C11.655,9.87 11.13,9.345 10.5,9.345 L10.5,9.345 Z M10.5,0 C4.725,0 0,4.725 0,10.5 C0,16.275 4.725,21 10.5,21 C16.275,21 21,16.275 21,10.5 C21,4.725 16.275,0 10.5,0 L10.5,0 Z M12.81,12.81 L4.2,16.8 L8.19,8.19 L16.8,4.2 L12.81,12.81 L12.81,12.81 Z" id="Shape"></path>
                    </g>
                </g>
            </g>
            <path d="M139.347999,130.168 C136.337999,130.168 134.237999,127.886 134.237999,125.1 C134.237999,122.342 136.365999,120.032 139.375999,120.032 C142.385999,120.032 144.485999,122.314 144.485999,125.1 C144.485999,127.858 142.357999,130.168 139.347999,130.168 Z M139.375999,128.586 C141.321999,128.586 142.679999,127.032 142.679999,125.1 C142.679999,123.196 141.293999,121.614 139.347999,121.614 C137.401999,121.614 136.043999,123.168 136.043999,125.1 C136.043999,127.004 137.429999,128.586 139.375999,128.586 Z M148.074666,130 L149.782666,130 L149.782666,124.064 L152.162666,124.064 L152.162666,122.608 L145.694666,122.608 L145.694666,124.064 L148.074666,124.064 L148.074666,130 Z M152.769333,131.778 L152.769333,128.544 L153.567333,128.544 C154.183333,127.312 154.393333,125.59 154.393333,123.518 L154.393333,122.608 L160.119333,122.608 L160.119333,128.544 L161.169333,128.544 L160.945333,131.778 L159.531333,131.778 L159.531333,130 L154.351333,130 L154.183333,131.778 L152.769333,131.778 Z M155.303333,128.544 L158.425333,128.544 L158.425333,124.064 L155.989333,124.064 L155.989333,125.044 C155.989333,126.388 155.737333,127.634 155.303333,128.544 Z M162.699999,130 L162.699999,122.608 L164.393999,122.608 L164.393999,125.198 L165.947999,125.198 C167.613999,125.198 168.887999,125.926 168.887999,127.536 C168.887999,129.062 167.809999,130 166.073999,130 L162.699999,130 Z M164.393999,128.628 L165.849999,128.628 C166.703999,128.628 167.193999,128.25 167.193999,127.536 C167.193999,126.878 166.689999,126.514 165.821999,126.514 L164.393999,126.514 L164.393999,128.628 Z M170.007999,130 L171.701999,130 L171.701999,122.608 L170.007999,122.608 L170.007999,130 Z M173.302666,130 L175.108666,130 L176.914666,127.41 L178.734666,130 L180.582666,130 L177.852666,126.206 L180.470666,122.608 L178.664666,122.608 L176.956666,125.044 L175.248666,122.608 L173.400666,122.608 L176.018666,126.248 L173.302666,130 Z M188.245333,130 L186.565333,130 L186.565333,129.09 C186.061333,129.692 185.291333,130.154 184.171333,130.154 C182.771333,130.154 181.539333,129.356 181.539333,127.844 C181.539333,126.206 182.813333,125.422 184.535333,125.422 C185.431333,125.422 186.005333,125.548 186.579333,125.73 L186.579333,125.59 C186.579333,124.568 185.935333,124.008 184.759333,124.008 C183.933333,124.008 183.317333,124.19 182.645333,124.47 L182.183333,123.112 C182.995333,122.748 183.793333,122.496 184.997333,122.496 C187.181333,122.496 188.245333,123.644 188.245333,125.618 L188.245333,130 Z M186.607333,127.326 L186.607333,126.906 C186.173333,126.738 185.571333,126.612 184.913333,126.612 C183.849333,126.612 183.219333,127.046 183.219333,127.788 C183.219333,128.488 183.849333,128.88 184.647333,128.88 C185.767333,128.88 186.607333,128.25 186.607333,127.326 Z M193.766,121.754 C194.956,121.754 195.768,120.998 195.95,119.808 L194.928,119.612 C194.746,120.2 194.396,120.564 193.766,120.564 C193.136,120.564 192.786,120.2 192.604,119.612 L191.568,119.808 C191.75,120.998 192.576,121.754 193.766,121.754 Z M190.378,130 L191.974,130 L195.488,125.072 L195.488,130 L197.126,130 L197.126,122.608 L195.53,122.608 C194.354,124.26 193.192,125.912 192.03,127.564 L192.03,122.608 L190.378,122.608 L190.378,130 Z M203.687333,130 L203.687333,122.608 L207.481333,122.608 C208.951333,122.608 209.917333,123.322 209.917333,124.456 C209.917333,125.394 209.357333,125.87 208.727333,126.15 C209.623333,126.402 210.253333,126.948 210.253333,127.998 C210.253333,129.244 209.203333,130 207.523333,130 L203.687333,130 Z M205.353333,128.656 L207.271333,128.656 C208.097333,128.656 208.531333,128.278 208.531333,127.704 C208.531333,127.172 208.097333,126.808 207.187333,126.808 L205.353333,126.808 L205.353333,128.656 Z M205.353333,125.66 L207.089333,125.66 C207.803333,125.66 208.195333,125.282 208.195333,124.75 C208.195333,124.274 207.873333,123.91 207.117333,123.91 L205.353333,123.91 L205.353333,125.66 Z M101.683332,149.084 C103.321332,149.084 104.329332,148.426 104.329332,143.064 L106.639332,143.064 L106.639332,149 L108.333332,149 L108.333332,141.608 L102.747332,141.608 C102.747332,147.236 102.159332,147.656 101.305332,147.656 C101.193332,147.656 100.927332,147.628 100.815332,147.6 L100.689332,148.986 C100.941332,149.028 101.417332,149.084 101.683332,149.084 Z M112.089999,151.282 C113.279999,151.282 113.937999,150.722 114.525999,149.21 L117.465999,141.608 L115.701999,141.608 L113.783999,147.096 L111.683999,141.608 L109.877999,141.608 L112.957999,149 C112.677999,149.644 112.383999,149.854 111.907999,149.854 C111.557999,149.854 111.221999,149.742 110.913999,149.574 L110.339999,150.834 C110.857999,151.114 111.375999,151.282 112.089999,151.282 Z M123.532665,149 L125.226665,149 L125.226665,141.608 L123.532665,141.608 L123.532665,144.87 C123.042665,145.15 122.384665,145.36 121.726665,145.36 C120.970665,145.36 120.508665,144.744 120.508665,144.072 L120.508665,141.608 L118.814665,141.608 L118.814665,144.478 C118.814665,145.99 119.864665,146.802 121.334665,146.802 C122.132665,146.802 123.014665,146.508 123.532665,146.242 L123.532665,149 Z M127.471332,149 L137.999332,149 L137.999332,141.608 L136.305332,141.608 L136.305332,147.544 L133.575332,147.544 L133.575332,141.608 L131.895332,141.608 L131.895332,147.544 L129.165332,147.544 L129.165332,141.608 L127.471332,141.608 L127.471332,149 Z M140.243999,149 L141.839999,149 L145.353999,144.072 L145.353999,149 L146.991999,149 L146.991999,141.608 L145.395999,141.608 C144.219999,143.26 143.057999,144.912 141.895999,146.564 L141.895999,141.608 L140.243999,141.608 L140.243999,149 Z M148.592666,149 L150.398666,149 L152.204666,146.41 L154.024666,149 L155.872666,149 L153.142666,145.206 L155.760666,141.608 L153.954666,141.608 L152.246666,144.044 L150.538666,141.608 L148.690666,141.608 L151.308666,145.248 L148.592666,149 Z M161.789999,149 L163.441999,149 L163.441999,144.1 L165.751999,147.39 L168.075999,144.072 L168.075999,149 L169.783999,149 L169.783999,141.608 L168.103999,141.608 L165.779999,145.038 L163.469999,141.608 L161.789999,141.608 L161.789999,149 Z M175.416666,149.168 C173.274666,149.168 171.622666,147.614 171.622666,145.304 C171.622666,143.19 173.120666,141.454 175.234666,141.454 C177.586666,141.454 178.776666,143.302 178.776666,145.43 C178.776666,145.542 178.762666,145.822 178.748666,145.906 L173.316666,145.906 C173.498666,147.11 174.352666,147.782 175.444666,147.782 C176.270666,147.782 176.858666,147.474 177.446666,146.9 L178.440666,147.782 C177.740666,148.622 176.774666,149.168 175.416666,149.168 Z M173.302666,144.786 L177.096666,144.786 C176.984666,143.694 176.340666,142.84 175.220666,142.84 C174.184666,142.84 173.456666,143.638 173.302666,144.786 Z M184.017333,149.168 C185.459333,149.168 186.313333,148.594 187.041333,147.782 L186.019333,146.774 C185.487333,147.32 184.899333,147.698 184.101333,147.698 C182.799333,147.698 181.889333,146.634 181.889333,145.318 L181.889333,145.29 C181.889333,144.002 182.785333,142.938 184.017333,142.938 C184.871333,142.938 185.417333,143.316 185.935333,143.862 L186.985333,142.728 C186.299333,141.972 185.431333,141.454 184.031333,141.454 C181.819333,141.454 180.195333,143.218 180.195333,145.318 L180.195333,145.346 C180.195333,147.446 181.819333,149.168 184.017333,149.168 Z M190.224,149 L191.932,149 L191.932,143.064 L194.312,143.064 L194.312,141.608 L187.844,141.608 L187.844,143.064 L190.224,143.064 L190.224,149 Z M201.694666,149 L200.014666,149 L200.014666,148.09 C199.510666,148.692 198.740666,149.154 197.620666,149.154 C196.220666,149.154 194.988666,148.356 194.988666,146.844 C194.988666,145.206 196.262666,144.422 197.984666,144.422 C198.880666,144.422 199.454666,144.548 200.028666,144.73 L200.028666,144.59 C200.028666,143.568 199.384666,143.008 198.208666,143.008 C197.382666,143.008 196.766666,143.19 196.094666,143.47 L195.632666,142.112 C196.444666,141.748 197.242666,141.496 198.446666,141.496 C200.630666,141.496 201.694666,142.644 201.694666,144.618 L201.694666,149 Z M200.056666,146.326 L200.056666,145.906 C199.622666,145.738 199.020666,145.612 198.362666,145.612 C197.298666,145.612 196.668666,146.046 196.668666,146.788 C196.668666,147.488 197.298666,147.88 198.096666,147.88 C199.216666,147.88 200.056666,147.25 200.056666,146.326 Z M203.183333,149 L204.989333,149 L206.795333,146.41 L208.615333,149 L210.463333,149 L207.733333,145.206 L210.351333,141.608 L208.545333,141.608 L206.837333,144.044 L205.129333,141.608 L203.281333,141.608 L205.899333,145.248 L203.183333,149 Z" id="Отдыхай-в-лучших-мес-Copy-2" fill="#5B4D00"></path>
            <polygon id="Path-12-Copy-2" fill="#1E47B8" transform="translate(37.351942, 224.442231) rotate(-17.000000) translate(-37.351942, -224.442231) " points="28.6654492 198.576373 6.30606461 233.692215 43.0484138 250.308088 68.3978184 206.393188"></polygon>
            <polygon id="Path-11-Copy-2" fill="url(#linearGradient-3)" points="37 234.740361 45.6417233 193.076719 213.875031 180.059588 247.169471 257.122799"></polygon>
            <path d="M94.26,218 L94.26,208.2 L101.568,208.2 L101.568,209.754 L95.968,209.754 L95.968,212.008 L98.698,212.008 C100.854,212.008 102.254,213.086 102.254,214.976 C102.254,216.936 100.854,218 98.614,218 L94.26,218 Z M95.968,216.46 L98.236,216.46 C99.72,216.46 100.532,216.11 100.532,214.906 C100.532,213.954 99.818,213.464 98.544,213.464 L95.968,213.464 L95.968,216.46 Z M105.632667,220.282 C106.822667,220.282 107.480667,219.722 108.068667,218.21 L111.008667,210.608 L109.244667,210.608 L107.326667,216.096 L105.226667,210.608 L103.420667,210.608 L106.500667,218 C106.220667,218.644 105.926667,218.854 105.450667,218.854 C105.100667,218.854 104.764667,218.742 104.456667,218.574 L103.882667,219.834 C104.400667,220.114 104.918667,220.282 105.632667,220.282 Z M111.447334,219.778 L111.447334,216.544 L112.245334,216.544 C112.861334,215.312 113.071334,213.59 113.071334,211.518 L113.071334,210.608 L118.797334,210.608 L118.797334,216.544 L119.847334,216.544 L119.623334,219.778 L118.209334,219.778 L118.209334,218 L113.029334,218 L112.861334,219.778 L111.447334,219.778 Z M113.981334,216.544 L117.103334,216.544 L117.103334,212.064 L114.667334,212.064 L114.667334,213.044 C114.667334,214.388 114.415334,215.634 113.981334,216.544 Z M121.378,218 L121.378,210.608 L123.072,210.608 L123.072,213.198 L124.766,213.198 C126.432,213.198 127.706,213.926 127.706,215.536 C127.706,217.062 126.628,218 124.892,218 L121.378,218 Z M123.072,216.628 L124.668,216.628 C125.522,216.628 126.012,216.25 126.012,215.536 C126.012,214.878 125.508,214.514 124.64,214.514 L123.072,214.514 L123.072,216.628 Z M133.623334,218 L133.623334,210.608 L137.417334,210.608 C138.887334,210.608 139.853334,211.322 139.853334,212.456 C139.853334,213.394 139.293334,213.87 138.663334,214.15 C139.559334,214.402 140.189334,214.948 140.189334,215.998 C140.189334,217.244 139.139334,218 137.459334,218 L133.623334,218 Z M135.289334,216.656 L137.207334,216.656 C138.033334,216.656 138.467334,216.278 138.467334,215.704 C138.467334,215.172 138.033334,214.808 137.123334,214.808 L135.289334,214.808 L135.289334,216.656 Z M135.289334,213.66 L137.025334,213.66 C137.739334,213.66 138.131334,213.282 138.131334,212.75 C138.131334,212.274 137.809334,211.91 137.053334,211.91 L135.289334,211.91 L135.289334,213.66 Z M147.898667,218 L149.606667,218 L149.606667,212.064 L151.986667,212.064 L151.986667,210.608 L145.518667,210.608 L145.518667,212.064 L147.898667,212.064 L147.898667,218 Z M156.681334,218.168 C154.427334,218.168 152.761334,216.446 152.761334,214.318 C152.761334,212.204 154.441334,210.454 156.709334,210.454 C158.977334,210.454 160.643334,212.176 160.643334,214.318 C160.643334,216.418 158.963334,218.168 156.681334,218.168 Z M156.709334,216.698 C158.081334,216.698 158.949334,215.62 158.949334,214.318 C158.949334,213.016 158.011334,211.938 156.681334,211.938 C155.323334,211.938 154.455334,213.002 154.455334,214.318 C154.455334,215.606 155.393334,216.698 156.709334,216.698 Z M162.482001,218 L164.176001,218 L164.176001,212.064 L167.382001,212.064 L167.382001,218 L169.076001,218 L169.076001,210.608 L162.482001,210.608 L162.482001,218 Z M174.708668,218.168 C172.566668,218.168 170.914668,216.614 170.914668,214.304 C170.914668,212.19 172.412668,210.454 174.526668,210.454 C176.878668,210.454 178.068668,212.302 178.068668,214.43 C178.068668,214.542 178.054668,214.822 178.040668,214.906 L172.608668,214.906 C172.790668,216.11 173.644668,216.782 174.736668,216.782 C175.562668,216.782 176.150668,216.474 176.738668,215.9 L177.732668,216.782 C177.032668,217.622 176.066668,218.168 174.708668,218.168 Z M172.594668,213.786 L176.388668,213.786 C176.276668,212.694 175.632668,211.84 174.512668,211.84 C173.476668,211.84 172.748668,212.638 172.594668,213.786 Z" id="Будь-в-топе-Copy-2" fill="#FFFFFF"></path>
            <path d="M84.9557933,207.500522 L78.3465818,206.897556 C77.9299433,206.861013 77.5699298,206.60521 77.3996762,206.221505 L75.0324123,200.685188 C74.6536501,199.771604 73.3088548,199.771604 72.9300926,200.685188 L70.5817668,206.221505 C70.4302619,206.60521 70.0514996,206.861013 69.6348612,206.897556 L63.0254603,207.500522 C62.0406785,207.59188 61.6429782,208.779539 62.3815645,209.419047 L67.3622878,213.639804 C67.6842357,213.913879 67.8168025,214.315856 67.7221119,214.717832 L66.2260012,220.637672 C65.9987438,221.56971 67.0403399,222.336937 67.9114931,221.843785 L73.4224835,218.719146 C73.7823076,218.518158 74.2178841,218.518158 74.5777083,218.719146 L80.088888,221.843785 C80.9600412,222.336937 82.0016373,221.587981 81.7741906,220.637672 L80.2970179,214.717832 C80.2023273,214.315856 80.3348941,213.913879 80.656842,213.639804 L85.6375653,209.419047 C86.3572135,208.779539 85.9405751,207.59188 84.9557933,207.500522 L84.9557933,207.500522 Z" id="Shape-Copy-2" fill="#FFFFFF"></path>
            <polygon id="Path-13-Copy-2" fill="url(#linearGradient-4)" transform="translate(161.000000, 302.000000) scale(-1, 1) rotate(-12.000000) translate(-161.000000, -302.000000) " points="76.4416114 252 290 271.826725 246.221249 352 32 310.287885"></polygon>
            <path d="M112.26,289 L113.982,289 L113.982,280.754 L118.532,280.754 L118.532,289 L120.254,289 L120.254,279.2 L112.26,279.2 L112.26,289 Z M126.208667,289.168 C123.954667,289.168 122.288667,287.446 122.288667,285.318 C122.288667,283.204 123.968667,281.454 126.236667,281.454 C128.504667,281.454 130.170667,283.176 130.170667,285.318 C130.170667,287.418 128.490667,289.168 126.208667,289.168 Z M126.236667,287.698 C127.608667,287.698 128.476667,286.62 128.476667,285.318 C128.476667,284.016 127.538667,282.938 126.208667,282.938 C124.850667,282.938 123.982667,284.002 123.982667,285.318 C123.982667,286.606 124.920667,287.698 126.236667,287.698 Z M131.813334,289.084 C133.451334,289.084 134.459334,288.426 134.459334,283.064 L136.769334,283.064 L136.769334,289 L138.463334,289 L138.463334,281.608 L132.877334,281.608 C132.877334,287.236 132.289334,287.656 131.435334,287.656 C131.323334,287.656 131.057334,287.628 130.945334,287.6 L130.819334,288.986 C131.071334,289.028 131.547334,289.084 131.813334,289.084 Z M142.22,291.282 C143.41,291.282 144.068,290.722 144.656,289.21 L147.596,281.608 L145.832,281.608 L143.914,287.096 L141.814,281.608 L140.008,281.608 L143.088,289 C142.808,289.644 142.514,289.854 142.038,289.854 C141.688,289.854 141.352,289.742 141.044,289.574 L140.47,290.834 C140.988,291.114 141.506,291.282 142.22,291.282 Z M153.662667,289 L155.356667,289 L155.356667,281.608 L153.662667,281.608 L153.662667,284.87 C153.172667,285.15 152.514667,285.36 151.856667,285.36 C151.100667,285.36 150.638667,284.744 150.638667,284.072 L150.638667,281.608 L148.944667,281.608 L148.944667,284.478 C148.944667,285.99 149.994667,286.802 151.464667,286.802 C152.262667,286.802 153.144667,286.508 153.662667,286.242 L153.662667,289 Z M163.803334,289 L162.123334,289 L162.123334,288.09 C161.619334,288.692 160.849334,289.154 159.729334,289.154 C158.329334,289.154 157.097334,288.356 157.097334,286.844 C157.097334,285.206 158.371334,284.422 160.093334,284.422 C160.989334,284.422 161.563334,284.548 162.137334,284.73 L162.137334,284.59 C162.137334,283.568 161.493334,283.008 160.317334,283.008 C159.491334,283.008 158.875334,283.19 158.203334,283.47 L157.741334,282.112 C158.553334,281.748 159.351334,281.496 160.555334,281.496 C162.739334,281.496 163.803334,282.644 163.803334,284.618 L163.803334,289 Z M162.165334,286.326 L162.165334,285.906 C161.731334,285.738 161.129334,285.612 160.471334,285.612 C159.407334,285.612 158.777334,286.046 158.777334,286.788 C158.777334,287.488 159.407334,287.88 160.205334,287.88 C161.325334,287.88 162.165334,287.25 162.165334,286.326 Z M169.324001,280.754 C170.514001,280.754 171.326001,279.998 171.508001,278.808 L170.486001,278.612 C170.304001,279.2 169.954001,279.564 169.324001,279.564 C168.694001,279.564 168.344001,279.2 168.162001,278.612 L167.126001,278.808 C167.308001,279.998 168.134001,280.754 169.324001,280.754 Z M165.936001,289 L167.532001,289 L171.046001,284.072 L171.046001,289 L172.684001,289 L172.684001,281.608 L171.088001,281.608 C169.912001,283.26 168.750001,284.912 167.588001,286.564 L167.588001,281.608 L165.936001,281.608 L165.936001,289 Z M179.245334,289 L179.245334,281.608 L183.039334,281.608 C184.509334,281.608 185.475334,282.322 185.475334,283.456 C185.475334,284.394 184.915334,284.87 184.285334,285.15 C185.181334,285.402 185.811334,285.948 185.811334,286.998 C185.811334,288.244 184.761334,289 183.081334,289 L179.245334,289 Z M180.911334,287.656 L182.829334,287.656 C183.655334,287.656 184.089334,287.278 184.089334,286.704 C184.089334,286.172 183.655334,285.808 182.745334,285.808 L180.911334,285.808 L180.911334,287.656 Z M180.911334,284.66 L182.647334,284.66 C183.361334,284.66 183.753334,284.282 183.753334,283.75 C183.753334,283.274 183.431334,282.91 182.675334,282.91 L180.911334,282.91 L180.911334,284.66 Z M187.622001,289 L187.622001,281.608 L189.316001,281.608 L189.316001,284.198 L190.870001,284.198 C192.536001,284.198 193.810001,284.926 193.810001,286.536 C193.810001,288.062 192.732001,289 190.996001,289 L187.622001,289 Z M189.316001,287.628 L190.772001,287.628 C191.626001,287.628 192.116001,287.25 192.116001,286.536 C192.116001,285.878 191.612001,285.514 190.744001,285.514 L189.316001,285.514 L189.316001,287.628 Z M194.930001,289 L196.624001,289 L196.624001,281.608 L194.930001,281.608 L194.930001,289 Z M198.868668,289 L200.562668,289 L200.562668,283.064 L204.104668,283.064 L204.104668,281.608 L198.868668,281.608 L198.868668,289 Z M208.659335,289.168 C206.405335,289.168 204.739335,287.446 204.739335,285.318 C204.739335,283.204 206.419335,281.454 208.687335,281.454 C210.955335,281.454 212.621335,283.176 212.621335,285.318 C212.621335,287.418 210.941335,289.168 208.659335,289.168 Z M208.687335,287.698 C210.059335,287.698 210.927335,286.62 210.927335,285.318 C210.927335,284.016 209.989335,282.938 208.659335,282.938 C207.301335,282.938 206.433335,284.002 206.433335,285.318 C206.433335,286.606 207.371335,287.698 208.687335,287.698 Z M213.466001,290.778 L213.466001,287.544 L214.264001,287.544 C214.880001,286.312 215.090001,284.59 215.090001,282.518 L215.090001,281.608 L220.816001,281.608 L220.816001,287.544 L221.866001,287.544 L221.642001,290.778 L220.228001,290.778 L220.228001,289 L215.048001,289 L214.880001,290.778 L213.466001,290.778 Z M216.000001,287.544 L219.122001,287.544 L219.122001,283.064 L216.686001,283.064 L216.686001,284.044 C216.686001,285.388 216.434001,286.634 216.000001,287.544 Z M224.908668,291.282 C226.098668,291.282 226.756668,290.722 227.344668,289.21 L230.284668,281.608 L228.520668,281.608 L226.602668,287.096 L224.502668,281.608 L222.696668,281.608 L225.776668,289 C225.496668,289.644 225.202668,289.854 224.726668,289.854 C224.376668,289.854 224.040668,289.742 223.732668,289.574 L223.158668,290.834 C223.676668,291.114 224.194668,291.282 224.908668,291.282 Z M112.064,308 L113.66,308 L117.174,303.072 L117.174,308 L118.812,308 L118.812,300.608 L117.216,300.608 C116.04,302.26 114.878,303.912 113.716,305.564 L113.716,300.608 L112.064,300.608 L112.064,308 Z M127.893334,308.168 C129.685334,308.168 130.861334,307.16 130.861334,305.914 C130.861334,304.962 130.315334,304.402 129.517334,304.122 C130.161334,303.842 130.679334,303.338 130.679334,302.442 C130.679334,301.294 129.545334,300.454 127.921334,300.454 C126.717334,300.454 125.667334,300.86 124.911334,301.518 L125.667334,302.582 C126.227334,302.092 126.997334,301.826 127.767334,301.826 C128.467334,301.826 128.985334,302.162 128.985334,302.666 C128.985334,303.226 128.481334,303.632 127.683334,303.632 L126.773334,303.632 L126.773334,304.85 L127.683334,304.85 C128.649334,304.85 129.181334,305.228 129.181334,305.774 C129.181334,306.39 128.551334,306.796 127.781334,306.796 C126.941334,306.796 126.115334,306.474 125.457334,305.914 L124.659334,307.034 C125.527334,307.776 126.577334,308.168 127.893334,308.168 Z M138.944,308 L137.264,308 L137.264,307.09 C136.76,307.692 135.99,308.154 134.87,308.154 C133.47,308.154 132.238,307.356 132.238,305.844 C132.238,304.206 133.512,303.422 135.234,303.422 C136.13,303.422 136.704,303.548 137.278,303.73 L137.278,303.59 C137.278,302.568 136.634,302.008 135.458,302.008 C134.632,302.008 134.016,302.19 133.344,302.47 L132.882,301.112 C133.694,300.748 134.492,300.496 135.696,300.496 C137.88,300.496 138.944,301.644 138.944,303.618 L138.944,308 Z M137.306,305.326 L137.306,304.906 C136.872,304.738 136.27,304.612 135.612,304.612 C134.548,304.612 133.918,305.046 133.918,305.788 C133.918,306.488 134.548,306.88 135.346,306.88 C136.466,306.88 137.306,306.25 137.306,305.326 Z M141.076667,310.24 L141.076667,300.608 L142.770667,300.608 L142.770667,301.84 C143.316667,301.07 144.086667,300.454 145.276667,300.454 C147.026667,300.454 148.720667,301.84 148.720667,304.318 C148.720667,306.768 147.040667,308.154 145.276667,308.154 C144.058667,308.154 143.288667,307.538 142.770667,306.852 L142.770667,310.24 L141.076667,310.24 Z M144.884667,306.684 C146.046667,306.684 146.998667,305.774 146.998667,304.29 C146.998667,302.862 146.032667,301.924 144.884667,301.924 C143.736667,301.924 142.728667,302.876 142.728667,304.318 C142.728667,305.746 143.736667,306.684 144.884667,306.684 Z M156.775334,308 L155.095334,308 L155.095334,307.09 C154.591334,307.692 153.821334,308.154 152.701334,308.154 C151.301334,308.154 150.069334,307.356 150.069334,305.844 C150.069334,304.206 151.343334,303.422 153.065334,303.422 C153.961334,303.422 154.535334,303.548 155.109334,303.73 L155.109334,303.59 C155.109334,302.568 154.465334,302.008 153.289334,302.008 C152.463334,302.008 151.847334,302.19 151.175334,302.47 L150.713334,301.112 C151.525334,300.748 152.323334,300.496 153.527334,300.496 C155.711334,300.496 156.775334,301.644 156.775334,303.618 L156.775334,308 Z M155.137334,305.326 L155.137334,304.906 C154.703334,304.738 154.101334,304.612 153.443334,304.612 C152.379334,304.612 151.749334,305.046 151.749334,305.788 C151.749334,306.488 152.379334,306.88 153.177334,306.88 C154.297334,306.88 155.137334,306.25 155.137334,305.326 Z M162.520001,306.698 C163.794001,306.698 164.648001,305.69 164.648001,304.43 C164.648001,303.17 163.724001,302.148 162.492001,302.148 C161.246001,302.148 160.378001,303.156 160.378001,304.43 C160.378001,305.69 161.302001,306.698 162.520001,306.698 Z M162.492001,308.168 C160.098001,308.168 158.684001,306.586 158.684001,303.856 C158.684001,301.56 158.950001,299.25 161.638001,298.69 L165.670001,297.85 L165.950001,299.208 L161.918001,300.09 C160.490001,300.398 160.056001,301.21 159.972001,302.19 C160.350001,301.546 161.274001,300.804 162.814001,300.804 C164.718001,300.804 166.342001,302.372 166.342001,304.402 C166.342001,306.446 164.718001,308.168 162.492001,308.168 Z M174.382667,308 L172.702667,308 L172.702667,307.09 C172.198667,307.692 171.428667,308.154 170.308667,308.154 C168.908667,308.154 167.676667,307.356 167.676667,305.844 C167.676667,304.206 168.950667,303.422 170.672667,303.422 C171.568667,303.422 172.142667,303.548 172.716667,303.73 L172.716667,303.59 C172.716667,302.568 172.072667,302.008 170.896667,302.008 C170.070667,302.008 169.454667,302.19 168.782667,302.47 L168.320667,301.112 C169.132667,300.748 169.930667,300.496 171.134667,300.496 C173.318667,300.496 174.382667,301.644 174.382667,303.618 L174.382667,308 Z M172.744667,305.326 L172.744667,304.906 C172.310667,304.738 171.708667,304.612 171.050667,304.612 C169.986667,304.612 169.356667,305.046 169.356667,305.788 C169.356667,306.488 169.986667,306.88 170.784667,306.88 C171.904667,306.88 172.744667,306.25 172.744667,305.326 Z M178.097334,308 L179.805334,308 L179.805334,302.064 L182.185334,302.064 L182.185334,300.608 L175.717334,300.608 L175.717334,302.064 L178.097334,302.064 L178.097334,308 Z M183.646001,308 L183.646001,300.608 L185.340001,300.608 L185.340001,303.198 L186.894001,303.198 C188.560001,303.198 189.834001,303.926 189.834001,305.536 C189.834001,307.062 188.756001,308 187.020001,308 L183.646001,308 Z M185.340001,306.628 L186.796001,306.628 C187.650001,306.628 188.140001,306.25 188.140001,305.536 C188.140001,304.878 187.636001,304.514 186.768001,304.514 L185.340001,304.514 L185.340001,306.628 Z M190.954001,308 L192.648001,308 L192.648001,300.608 L190.954001,300.608 L190.954001,308 Z M194.892668,308 L194.892668,300.608 L198.686668,300.608 C200.156668,300.608 201.122668,301.322 201.122668,302.456 C201.122668,303.394 200.562668,303.87 199.932668,304.15 C200.828668,304.402 201.458668,304.948 201.458668,305.998 C201.458668,307.244 200.408668,308 198.728668,308 L194.892668,308 Z M196.558668,306.656 L198.476668,306.656 C199.302668,306.656 199.736668,306.278 199.736668,305.704 C199.736668,305.172 199.302668,304.808 198.392668,304.808 L196.558668,304.808 L196.558668,306.656 Z M196.558668,303.66 L198.294668,303.66 C199.008668,303.66 199.400668,303.282 199.400668,302.75 C199.400668,302.274 199.078668,301.91 198.322668,301.91 L196.558668,301.91 L196.558668,303.66 Z M209.471335,308 L207.791335,308 L207.791335,307.09 C207.287335,307.692 206.517335,308.154 205.397335,308.154 C203.997335,308.154 202.765335,307.356 202.765335,305.844 C202.765335,304.206 204.039335,303.422 205.761335,303.422 C206.657335,303.422 207.231335,303.548 207.805335,303.73 L207.805335,303.59 C207.805335,302.568 207.161335,302.008 205.985335,302.008 C205.159335,302.008 204.543335,302.19 203.871335,302.47 L203.409335,301.112 C204.221335,300.748 205.019335,300.496 206.223335,300.496 C208.407335,300.496 209.471335,301.644 209.471335,303.618 L209.471335,308 Z M207.833335,305.326 L207.833335,304.906 C207.399335,304.738 206.797335,304.612 206.139335,304.612 C205.075335,304.612 204.445335,305.046 204.445335,305.788 C204.445335,306.488 205.075335,306.88 205.873335,306.88 C206.993335,306.88 207.833335,306.25 207.833335,305.326 Z M214.992001,299.754 C216.182001,299.754 216.994001,298.998 217.176001,297.808 L216.154001,297.612 C215.972001,298.2 215.622001,298.564 214.992001,298.564 C214.362001,298.564 214.012001,298.2 213.830001,297.612 L212.794001,297.808 C212.976001,298.998 213.802001,299.754 214.992001,299.754 Z M211.604001,308 L213.200001,308 L216.714001,303.072 L216.714001,308 L218.352001,308 L218.352001,300.608 L216.756001,300.608 C215.580001,302.26 214.418001,303.912 213.256001,305.564 L213.256001,300.608 L211.604001,300.608 L211.604001,308 Z" id="Получай-выгоду-и-зар-Copy-2" fill="#FFFFFF"></path>
            <g id="wallet-24-copy-2" transform="translate(82.000000, 284.000000)" fill="#FFFFFF">
                <g id="Capa_1">
                    <path d="M20.625,8.35714286 L20.625,6.42857143 C20.625,5.71845536 20.0093437,5.14285714 19.25,5.14285714 L4.125,5.14285714 C3.3666875,5.14285714 2.75,4.56621429 2.75,3.85714286 C2.75,3.14807143 3.3666875,2.57142857 4.125,2.57142857 L19.25,2.57142857 C20.0093437,2.57142857 20.625,1.99575 20.625,1.28571429 C20.625,0.575678571 20.0093437,0 19.25,0 L4.125,0 C1.85032031,0 0,1.73020982 0,3.85714286 L0,5.14285714 L0,15.4285714 C0,16.8487232 1.2313125,18 2.75,18 L19.25,18 C20.0093437,18 20.625,17.4244018 20.625,16.7142857 L20.625,14.7857143 C21.3843437,14.7857143 22,14.2101161 22,13.5 L22,9.64285714 C22,8.93274107 21.3843437,8.35714286 20.625,8.35714286 L20.625,8.35714286 Z M18.5625,12.8571429 C17.8031563,12.8571429 17.1875,12.2815446 17.1875,11.5714286 C17.1875,10.8613125 17.8031563,10.2857143 18.5625,10.2857143 C19.3218438,10.2857143 19.9375,10.8613125 19.9375,11.5714286 C19.9375,12.2815446 19.3218438,12.8571429 18.5625,12.8571429 L18.5625,12.8571429 Z" id="Shape"></path>
                </g>
            </g>
        </g>
    </g>
</svg>