<?xml version="1.0" encoding="UTF-8"?>
<svg width="305px" height="349px" viewBox="0 0 305 349" version="1.1" xmlns="http://www.w3.org/2000/svg" xmlns:xlink="http://www.w3.org/1999/xlink">
    <!-- Generator: Sketch 46.2 (44496) - http://www.bohemiancoding.com/sketch -->
    <title>Group 14</title>
    <desc>Created with Sketch.</desc>
    <defs>
        <linearGradient x1="0%" y1="2.13047471%" x2="95.6951402%" y2="50%" id="linearGradient-1">
            <stop stop-color="#FFEB22" offset="0%"></stop>
            <stop stop-color="#8CF137" offset="100%"></stop>
        </linearGradient>
        <linearGradient x1="4.78862246%" y1="37.0267052%" x2="95.2029387%" y2="72.4662534%" id="linearGradient-2">
            <stop stop-color="#F9B903" offset="0%"></stop>
            <stop stop-color="#E4D432" offset="100%"></stop>
        </linearGradient>
        <linearGradient x1="3.77861129%" y1="50%" x2="89.4151262%" y2="75.2490048%" id="linearGradient-3">
            <stop stop-color="#118FFF" offset="0%"></stop>
            <stop stop-color="#315BE5" offset="100%"></stop>
        </linearGradient>
        <linearGradient x1="11.0851382%" y1="24.7088601%" x2="90.3297764%" y2="57.9072606%" id="linearGradient-4">
            <stop stop-color="#C373D6" offset="0%"></stop>
            <stop stop-color="#EF3E72" offset="100%"></stop>
        </linearGradient>
    </defs>
    <g id="Page-1" stroke="none" stroke-width="1" fill="none" fill-rule="evenodd">
        <g id="Iphone-7-Copy" transform="translate(-8.000000, -366.000000)">
            <g id="Group-14" transform="translate(-2.000000, 366.000000)">
                <polygon id="Path-6-Copy-4" fill="#B26A00" points="245 120 258.73707 179 309.194507 170.494881 315 120"></polygon>
                <polygon id="Path-14-Copy-2" fill="#C43249" transform="translate(69.500000, 310.500000) scale(-1, 1) translate(-69.500000, -310.500000) " points="21 349 51.7560943 281.049344 118 272 88.523558 349"></polygon>
                <polygon id="Path-6-Copy-3" fill="#B2BC03" points="12 0 29.8868028 75.5638589 99 78 84.2338074 5.36129529"></polygon>
                <polygon id="Path-5-Copy-3" fill="url(#linearGradient-1)" points="33 14 270 43.1110698 253.117883 95 47.311691 95"></polygon>
                <g id="chat-bubbles-2-copy-2" transform="translate(177.000000, 51.000000)" fill="#324B00">
                    <g id="Capa_1">
                        <g id="forum">
                            <path d="M20.9,4.4 L18.7,4.4 L18.7,14.3 L4.4,14.3 L4.4,16.5 C4.4,17.16 4.84,17.6 5.5,17.6 L17.6,17.6 L22,22 L22,5.5 C22,4.84 21.56,4.4 20.9,4.4 L20.9,4.4 Z M16.5,11 L16.5,1.1 C16.5,0.44 16.06,0 15.4,0 L1.1,0 C0.44,0 0,0.44 0,1.1 L0,16.5 L4.4,12.1 L15.4,12.1 C16.06,12.1 16.5,11.66 16.5,11 L16.5,11 Z" id="Shape"></path>
                        </g>
                    </g>
                </g>
                <text id="Знакомься-и-общайся-Copy-2" font-family="GothamPro-Medium, Gotham Pro" font-size="14" font-weight="400" line-spacing="19" letter-spacing="0.116666779" fill="#2B4100">
                    <tspan x="76.2626654" y="51">Знакомься и</tspan>
                    <tspan x="102.419333" y="70">общайся</tspan>
                </text>
                <polygon id="Path-5-Copy-4" fill="url(#linearGradient-2)" points="297 106 285.713177 162.375967 60.5652676 180.809445 49.2966508 106"></polygon>
                <g id="compass-with-white-needles-2-copy-3" transform="translate(218.000000, 123.000000)" fill="#5B4D00">
                    <g id="Capa_1">
                        <g id="explore">
                            <path d="M10.5,9.345 C9.87,9.345 9.345,9.87 9.345,10.5 C9.345,11.13 9.87,11.655 10.5,11.655 C11.13,11.655 11.655,11.13 11.655,10.5 C11.655,9.87 11.13,9.345 10.5,9.345 L10.5,9.345 Z M10.5,0 C4.725,0 0,4.725 0,10.5 C0,16.275 4.725,21 10.5,21 C16.275,21 21,16.275 21,10.5 C21,4.725 16.275,0 10.5,0 L10.5,0 Z M12.81,12.81 L4.2,16.8 L8.19,8.19 L16.8,4.2 L12.81,12.81 L12.81,12.81 Z" id="Shape"></path>
                        </g>
                    </g>
                </g>
                <text id="Отдыхай-в-лучших-мес-Copy-2" font-family="GothamPro-Medium, Gotham Pro" font-size="14" font-weight="400" line-spacing="19" letter-spacing="0.116666779" fill="#5B4D00">
                    <tspan x="133.411999" y="126">Отдыхай в </tspan>
                    <tspan x="100.675332" y="145">лучших местах</tspan>
                </text>
                <polygon id="Path-12-Copy-2" fill="#1E47B8" transform="translate(37.351942, 224.442231) rotate(-17.000000) translate(-37.351942, -224.442231) " points="28.6654492 198.576373 6.30606461 233.692215 43.0484138 250.308088 68.3978184 206.393188"></polygon>
                <polygon id="Path-11-Copy-2" fill="url(#linearGradient-3)" points="37 234.740361 45.6417233 193.076719 213.875031 180.059588 247.169471 257.122799"></polygon>
                <text id="Будь-в-топе-Copy-2" font-family="GothamPro-Medium, Gotham Pro" font-size="14" font-weight="400" line-spacing="19" letter-spacing="0.116666779" fill="#FFFFFF">
                    <tspan x="93" y="212">Будь в топе</tspan>
                </text>
                <path d="M84.9557933,207.500522 L78.3465818,206.897556 C77.9299433,206.861013 77.5699298,206.60521 77.3996762,206.221505 L75.0324123,200.685188 C74.6536501,199.771604 73.3088548,199.771604 72.9300926,200.685188 L70.5817668,206.221505 C70.4302619,206.60521 70.0514996,206.861013 69.6348612,206.897556 L63.0254603,207.500522 C62.0406785,207.59188 61.6429782,208.779539 62.3815645,209.419047 L67.3622878,213.639804 C67.6842357,213.913879 67.8168025,214.315856 67.7221119,214.717832 L66.2260012,220.637672 C65.9987438,221.56971 67.0403399,222.336937 67.9114931,221.843785 L73.4224835,218.719146 C73.7823076,218.518158 74.2178841,218.518158 74.5777083,218.719146 L80.088888,221.843785 C80.9600412,222.336937 82.0016373,221.587981 81.7741906,220.637672 L80.2970179,214.717832 C80.2023273,214.315856 80.3348941,213.913879 80.656842,213.639804 L85.6375653,209.419047 C86.3572135,208.779539 85.9405751,207.59188 84.9557933,207.500522 L84.9557933,207.500522 Z" id="Shape-Copy-2" fill="#FFFFFF"></path>
                <polygon id="Path-13-Copy-2" fill="url(#linearGradient-4)" transform="translate(161.000000, 302.000000) scale(-1, 1) rotate(-12.000000) translate(-161.000000, -302.000000) " points="76.4416114 252 290 271.826725 246.221249 352 32 310.287885"></polygon>
                <text id="Получай-выгоду-и-зар-Copy-2" font-family="GothamPro-Medium, Gotham Pro" font-size="14" font-weight="400" line-spacing="19" letter-spacing="0.116666779" fill="#FFFFFF">
                    <tspan x="111" y="285">Получай выгоду</tspan>
                    <tspan x="111" y="304">и зарабатывай</tspan>
                </text>
                <g id="wallet-24-copy-2" transform="translate(82.000000, 284.000000)" fill="#FFFFFF">
                    <g id="Capa_1">
                        <path d="M20.625,8.35714286 L20.625,6.42857143 C20.625,5.71845536 20.0093437,5.14285714 19.25,5.14285714 L4.125,5.14285714 C3.3666875,5.14285714 2.75,4.56621429 2.75,3.85714286 C2.75,3.14807143 3.3666875,2.57142857 4.125,2.57142857 L19.25,2.57142857 C20.0093437,2.57142857 20.625,1.99575 20.625,1.28571429 C20.625,0.575678571 20.0093437,0 19.25,0 L4.125,0 C1.85032031,0 0,1.73020982 0,3.85714286 L0,5.14285714 L0,15.4285714 C0,16.8487232 1.2313125,18 2.75,18 L19.25,18 C20.0093437,18 20.625,17.4244018 20.625,16.7142857 L20.625,14.7857143 C21.3843437,14.7857143 22,14.2101161 22,13.5 L22,9.64285714 C22,8.93274107 21.3843437,8.35714286 20.625,8.35714286 L20.625,8.35714286 Z M18.5625,12.8571429 C17.8031563,12.8571429 17.1875,12.2815446 17.1875,11.5714286 C17.1875,10.8613125 17.8031563,10.2857143 18.5625,10.2857143 C19.3218438,10.2857143 19.9375,10.8613125 19.9375,11.5714286 C19.9375,12.2815446 19.3218438,12.8571429 18.5625,12.8571429 L18.5625,12.8571429 Z" id="Shape"></path>
                    </g>
                </g>
            </g>
        </g>
    </g>
</svg>