<svg xmlns="http://www.w3.org/2000/svg" xmlns:xlink="http://www.w3.org/1999/xlink" width="76" height="76" viewBox="0 0 38 38"><defs><path id="a" d="M20 119a10 10 0 0 1 10-10h18a10 10 0 0 1 10 10v18a10 10 0 0 1-10 10H30a10 10 0 0 1-10-10z"/><path id="c" d="M43.5 122.5c0-2.47-2.02-4.5-4.5-4.5a4.52 4.52 0 0 0-4.5 4.5 4.5 4.5 0 0 0 9 0zM30 133.75V136h18v-2.25c0-3.04-5.96-4.5-9-4.5s-9 1.46-9 4.5z"/><clipPath id="b"><use fill="#fff" xlink:href="#a"/></clipPath></defs><desc>Generated with Avocode.</desc><g transform="translate(-20 -109)"><use fill="#242932" xlink:href="#a"/><use fill="#fff" fill-opacity="0" stroke="#979797" stroke-miterlimit="50" stroke-width="6" clip-path="url(&quot;#b&quot;)" xlink:href="#a"/></g><g opacity=".6" transform="translate(-20 -109)"><use fill="#fff" xlink:href="#c"/></g></svg>