<svg xmlns="http://www.w3.org/2000/svg" xmlns:xlink="http://www.w3.org/1999/xlink" width="46" height="38" viewBox="0 0 23 19"><defs><path id="a" d="M40 835.29a.96.96 0 0 0 0 1.42 1.12 1.12 0 0 0 1.5 0l3.19-3 .07-.08.03-.03.03-.04.03-.05.02-.04.03-.04.02-.05.02-.04.01-.05.02-.04.01-.05.01-.06v-.04l.01-.1-.01-.1v-.04l-.01-.06-.01-.04-.02-.05-.01-.05-.02-.04-.02-.05-.03-.04-.02-.04-.03-.05a.14.14 0 0 1-.03-.04l-.03-.03a.23.23 0 0 0-.07-.07v-.01l-3.19-3a1.1 1.1 0 0 0-1.5 0 .96.96 0 0 0 0 1.42l1.37 1.29H29.06c-.58 0-1.06.45-1.06 1s.48 1 1.06 1h12.31z"/><path id="b" d="M49.91 824H36.09c-.6 0-1.09.47-1.09 1.06v4.22c0 .58.49 1.05 1.09 1.05.6 0 1.09-.47 1.09-1.05v-3.17h11.64v14.78H37.18v-3.17c0-.58-.49-1.05-1.09-1.05-.6 0-1.09.47-1.09 1.05v4.22c0 .59.49 1.06 1.09 1.06h13.82c.6 0 1.09-.47 1.09-1.06v-16.88c0-.59-.49-1.06-1.09-1.06z"/></defs><desc>Generated with Avocode.</desc><g transform="translate(-28 -824)"><use fill="#786600" xlink:href="#a"/></g><g transform="translate(-28 -824)"><use fill="#786600" xlink:href="#b"/></g></svg>