<?xml version="1.0" encoding="UTF-8"?>
<svg width="13px" height="18px" viewBox="0 0 13 18" version="1.1" xmlns="http://www.w3.org/2000/svg" xmlns:xlink="http://www.w3.org/1999/xlink">
    <!-- Generator: Sketch 46.2 (44496) - http://www.bohemiancoding.com/sketch -->
    <title>Group 22</title>
    <desc>Created with Sketch.</desc>
    <defs></defs>
    <g id="Symbols" stroke="none" stroke-width="1" fill="none" fill-rule="evenodd">
        <g id="Меню-сверху" transform="translate(-433.000000, -26.000000)" fill-rule="nonzero" fill="#FFFFFF">
            <g id="Group-14">
                <g id="Group-25" transform="translate(389.000000, 0.000000)">
                    <g id="Group-23" transform="translate(44.000000, 26.000000)">
                        <g id="Group-22">
                            <path d="M11.0971463,1.84644886 C9.86938214,0.655806564 8.23688297,0 6.50065773,0 C4.76409351,0 3.13193332,0.655806564 1.9041692,1.84644886 C-0.367974066,4.04956444 -0.650339475,8.19478788 1.29265995,10.7062476 L6.50065773,18 L11.7008591,10.7164381 C13.6516549,8.19478788 13.3692895,4.04956444 11.0971463,1.84644886 Z M6.56065614,8.54685246 C5.25255516,8.54685246 4.18783758,7.51432694 4.18783758,6.2457768 C4.18783758,4.97722666 5.25255516,3.94470113 6.56065614,3.94470113 C7.86875712,3.94470113 8.93347471,4.97722666 8.93347471,6.2457768 C8.93347471,7.51432694 7.86875712,8.54685246 6.56065614,8.54685246 Z" id="Shape"></path>
                        </g>
                    </g>
                </g>
            </g>
        </g>
    </g>
</svg>