<?xml version="1.0" encoding="UTF-8"?>
<svg width="18px" height="17px" viewBox="0 0 18 17" version="1.1" xmlns="http://www.w3.org/2000/svg" xmlns:xlink="http://www.w3.org/1999/xlink">
    <!-- Generator: Sketch 46.2 (44496) - http://www.bohemiancoding.com/sketch -->
    <title>rocket-pointing-to-upper-left-direction copy</title>
    <desc>Created with Sketch.</desc>
    <defs></defs>
    <g id="Symbols" stroke="none" stroke-width="1" fill="none" fill-rule="evenodd">
        <g id="Меню-сверху" transform="translate(0.000000, -29.000000)" fill-rule="nonzero" fill="#FFFFFF">
            <g id="Group-14">
                <g id="rocket-pointing-to-upper-left-direction-copy" transform="translate(9.000000, 37.500000) scale(-1, 1) translate(-9.000000, -37.500000) translate(0.000000, 29.000000)">
                    <path d="M6.38764482,11.2069457 L7.14399728,13.9367298 C7.15280278,13.969441 7.17185579,13.9982713 7.19768935,14.0201095 L9.5233842,15.9616829 C9.55360516,15.9866937 9.59088279,16 9.6290195,16 C9.64543393,16 9.6612961,15.9975975 9.67740372,15.9926076 C9.73078898,15.9761288 9.77217789,15.9340232 9.78773325,15.8803977 L10.5866405,13.1240935 C11.1687239,13.1476875 11.6824496,13.0139473 12.1052055,12.7223494 L13.1637676,13.5953875 C13.2309287,13.6504298 13.3286483,13.6448239 13.3887834,13.5815576 L14.1747739,12.7512412 C14.205271,12.7191152 14.22144,12.6758083 14.2199673,12.6310537 C14.2184946,12.5866071 14.1991041,12.5444706 14.1662752,12.5144084 L13.1182981,11.5495202 C13.2077644,11.3044941 13.3682577,10.6938849 13.1980999,9.7649113 L15.8914166,8.7776304 C15.9439428,8.75847186 15.9829386,8.71399447 15.9955792,8.6595066 C16.008496,8.60501872 15.9926338,8.54788191 15.9541903,8.50722392 L13.8687905,6.30759546 C13.8444296,6.2819686 13.8130428,6.26487376 13.7781276,6.25840544 L11.0311495,5.76536562 C10.5141716,5.16538295 9.91272838,4.55831593 9.24292753,3.95984253 C5.38599632,0.514292865 2.37114079,0 0.917405093,0 C0.438901401,0 0.175135292,0.0583380659 0.163998023,0.0606789809 C0.0985550652,0.0754021041 0.0486981468,0.128411508 0.0372540665,0.194696364 C0.00792285786,0.366106785 -0.619353879,4.45078784 4.67545086,9.76635897 C4.68247685,9.7731045 5.39216323,10.4637976 6.38764482,11.2069457 Z M6.63791121,8.23564698 C5.71667808,8.23564698 4.96999019,7.48603055 4.96999019,6.56118432 C4.96999019,5.63633809 5.7166474,4.88675246 6.63791121,4.88675246 C7.55917502,4.88675246 8.30583223,5.63633809 8.30583223,6.56118432 C8.30580155,7.48603055 7.55914434,8.23564698 6.63791121,8.23564698 Z" id="Shape"></path>
                    <path d="M13.7973916,14.0396147 C13.7577433,14.0060209 13.700175,13.9925658 13.6458711,14.0039983 C13.5915672,14.0155186 13.5480084,14.0499625 13.5304285,14.0953698 L13.1100067,15.1720708 C13.0898425,15.2236633 13.1060963,15.2805616 13.1516272,15.3181128 L15.1455366,16.9610125 C15.1760719,16.9859879 15.2160943,17 15.2580548,17 L15.2580548,17 L16.9388241,17 L16.9388241,17 C17.0051313,17 17.0646378,16.9652337 17.0896985,16.9125272 C17.1144192,16.8595569 17.0994576,16.7989943 17.0519884,16.7592153 L13.7973916,14.0396147 Z" id="Shape"></path>
                    <path d="M14.9458271,13.0877171 C14.9167126,13.0594241 14.8765358,13 14.8348199,13 C14.787589,13 14.7471557,13.0622624 14.7189389,13.0928259 L13.7171954,14.2805392 C13.6650907,14.3367964 13.6678482,14.4208088 13.7236404,14.473929 L17.0817056,16.9570975 C17.1104995,16.984524 17.1500992,17 17.1911737,17 L17.6933995,17 L17.8466998,17 C17.93135,17 18,16.9359749 18,16.857161 L18,16.1732009 C18,16.1366023 17.9846411,16.0794787 17.957707,16.0528887 L14.9458271,13.0877171 Z" id="Shape"></path>
                    <path d="M17.9454906,14.4559504 L15.3630667,12.2861564 C15.3032007,12.2354632 15.2104782,12.2277243 15.1408798,12.2662888 L14.0835866,12.8433918 C14.0370744,12.8689172 14.0067831,12.910831 14.0010115,12.9578499 C13.9952399,13.0047712 14.0894803,13.1389575 14.0533329,13.0849894 L17.6930123,16.1968516 C17.7276418,16.2264416 17.7738144,16.241952 17.8203643,16.241952 C17.8434129,16.241952 17.8672536,16.2379525 17.8896232,16.2298234 C17.9563548,16.2058912 18,16.14928 18,16.0864906 L18,14.5669942 C17.9999623,14.5253081 17.9801201,14.4848576 17.9454906,14.4559504 Z" id="Shape"></path>
                </g>
            </g>
        </g>
    </g>
</svg>