<?xml version="1.0" encoding="UTF-8"?>
<svg width="19px" height="19px" viewBox="0 0 19 19" version="1.1" xmlns="http://www.w3.org/2000/svg" xmlns:xlink="http://www.w3.org/1999/xlink">
    <!-- Generator: Sketch 46.2 (44496) - http://www.bohemiancoding.com/sketch -->
    <title>bell-9</title>
    <desc>Created with Sketch.</desc>
    <defs></defs>
    <g id="Symbols" stroke="none" stroke-width="1" fill="none" fill-rule="evenodd">
        <g id="Левое-меню" transform="translate(-27.000000, -352.000000)" fill="#FFFFFF">
            <g id="Group-2" transform="translate(6.000000, 0.000000)">
                <g id="Group-11" transform="translate(21.000000, 352.000000)">
                    <g id="bell-9">
                        <g id="Capa_1">
                            <path d="M16.4695117,13.4527051 C15.1588828,12.0882305 14.546875,10.6556973 14.546875,8.95976172 L14.546875,7.23632812 C14.546875,5.83871484 13.9484121,4.49301758 12.9048594,3.5442793 C12.3977969,3.08326953 11.8058652,2.73525781 11.1699219,2.51293555 L11.1699219,1.66992188 C11.1699219,0.749126953 10.4207949,0 9.5,0 C8.57920508,0 7.83007812,0.749126953 7.83007812,1.66992188 L7.83007812,2.51850195 C7.03901758,2.80851172 6.3218418,3.30830078 5.74475391,3.98350586 C4.91183398,4.95807227 4.453125,6.19448242 4.453125,7.46492187 L4.453125,8.95972461 C4.453125,10.6556602 3.84111719,12.0881934 2.53048828,13.4527051 C1.72918555,13.5748691 1.11328125,14.2685918 1.11328125,15.1035156 C1.11328125,16.0243105 1.8624082,16.7734375 2.78320312,16.7734375 L6.77279492,16.7734375 C7.03137305,18.0422813 8.15593555,19 9.5,19 C10.8440645,19 11.9685898,18.0422813 12.2272051,16.7734375 L16.2167969,16.7734375 C17.1375918,16.7734375 17.8867188,16.0243105 17.8867188,15.1035156 C17.8867188,14.2685918 17.2708145,13.5748691 16.4695117,13.4527051 L16.4695117,13.4527051 Z M8.94335938,1.66992188 C8.94335938,1.36299023 9.19306836,1.11328125 9.5,1.11328125 C9.80693164,1.11328125 10.0566406,1.36299023 10.0566406,1.66992188 L10.0566406,2.25899609 C9.71141211,2.22025391 9.36061719,2.21658008 9.00971094,2.25005273 C8.98755664,2.25216797 8.96547656,2.25480273 8.94335938,2.25721484 L8.94335938,1.66992188 L8.94335938,1.66992188 Z M5.56640625,8.95972461 L5.56640625,7.46492187 C5.56640625,5.35195117 7.12529688,3.54810156 9.11539844,3.35828711 C10.2254512,3.25233984 11.3336855,3.62042773 12.1559551,4.36799609 C12.9679082,5.10621289 13.4335938,6.1516582 13.4335938,7.23632812 L13.4335938,8.95976172 C13.4335938,10.6329121 13.9298574,12.079584 14.9807207,13.4335937 L4.0192793,13.4335937 C5.07014258,12.079584 5.56640625,10.6329121 5.56640625,8.95972461 L5.56640625,8.95972461 Z M9.5,17.8867188 C8.77432617,17.8867188 8.15560156,17.421293 7.92582031,16.7734375 L11.0741426,16.7734375 C10.8443984,17.421293 10.2256738,17.8867188 9.5,17.8867188 L9.5,17.8867188 Z M16.2167969,15.6601562 L2.78320312,15.6601562 C2.47627148,15.6601562 2.2265625,15.4104473 2.2265625,15.1035156 C2.2265625,14.7966211 2.47623437,14.5469121 2.7830918,14.546875 L2.78338867,14.546875 L16.2167969,14.546875 C16.5237285,14.546875 16.7734375,14.796584 16.7734375,15.1035156 C16.7734375,15.4104473 16.5237285,15.6601562 16.2167969,15.6601562 L16.2167969,15.6601562 Z" id="Shape"></path>
                            <path d="M1.74744336,2.75626172 C1.47279688,2.61836328 1.13821875,2.72924609 1.00024609,3.0039668 C0.336544922,4.32598828 0,5.74998633 0,7.23632813 C0,8.38742383 0.208294922,9.5494668 0.602322266,10.5968047 C0.686300781,10.8199805 0.898232422,10.957582 1.12341211,10.957582 C1.18853906,10.957582 1.2547793,10.946041 1.31934961,10.9217715 C1.60705859,10.8135234 1.75256445,10.4924902 1.64431641,10.2047441 C1.29689844,9.28142578 1.11328125,8.25494336 1.11328125,7.23632813 C1.11328125,5.92499414 1.41000781,4.66910156 1.99518555,3.50349609 C2.13312109,3.22873828 2.02220117,2.89419727 1.74744336,2.75626172 L1.74744336,2.75626172 Z" id="Shape"></path>
                            <path d="M17.9997539,3.0039668 C17.8618184,2.72924609 17.5272402,2.61832617 17.2525566,2.75626172 C16.9777988,2.89419727 16.8668789,3.22873828 17.0048516,3.50349609 C17.5899922,4.66910156 17.8867187,5.92499414 17.8867187,7.23632813 C17.8867187,8.25494336 17.7031016,9.28142578 17.3556836,10.2047441 C17.2474355,10.4924902 17.3929043,10.8134863 17.6806504,10.9217715 C17.7452207,10.9460781 17.8114238,10.957582 17.8765879,10.957582 C18.1017305,10.957582 18.3136992,10.8199805 18.3976777,10.5968047 C18.7917051,9.5494668 19,8.38742383 19,7.23632813 C19,5.74998633 18.6634551,4.32598828 17.9997539,3.0039668 L17.9997539,3.0039668 Z" id="Shape"></path>
                            <path d="M3.09662891,5.13641992 C2.79767578,5.06476172 2.49723828,5.24893555 2.42550586,5.54785156 C2.29350781,6.09803516 2.2265625,6.66614258 2.2265625,7.23632812 C2.2265625,7.68720703 2.26868164,8.16517578 2.34516406,8.58221094 C2.3944082,8.85066016 2.62853125,9.03854492 2.89204492,9.03854492 C2.92536914,9.03854492 2.95917578,9.03553906 2.99309375,9.02930469 C3.29546094,8.97382617 3.49562891,8.68374219 3.4401875,8.381375 C3.37546875,8.02853906 3.33984375,7.62189453 3.33984375,7.23632812 C3.33984375,6.75349805 3.39643555,6.2727832 3.50806055,5.80758008 C3.57975586,5.50862695 3.39558203,5.20815234 3.09662891,5.13641992 L3.09662891,5.13641992 Z" id="Shape"></path>
                            <path d="M16.5744941,5.54785156 C16.5027988,5.24893555 16.2025098,5.06472461 15.9033711,5.13641992 C15.604418,5.20815234 15.4202441,5.50862695 15.4919766,5.80758008 C15.6035645,6.2727832 15.6601563,6.75349805 15.6601563,7.23632813 C15.6601563,7.62189453 15.6245313,8.02853906 15.5598125,8.38133789 C15.504334,8.68374219 15.704502,8.97382617 16.0069063,9.02926758 C16.0408613,9.03550195 16.0746309,9.03850781 16.1079551,9.03850781 C16.3714316,9.03850781 16.6055918,8.85062305 16.6548359,8.58217383 C16.7313184,8.16517578 16.7734375,7.68720703 16.7734375,7.23632813 C16.7734375,6.66614258 16.7064922,6.09803516 16.5744941,5.54785156 L16.5744941,5.54785156 Z" id="Shape"></path>
                        </g>
                    </g>
                </g>
            </g>
        </g>
    </g>
</svg>