<?xml version="1.0" encoding="UTF-8"?>
<svg width="17px" height="16px" viewBox="0 0 17 16" version="1.1" xmlns="http://www.w3.org/2000/svg" xmlns:xlink="http://www.w3.org/1999/xlink">
    <!-- Generator: Sketch 46.2 (44496) - http://www.bohemiancoding.com/sketch -->
    <title>chat-20</title>
    <desc>Created with Sketch.</desc>
    <defs></defs>
    <g id="Symbols" stroke="none" stroke-width="1" fill="none" fill-rule="evenodd">
        <g id="Левое-меню" transform="translate(-30.000000, -595.000000)" stroke-width="1.3" stroke="#FFFFFF">
            <g id="Group-2" transform="translate(6.000000, 0.000000)">
                <g id="chat-20" transform="translate(25.000000, 596.000000)">
                    <g id="Capa_1">
                        <path d="M7.36844086,0 C3.30549349,0 1.98038142e-05,2.97487719 1.98038142e-05,6.63157895 C1.98038142e-05,7.91 0.40454612,9.14814035 1.17110752,10.2185263 C1.02594963,11.8241053 0.636896997,13.0160702 0.0719847161,13.5807368 C-0.00268195057,13.6554035 -0.0213486172,13.769614 0.0258092775,13.8639298 C0.0678092775,13.9481754 0.153528576,14 0.245633839,14 C0.256932085,14 0.268475944,13.9992632 0.280019804,13.9975439 C0.379493488,13.9835439 2.69023033,13.6507368 4.36138822,12.6864561 C5.31068647,13.0693684 6.32163384,13.2631579 7.36844086,13.2631579 C11.4313882,13.2631579 14.7368619,10.2882807 14.7368619,6.63157895 C14.7368619,2.97487719 11.4313882,0 7.36844086,0 L7.36844086,0 Z" id="Shape"></path>
                    </g>
                </g>
            </g>
        </g>
    </g>
</svg>