<?xml version="1.0" encoding="UTF-8"?>
<svg width="21px" height="19px" viewBox="0 0 21 19" version="1.1" xmlns="http://www.w3.org/2000/svg" xmlns:xlink="http://www.w3.org/1999/xlink">
    <!-- Generator: Sketch 46.2 (44496) - http://www.bohemiancoding.com/sketch -->
    <title>XMLID_25_</title>
    <desc>Created with Sketch.</desc>
    <defs></defs>
    <g id="Symbols" stroke="none" stroke-width="1" fill="none" fill-rule="evenodd">
        <g id="Левое-меню" transform="translate(-26.000000, -182.000000)" fill="#FFFFFF">
            <g id="Group-2" transform="translate(6.000000, 0.000000)">
                <g id="crown-3" transform="translate(20.000000, 182.000000)">
                    <g id="Capa_1">
                        <path d="M21,6.22493155 C21,4.97771726 20.0083579,3.96302679 18.7894737,3.96302679 C17.5705895,3.96302679 16.5789474,4.97771726 16.5789474,6.22493155 C16.5789474,6.55861905 16.6504579,6.87528571 16.7777842,7.16068155 C16.3147895,7.44466369 15.7818316,7.59824702 15.2368816,7.59824702 C13.7447763,7.59824702 12.4942816,6.47826488 12.2724553,4.99903571 C12.8775316,4.47992857 13.2631579,3.7013244 13.2631579,2.8320744 C13.2631579,1.27305655 12.0236053,0.00469345238 10.5,0.00469345238 C8.97639474,0.00469345238 7.73684211,1.27305655 7.73684211,2.8320744 C7.73684211,3.7013244 8.12246842,4.47992857 8.72754474,4.99897917 C8.50571842,6.47826488 7.25522368,7.59819048 5.76311842,7.59819048 C5.21816842,7.59819048 4.68521053,7.44466369 4.22221579,7.160625 C4.34948684,6.87528571 4.42105263,6.55861905 4.42105263,6.22493155 C4.42105263,4.97771726 3.42941053,3.96302679 2.21052632,3.96302679 C0.991642105,3.96302679 0,4.97771726 0,6.22493155 C0,7.2913631 0.725218421,8.18713393 1.69729737,8.42463393 L3.27025263,14.0577381 C3.28854474,14.1232768 3.31435263,14.1851399 3.34574211,14.2431012 C3.32684211,14.3161607 3.31578947,14.3924435 3.31578947,14.471497 L3.31578947,18.0999315 C3.31578947,18.5936488 3.70837895,18.9953065 4.19082632,18.9953065 L16.8091737,18.9953065 C17.2916211,18.9953065 17.6842105,18.5936488 17.6842105,18.0999315 L17.6842105,14.471497 C17.6842105,14.3924435 17.6731579,14.3161607 17.6542579,14.2431012 C17.6856474,14.1850833 17.7114553,14.1232202 17.7297474,14.0576815 L19.3027026,8.42463393 C20.2747816,8.18713393 21,7.2913631 21,6.22493155 L21,6.22493155 Z M10.5,1.13564583 C11.4141632,1.13564583 12.1578947,1.89666369 12.1578947,2.8320744 C12.1578947,3.43736012 11.8462658,3.96924702 11.37885,4.26957143 C11.3516605,4.28704464 11.3241395,4.30389583 11.2961211,4.31967262 C11.2934684,4.3211994 11.2908158,4.32278274 11.2881632,4.32425298 C11.2582105,4.34087798 11.2277053,4.35620238 11.1968684,4.37084821 C11.1884684,4.3748631 11.1800132,4.37870833 11.1715579,4.38255357 C11.1427658,4.39561607 11.1137526,4.40805655 11.0843526,4.41936607 C11.0809816,4.42066667 11.0777211,4.4221369 11.07435,4.4234375 C11.0412474,4.43599107 11.0076474,4.44724405 10.9738263,4.45753571 C10.9665868,4.45974107 10.9592368,4.46177679 10.9518868,4.4639256 C10.9226526,4.47240774 10.8932526,4.48009821 10.8635763,4.48688393 C10.8577737,4.48824107 10.8519711,4.48976786 10.8461132,4.4910119 C10.8113526,4.49858929 10.7763158,4.50503571 10.7410579,4.51035119 C10.7348684,4.51125595 10.7285684,4.51193452 10.7223237,4.51278274 C10.6931447,4.51679762 10.6638,4.51996429 10.6343447,4.52245238 C10.6251158,4.5231875 10.6158868,4.52403571 10.6065474,4.52460119 C10.5711789,4.52691964 10.5357,4.52850298 10.5000553,4.52850298 C10.4644105,4.52850298 10.4289316,4.52691964 10.3935632,4.52460119 C10.3842789,4.52397917 10.37505,4.5231875 10.3657658,4.52245238 C10.3363105,4.52002083 10.3069658,4.51685417 10.2777868,4.51278274 C10.2715421,4.51193452 10.2652421,4.51125595 10.2590526,4.51035119 C10.2237947,4.50503571 10.1887579,4.49858929 10.1539974,4.4910119 C10.1481395,4.48971131 10.1423921,4.48824107 10.1365342,4.48688393 C10.1068579,4.48004167 10.0774579,4.47240774 10.0482237,4.4639256 C10.0409289,4.46183333 10.0335789,4.45974107 10.0262842,4.45753571 C9.99246316,4.4471875 9.95886316,4.43599107 9.92576053,4.4234375 C9.92238947,4.4221369 9.91912895,4.42066667 9.91575789,4.41936607 C9.88635789,4.408 9.85734474,4.39561607 9.82855263,4.38255357 C9.82009737,4.37870833 9.81164211,4.37480655 9.80324211,4.37084821 C9.77246053,4.35620238 9.74195526,4.34087798 9.71194737,4.32425298 C9.70923947,4.32278274 9.70664211,4.32114286 9.70398947,4.31967262 C9.67597105,4.30389583 9.64845,4.28704464 9.62126053,4.26957143 C9.15373421,3.96924702 8.84210526,3.43736012 8.84210526,2.8320744 C8.84210526,1.89666369 9.58583684,1.13564583 10.5,1.13564583 L10.5,1.13564583 Z M2.21052632,5.09397917 C2.81996842,5.09397917 3.31578947,5.6013244 3.31578947,6.22493155 C3.31578947,6.536 3.19238684,6.81805952 2.99310789,7.02270536 C2.99222368,7.02361012 2.99139474,7.02445833 2.99056579,7.0253631 C2.96608421,7.0503006 2.94055263,7.07410714 2.91391579,7.09666964 C2.91336316,7.09717857 2.91275526,7.09763095 2.91214737,7.09813988 C2.83218158,7.16554464 2.74271053,7.22147024 2.64633158,7.2639375 C2.64296053,7.26540774 2.63958947,7.26699107 2.63621842,7.26846131 C2.60698421,7.28101488 2.57703158,7.29215476 2.54652632,7.30210714 C2.54127632,7.30380357 2.53602632,7.3055 2.53077632,7.30713988 C2.50082368,7.31641369 2.47037368,7.32455655 2.43937105,7.33122917 C2.43406579,7.33236012 2.42865,7.33337798 2.42334474,7.33445238 C2.39156842,7.34084226 2.35946053,7.34604464 2.3268,7.3495506 C2.32320789,7.34994643 2.31956053,7.35011607 2.31596842,7.35045536 C2.28126316,7.35384821 2.24611579,7.35594048 2.21058158,7.35594048 C1.60113947,7.35594048 1.10531842,6.84859524 1.10531842,6.2249881 C1.10531842,5.60138095 1.60108421,5.09397917 2.21052632,5.09397917 L2.21052632,5.09397917 Z M16.5789474,17.8643542 L4.42105263,17.8643542 L4.42105263,14.7070744 L16.5789474,14.7070744 L16.5789474,17.8643542 L16.5789474,17.8643542 Z M16.7147289,13.576122 L4.28527105,13.576122 L2.83826053,8.39404167 C2.84467105,8.39211905 2.85097105,8.3898006 2.85738158,8.38782143 C2.8665,8.3849375 2.87556316,8.38188393 2.88468158,8.3788869 C2.90982632,8.37063095 2.93480526,8.36203571 2.95961842,8.352875 C2.96674737,8.35021726 2.97382105,8.34755952 2.98089474,8.34484524 C3.00863684,8.33427083 3.03621316,8.32313095 3.06351316,8.3114256 C3.06721579,8.30984226 3.07097368,8.30825893 3.07467632,8.30661905 C3.23245263,8.23802679 3.38243684,8.1511131 3.52120263,8.0463869 C4.18469211,8.4893244 4.96473158,8.72908631 5.76311842,8.72908631 C7.67500263,8.72908631 9.29714211,7.38528869 9.74527105,5.55201488 C9.75781579,5.55569048 9.77058158,5.5588006 9.78318158,5.56230655 C9.79755,5.56626488 9.81191842,5.57027976 9.82639737,5.5740119 C9.85894737,5.58238095 9.89171842,5.59018452 9.9246,5.59725298 C9.9477,5.60228571 9.97102105,5.60663988 9.99428684,5.6110506 C10.0088763,5.61376488 10.0234105,5.61653571 10.038,5.61908036 C10.0641395,5.62360417 10.0903342,5.62778869 10.1166947,5.63157738 C10.1192368,5.63191667 10.1217237,5.6321994 10.1242658,5.63253869 C10.2472263,5.64972917 10.3725079,5.65939881 10.5,5.65939881 C10.6274921,5.65939881 10.7527737,5.64972917 10.8757342,5.63253869 C10.8782763,5.6321994 10.8807632,5.63191667 10.8833053,5.63157738 C10.9096658,5.62778869 10.9358605,5.62360417 10.962,5.61908036 C10.9766447,5.61659226 10.9911789,5.61382143 11.0057132,5.6110506 C11.0290342,5.60663988 11.0523553,5.60228571 11.0754,5.59725298 C11.1082816,5.59012798 11.1410526,5.5823244 11.1736026,5.5740119 C11.1880816,5.57027976 11.2023947,5.56626488 11.2168184,5.56230655 C11.2294184,5.55885714 11.2421289,5.55569048 11.2547289,5.55201488 C11.7028026,7.38528869 13.3249974,8.72908631 15.2368816,8.72908631 C16.0352684,8.72908631 16.8153632,8.4893244 17.4787974,8.0463869 C17.6175632,8.1511131 17.7675474,8.23802679 17.9253237,8.30661905 C17.9290263,8.30825893 17.9327842,8.30978571 17.9364868,8.3114256 C17.9637868,8.32313095 17.9913079,8.33427083 18.0191053,8.34484524 C18.0261789,8.34755952 18.0332526,8.35021726 18.0403816,8.352875 C18.0651947,8.36203571 18.0901737,8.37063095 18.1153184,8.3788869 C18.1244368,8.38188393 18.1334447,8.3849375 18.1426184,8.38782143 C18.1490289,8.3898006 18.1552737,8.39211905 18.1617395,8.39404167 L16.7147289,13.576122 L16.7147289,13.576122 Z M18.7894737,7.35588393 C18.7538842,7.35588393 18.7187921,7.35379167 18.6840868,7.35039881 C18.6804947,7.35005952 18.6768474,7.34988988 18.6732553,7.34949405 C18.6405947,7.3459881 18.6084316,7.34072917 18.5767105,7.33439583 C18.57135,7.33332143 18.5659895,7.33236012 18.5606842,7.33117262 C18.5296816,7.3245 18.4992316,7.31635714 18.4692789,7.30708333 C18.4640289,7.30544345 18.4587237,7.30380357 18.4535289,7.3020506 C18.4230789,7.29209821 18.3931263,7.28095833 18.3638368,7.26840476 C18.3604105,7.26693452 18.3570947,7.26540774 18.3537237,7.26388095 C18.2573447,7.22135714 18.1678737,7.1654881 18.0879079,7.09808333 C18.0873553,7.0975744 18.0867474,7.09712202 18.0861947,7.0966131 C18.0595579,7.0740506 18.0339711,7.05024405 18.0095447,7.02530655 C18.0087158,7.02440179 18.0078316,7.02355357 18.0070026,7.02264881 C17.8077237,6.81800298 17.6843211,6.53594345 17.6843211,6.224875 C17.6843211,5.60126786 18.1801421,5.09392262 18.7895842,5.09392262 C19.3990263,5.09392262 19.8948474,5.60126786 19.8948474,6.224875 C19.8948474,6.84848214 19.3989158,7.35588393 18.7894737,7.35588393 L18.7894737,7.35588393 Z" id="XMLID_25_"></path>
                    </g>
                </g>
            </g>
        </g>
    </g>
</svg>