<?xml version="1.0" encoding="UTF-8"?>
<svg width="18px" height="20px" viewBox="0 0 18 20" version="1.1" xmlns="http://www.w3.org/2000/svg" xmlns:xlink="http://www.w3.org/1999/xlink">
    <!-- Generator: Sketch 46.2 (44496) - http://www.bohemiancoding.com/sketch -->
    <title>diamond-4</title>
    <desc>Created with Sketch.</desc>
    <defs></defs>
    <g id="Symbols" stroke="none" stroke-width="1" fill="none" fill-rule="evenodd">
        <g id="Левое-меню" transform="translate(-28.000000, -549.000000)" fill="#FFFFFF">
            <g id="Group-2" transform="translate(6.000000, 0.000000)">
                <g id="diamond-4" transform="translate(22.000000, 549.000000)">
                    <g id="Layer_1">
                        <path d="M15.2340205,6 L2.76601924,6 L0,10.5973679 L9.00001986,20 L18,10.5973679 L15.2340205,6 L15.2340205,6 Z M16.2740335,10.0397162 L13.2253386,10.0397162 L14.9674727,7.86805581 L16.2740335,10.0397162 L16.2740335,10.0397162 Z M13.9851785,7.18910491 L12.0074813,9.65442677 L10.2095748,7.18910491 L13.9851785,7.18910491 L13.9851785,7.18910491 Z M10.8141338,10.0397162 L7.18594566,10.0397162 L9.00005959,7.55221034 L10.8141338,10.0397162 L10.8141338,10.0397162 Z M7.79054437,7.18910491 L5.99263783,9.65442677 L4.01494062,7.18910491 L7.79054437,7.18910491 L7.79054437,7.18910491 Z M3.03260675,7.86805581 L4.77474086,10.0397162 L1.72600617,10.0397162 L3.03260675,7.86805581 L3.03260675,7.86805581 Z M2.25274592,11.2288212 L5.59754329,11.2288212 L7.65588014,16.8736726 L2.25274592,11.2288212 L2.25274592,11.2288212 Z M6.86632666,11.2288212 L11.1337131,11.2288212 L9.00001986,17.0803012 L6.86632666,11.2288212 L6.86632666,11.2288212 Z M10.3441199,16.873633 L12.4024567,11.2287815 L15.7472938,11.2287815 L10.3441199,16.873633 L10.3441199,16.873633 Z" id="Shape"></path>
                        <rect id="Rectangle-path" x="8" y="0" width="1" height="2"></rect>
                        <rect id="Rectangle-path" transform="translate(1.500000, 4.000000) rotate(-40.002181) translate(-1.500000, -4.000000) " x="1" y="3" width="1" height="2"></rect>
                        <rect id="Rectangle-path" transform="translate(16.500000, 3.500000) rotate(-49.997819) translate(-16.500000, -3.500000) " x="15" y="3" width="3" height="1"></rect>
                    </g>
                </g>
            </g>
        </g>
    </g>
</svg>