<?xml version="1.0" encoding="UTF-8"?>
<svg width="16px" height="18px" viewBox="0 0 16 18" version="1.1" xmlns="http://www.w3.org/2000/svg" xmlns:xlink="http://www.w3.org/1999/xlink">
    <!-- Generator: Sketch 46.2 (44496) - http://www.bohemiancoding.com/sketch -->
    <title>Group 3</title>
    <desc>Created with Sketch.</desc>
    <defs></defs>
    <g id="Symbols" stroke="none" stroke-width="1" fill="none" fill-rule="evenodd">
        <g id="Левое-меню" transform="translate(-31.000000, -750.000000)" fill-rule="nonzero" fill="#FFFFFF">
            <g id="Group-2" transform="translate(6.000000, 0.000000)">
                <g id="Group-3" transform="translate(25.000000, 750.000000)">
                    <g id="documents-button">
                        <path d="M14.8579531,2.24719097 L13.7162066,2.24719097 L13.7162066,1.123577 C13.716169,0.503371663 13.2046573,0 12.5744225,0 L1.15676995,0 C0.526497653,0 0.0149859155,0.503371663 0.0149859155,1.123577 L0.0149859155,14.6067228 C0.0149859155,15.2269651 0.526497653,15.7302998 1.15673239,15.7302998 L2.29847887,15.7302998 L2.29847887,16.8538768 C2.29847887,17.4741191 2.80999061,17.9774538 3.44022535,17.9774538 L14.8578779,17.9774538 C15.4881502,17.9774538 15.9996244,17.4740821 15.9996244,16.8538768 L15.9996244,3.37076797 C15.9996995,2.75056263 15.4881878,2.24719097 14.8579531,2.24719097 Z M1.15676995,14.6067228 L1.15676995,1.123577 L12.5744225,1.123577 L12.5744225,14.6067228 L1.15676995,14.6067228 Z M14.8579531,16.8539138 L3.44030047,16.8539138 L3.44030047,15.7303368 L12.5744225,15.7303368 C13.2046948,15.7303368 13.716169,15.2269651 13.716169,14.6067598 L13.716169,3.37076797 L14.8579155,3.37076797 L14.8579155,16.8539138 L14.8579531,16.8539138 Z" id="Shape"></path>
                        <path d="M10.8617465,3.37076797 L5.15293897,3.37076797 C4.8378216,3.37076797 4.58204695,3.62243532 4.58204695,3.93257495 C4.58204695,4.24271458 4.83778404,4.49438193 5.15293897,4.49438193 L10.8617465,4.49438193 C11.1757371,4.49438193 11.4326385,4.24271458 11.4326385,3.93257495 C11.4326385,3.62243532 11.1757371,3.37076797 10.8617465,3.37076797 Z" id="Shape"></path>
                        <path d="M10.8617465,6.7415729 L2.86940845,6.7415729 C2.55429108,6.7415729 2.29851643,6.99324025 2.29851643,7.30337988 C2.29851643,7.61351951 2.55425352,7.86518686 2.86940845,7.86518686 L10.8617465,7.86518686 C11.1757371,7.86518686 11.4326385,7.61351951 11.4326385,7.30337988 C11.4326385,6.99324025 11.1757371,6.7415729 10.8617465,6.7415729 Z" id="Shape"></path>
                        <path d="M10.8617465,8.98876386 L2.86940845,8.98876386 C2.55429108,8.98876386 2.29851643,9.24043121 2.29851643,9.55057084 C2.29851643,9.85956468 2.55425352,10.1123778 2.86940845,10.1123778 L10.8617465,10.1123778 C11.1757371,10.1123778 11.4326385,9.85956468 11.4326385,9.55057084 C11.4326385,9.24043121 11.1757371,8.98876386 10.8617465,8.98876386 Z" id="Shape"></path>
                        <path d="M10.8617465,11.2359548 L2.86940845,11.2359548 C2.55429108,11.2359548 2.29851643,11.488768 2.29851643,11.7977618 C2.29851643,12.1067556 2.55425352,12.3595688 2.86940845,12.3595688 L10.8617465,12.3595688 C11.1757371,12.3595688 11.4326385,12.1067556 11.4326385,11.7977618 C11.4326385,11.488768 11.1757371,11.2359548 10.8617465,11.2359548 Z" id="Shape"></path>
                    </g>
                </g>
            </g>
        </g>
    </g>
</svg>