<?xml version="1.0" encoding="UTF-8"?>
<svg width="15px" height="21px" viewBox="0 0 15 21" version="1.1" xmlns="http://www.w3.org/2000/svg" xmlns:xlink="http://www.w3.org/1999/xlink">
    <!-- Generator: Sketch 46.2 (44496) - http://www.bohemiancoding.com/sketch -->
    <title>bolt</title>
    <desc>Created with Sketch.</desc>
    <defs></defs>
    <g id="Symbols" stroke="none" stroke-width="1" fill="none" fill-rule="evenodd">
        <g id="Левое-меню" transform="translate(-29.000000, -510.000000)" stroke-width="0.6" stroke="#FFFFFF" fill="#FFFFFF">
            <g id="Group-2" transform="translate(6.000000, 0.000000)">
                <g id="bolt" transform="translate(24.000000, 511.000000)">
                    <g id="Capa_1">
                        <path d="M0.168875,18.8530667 L3.926125,11.0833333 L1.210125,11.0833333 L4.710125,6.01666667 L2.02825,6.01666667 L6.91775,0 L13.628125,0 L11.003125,3.16666667 L12.7071875,3.16666667 L8.7696875,8.55 L11.1190625,8.55 L0.168875,18.8530667 L0.168875,18.8530667 Z M2.625875,10.45 L5.159875,10.45 L2.7916875,15.3469333 L9.3419375,9.18333333 L7.3163125,9.18333333 L11.2538125,3.8 L9.457875,3.8 L12.082875,0.633333333 L7.4178125,0.633333333 L3.55775,5.38333333 L6.125875,5.38333333 L2.625875,10.45 L2.625875,10.45 Z" id="Shape"></path>
                    </g>
                </g>
            </g>
        </g>
    </g>
</svg>