<?xml version="1.0" encoding="UTF-8"?>
<svg width="16px" height="20px" viewBox="0 0 16 20" version="1.1" xmlns="http://www.w3.org/2000/svg" xmlns:xlink="http://www.w3.org/1999/xlink">
    <!-- Generator: Sketch 46.2 (44496) - http://www.bohemiancoding.com/sketch -->
    <title>placeholder-27</title>
    <desc>Created with Sketch.</desc>
    <defs></defs>
    <g id="Symbols" stroke="none" stroke-width="1" fill="none" fill-rule="evenodd">
        <g id="Левое-меню" transform="translate(-29.000000, -425.000000)" fill="#FFFFFF">
            <g id="Group-2" transform="translate(6.000000, 0.000000)">
                <g id="placeholder-27" transform="translate(23.000000, 425.000000)">
                    <g id="Capa_1">
                        <g id="Group">
                            <path d="M7.99582245,0 C3.5926893,0 0.00835509138,3.59748428 0.00835509138,8.01677149 C0.00835509138,8.51991614 0.054308094,9.02725367 0.150391645,9.52201258 C0.154569191,9.55136268 0.171279373,9.639413 0.204699739,9.79035639 C0.325848564,10.3312369 0.505483029,10.8637317 0.739425587,11.3710692 C1.6,13.4046122 3.4924282,16.5283019 7.64490862,19.8742138 C7.74934726,19.9580713 7.87467363,20 8,20 C8.12532637,20 8.25065274,19.9580713 8.35509138,19.8742138 C12.5033943,16.5283019 14.4,13.4046122 15.2605744,11.3710692 C15.494517,10.8637317 15.6741514,10.3354298 15.7953003,9.79035639 C15.8287206,9.639413 15.8454308,9.55136268 15.8496084,9.52201258 C15.9415144,9.02725367 15.9916449,8.51991614 15.9916449,8.01677149 C15.9832898,3.59748428 12.3989556,0 7.99582245,0 L7.99582245,0 Z M14.7300261,9.32494759 C14.7300261,9.33333333 14.7258486,9.34171908 14.7258486,9.35010482 C14.721671,9.37106918 14.7091384,9.43396226 14.6882507,9.53039832 L14.6882507,9.53878407 C14.583812,10.0083857 14.4292428,10.4654088 14.2245431,10.9056604 C14.2203655,10.9098532 14.2203655,10.918239 14.216188,10.9224319 C13.4349869,12.7798742 11.7221932,15.6142558 7.99582245,18.7044025 C4.2694517,15.6142558 2.55665796,12.7798742 1.77545692,10.9224319 C1.77127937,10.918239 1.77127937,10.9098532 1.76710183,10.9056604 C1.56657963,10.4696017 1.41201044,10.0083857 1.30339426,9.53878407 L1.30339426,9.53039832 C1.27832898,9.43396226 1.26997389,9.37106918 1.26579634,9.35010482 C1.26579634,9.34171908 1.2616188,9.33333333 1.2616188,9.32075472 C1.17806789,8.88888889 1.13629243,8.45283019 1.13629243,8.01257862 C1.13629243,4.21802935 4.2151436,1.1278826 7.99582245,1.1278826 C11.7765013,1.1278826 14.8553525,4.21802935 14.8553525,8.01257862 C14.8553525,8.45702306 14.813577,8.89727463 14.7300261,9.32494759 L14.7300261,9.32494759 Z" id="Shape"></path>
                            <path d="M7.99582245,3.01467505 C5.20104439,3.01467505 2.92428198,5.29979036 2.92428198,8.1048218 C2.92428198,10.9098532 5.20104439,13.1949686 7.99582245,13.1949686 C10.7906005,13.1949686 13.0673629,10.9098532 13.0673629,8.1048218 C13.0673629,5.29979036 10.7906005,3.01467505 7.99582245,3.01467505 L7.99582245,3.01467505 Z M7.99582245,12.0628931 C5.81932115,12.0628931 4.05221932,10.2851153 4.05221932,8.1048218 C4.05221932,5.9245283 5.82349869,4.14675052 7.99582245,4.14675052 C10.1681462,4.14675052 11.9394256,5.9245283 11.9394256,8.1048218 C11.9394256,10.2851153 10.1723238,12.0628931 7.99582245,12.0628931 L7.99582245,12.0628931 Z" id="Shape"></path>
                        </g>
                    </g>
                </g>
            </g>
        </g>
    </g>
</svg>