<?xml version="1.0" encoding="UTF-8"?>
<svg width="18px" height="17px" viewBox="0 0 18 17" version="1.1" xmlns="http://www.w3.org/2000/svg" xmlns:xlink="http://www.w3.org/1999/xlink">
    <!-- Generator: Sketch 46.2 (44496) - http://www.bohemiancoding.com/sketch -->
    <title>speech-bubble-with-text-lines</title>
    <desc>Created with Sketch.</desc>
    <defs></defs>
    <g id="Symbols" stroke="none" stroke-width="1" fill="none" fill-rule="evenodd">
        <g id="Левое-меню" transform="translate(-29.000000, -314.000000)" fill="#FFFFFF">
            <g id="Group-2" transform="translate(6.000000, 0.000000)">
                <g id="Group-12" transform="translate(23.000000, 314.000000)">
                    <g id="speech-bubble-with-text-lines">
                        <g id="Capa_1">
                            <g id="Group">
                                <path d="M14.8227227,0.0113994169 L3.1512605,0.0113994169 C1.41363025,0.0113994169 0,1.4010379 0,3.10911662 L0,10.1856764 C0,11.8937551 1.41363025,13.283344 3.1512605,13.283344 L10.5853613,13.2833936 L14.1440672,16.7815277 C14.2646723,16.9001312 14.4258151,16.9630262 14.5898824,16.9630262 C14.6710588,16.9630262 14.7529412,16.9475627 14.8308908,16.915793 C15.0664034,16.8199388 15.2199832,16.5941312 15.2199832,16.3434927 L15.2199832,13.2588601 C16.7708571,13.066309 17.9739832,11.7615219 17.9739832,10.1856764 L17.9739832,3.10911662 C17.9739832,1.4010379 16.5603529,0.0113994169 14.8227227,0.0113994169 L14.8227227,0.0113994169 Z M16.713479,10.1857259 C16.713479,11.2105831 15.8653109,12.0443265 14.8227227,12.0443265 L14.5897311,12.0443265 C14.2416807,12.0443265 13.959479,12.3217784 13.959479,12.6638601 L13.959479,14.8477901 L11.2921008,12.2257755 C11.173916,12.109551 11.0136807,12.0443265 10.846437,12.0443265 L3.1512605,12.0443265 C2.10867227,12.0443265 1.2605042,11.2105831 1.2605042,10.1857259 L1.2605042,3.10916618 C1.2605042,2.08430904 2.10867227,1.2505656 3.1512605,1.2505656 L14.8227227,1.2505656 C15.8653109,1.2505656 16.713479,2.08430904 16.713479,3.10916618 L16.713479,10.1857259 L16.713479,10.1857259 Z" id="Shape"></path>
                                <path d="M13.6256471,4.39834111 L4.34833613,4.39834111 C4.00028571,4.39834111 3.71808403,4.67569388 3.71808403,5.01787464 C3.71808403,5.36000583 4.00028571,5.63740816 4.34833613,5.63740816 L13.6256471,5.63740816 C13.9736975,5.63740816 14.2558992,5.36000583 14.2558992,5.01787464 C14.2558992,4.67569388 13.9737479,4.39834111 13.6256471,4.39834111 L13.6256471,4.39834111 Z" id="Shape"></path>
                                <path d="M13.6256471,7.86772886 L4.34833613,7.86772886 C4.00028571,7.86772886 3.71808403,8.14508163 3.71808403,8.48726239 C3.71808403,8.82944315 4.00028571,9.10679592 4.34833613,9.10679592 L13.6256471,9.10679592 C13.9736975,9.10679592 14.2558992,8.82939359 14.2558992,8.48726239 C14.2558992,8.1451312 13.9737479,7.86772886 13.6256471,7.86772886 L13.6256471,7.86772886 Z" id="Shape"></path>
                            </g>
                        </g>
                    </g>
                </g>
            </g>
        </g>
    </g>
</svg>