<?xml version="1.0" encoding="UTF-8"?>
<svg width="16px" height="16px" viewBox="0 0 16 16" version="1.1" xmlns="http://www.w3.org/2000/svg" xmlns:xlink="http://www.w3.org/1999/xlink">
    <!-- Generator: Sketch 46.2 (44496) - http://www.bohemiancoding.com/sketch -->
    <title>add-9</title>
    <desc>Created with Sketch.</desc>
    <defs></defs>
    <g id="Symbols" stroke="none" stroke-width="1" fill="none" fill-rule="evenodd">
        <g id="Левое-меню" transform="translate(-31.000000, -675.000000)" fill-rule="nonzero" fill="#FFFFFF">
            <g id="Group-2" transform="translate(6.000000, 0.000000)">
                <g id="Group-13-Copy" transform="translate(25.000000, 675.000000)">
                    <g id="add-9">
                        <path d="M11.4422041,6.94220405 L8.05723843,6.94220405 L8.05723843,3.55751719 C8.05723843,3.2497677 7.80774949,3 7.49972124,3 C7.19169299,3 6.94220405,3.2497677 6.94220405,3.55751719 L6.94220405,6.94248281 L3.55751719,6.94248281 C3.24948894,6.94248281 3,7.19225051 3,7.5 C3,7.80774949 3.24948894,8.05751719 3.55751719,8.05751719 L6.94248281,8.05751719 L6.94248281,11.4424828 C6.94248281,11.7502323 7.19197175,12 7.5,12 C7.80802825,12 8.05751719,11.7502323 8.05751719,11.4424828 L8.05751719,8.05723843 L11.4424828,8.05723843 C11.7505111,8.05723843 12,7.80747073 12,7.49972124 C12,7.19197175 11.7502323,6.94220405 11.4422041,6.94220405 L11.4422041,6.94220405 Z" id="Shape"></path>
                        <path d="M8,0 C3.58875,0 0,3.58875 0,8 C0,12.41125 3.58875,16 8,16 C12.41125,16 16,12.41125 16,8 C16,3.58875 12.41125,0 8,0 Z M8,15 C4.14025,15 1,11.85975 1,8 C1,4.14025 4.14025,1 8,1 C11.85975,1 15,4.14025 15,8 C15,11.85975 11.85975,15 8,15 Z" id="Shape"></path>
                    </g>
                </g>
            </g>
        </g>
    </g>
</svg>