<?xml version="1.0" encoding="UTF-8"?>
<svg width="22px" height="22px" viewBox="0 0 22 22" version="1.1" xmlns="http://www.w3.org/2000/svg" xmlns:xlink="http://www.w3.org/1999/xlink">
    <!-- Generator: Sketch 46.2 (44496) - http://www.bohemiancoding.com/sketch -->
    <title>favorites-2</title>
    <desc>Created with Sketch.</desc>
    <defs></defs>
    <g id="Symbols" stroke="none" stroke-width="1" fill="none" fill-rule="evenodd">
        <g id="Левое-меню" transform="translate(-26.000000, -465.000000)" fill="#FFFFFF">
            <g id="Group-2" transform="translate(6.000000, 0.000000)">
                <g id="favorites-2" transform="translate(20.000000, 465.000000)">
                    <g id="Layer_1">
                        <path d="M20.2901875,8.63965217 C20.6885508,8.24673913 20.8291875,7.67008696 20.6573125,7.13473913 C20.4853945,6.5993913 20.0366289,6.21656522 19.4861133,6.13565217 L14.6723242,5.42786957 C14.5778359,5.414 14.4961523,5.35395652 14.4538711,5.26726087 L12.3010937,0.853565217 C12.0549258,0.348782609 11.5564023,0.0352173913 11.0000859,0.0352173913 C10.4437695,0.0352173913 9.94524609,0.348782609 9.69907812,0.853565217 L7.54630078,5.26730435 C7.50397656,5.35395652 7.42233594,5.414 7.32780469,5.42791304 L2.51410156,6.13565217 C1.96358594,6.21656522 1.51486328,6.5993913 1.34290234,7.13473913 C1.17094141,7.67008696 1.31162109,8.24673913 1.71002734,8.63965217 L5.19328906,12.0752609 C5.26165234,12.1427391 5.29289062,12.239913 5.27673437,12.3351739 L4.45444141,17.1863043 C4.36042578,17.7411304 4.58154297,18.2912609 5.03159766,18.6221304 C5.48165234,18.953087 6.06723047,18.9958261 6.55956641,18.7339565 L10.8650781,16.4435652 C10.9496406,16.3985652 11.0505742,16.3985652 11.1351797,16.4435652 L15.4407344,18.7339565 C15.6548906,18.8478696 15.8866211,18.9041739 16.1172344,18.9041304 C16.4167266,18.9041304 16.7143281,18.8091739 16.9685742,18.622087 C17.4186289,18.2911739 17.6397891,17.741 17.5457305,17.1862609 L16.7234375,12.3351304 C16.7073242,12.2398696 16.7385195,12.1426957 16.8068828,12.0752174 L20.2901875,8.63965217 L20.2901875,8.63965217 Z M15.5795664,12.5337391 L16.4018594,17.3849565 C16.4293594,17.5473043 16.3303164,17.6398696 16.2864453,17.672087 C16.2425312,17.7042609 16.1248828,17.771087 15.9808516,17.6943913 L11.6752969,15.404 C11.4639336,15.2916087 11.2320742,15.2353478 11.0001719,15.2353478 C10.7682695,15.2353478 10.5363672,15.2916087 10.3250469,15.4039565 L6.01953516,17.6943043 C5.87541797,17.7709565 5.7578125,17.7042174 5.71394141,17.672 C5.67007031,17.6397826 5.57098437,17.5472174 5.59852734,17.3848696 L6.42082031,12.5337391 C6.50155859,12.0574348 6.345625,11.5716957 6.00355078,11.2343478 L2.52028906,7.79873913 C2.40371484,7.68369565 2.43009766,7.54991304 2.44689844,7.49773913 C2.46361328,7.44552174 2.52003125,7.32156522 2.68112109,7.29791304 L7.49478125,6.59013043 C7.96739453,6.52065217 8.3758125,6.22047826 8.58721875,5.78704348 L10.7399961,1.37330435 C10.8120547,1.2256087 10.9459453,1.20965217 11.0002148,1.20965217 C11.0543984,1.20965217 11.1882891,1.22556522 11.2603906,1.37330435 L11.2603906,1.37334783 L13.413168,5.78708696 C13.6245312,6.22052174 14.0329062,6.52069565 14.5055195,6.59017391 L19.3192656,7.29795652 C19.4803555,7.3216087 19.5367305,7.44556522 19.5534883,7.49778261 C19.5702461,7.55 19.5966719,7.68382609 19.4800547,7.79878261 L15.996793,11.2343913 C15.6547617,11.5716957 15.4988281,12.0574348 15.5795664,12.5337391 L15.5795664,12.5337391 Z" id="Shape"></path>
                        <path d="M17.7797383,0.85326087 C17.5203789,0.662652174 17.1575078,0.720826087 16.9691328,0.983173913 L16.3530898,1.84108696 C16.1647148,2.10343478 16.2221641,2.47069565 16.4814805,2.66130435 C16.5845625,2.737 16.7038867,2.77347826 16.8221367,2.77347826 C17.0016172,2.77347826 17.1785625,2.68952174 17.2920859,2.53143478 L17.9081289,1.67352174 C18.0965039,1.41113043 18.0390547,1.04386957 17.7797383,0.85326087 L17.7797383,0.85326087 Z" id="Shape"></path>
                        <path d="M5.644375,1.8376087 L5.02833203,0.979695652 C4.84,0.717434783 4.47708594,0.65926087 4.21772656,0.849782609 C3.95845312,1.0403913 3.90096094,1.40765217 4.08933594,1.67 L4.70537891,2.52791304 C4.81894531,2.68613043 4.99589062,2.77004348 5.17541406,2.77004348 C5.29370703,2.77004348 5.41307422,2.73356522 5.51602734,2.65782609 C5.77530078,2.46726087 5.83279297,2.1 5.644375,1.8376087 L5.644375,1.8376087 Z" id="Shape"></path>
                        <path d="M2.1291875,13.2099565 C2.03014453,12.9015652 1.70276563,12.7327391 1.39790234,12.8329565 L0.40115625,13.1606957 C0.0962929688,13.260913 -0.07046875,13.5922609 0.0285742188,13.9006522 C0.108238281,14.1488696 0.335757813,14.3066087 0.580378906,14.3066087 C0.639804688,14.3066087 0.700261719,14.2972609 0.759859375,14.2776522 L1.75660547,13.949913 C2.06142578,13.8496957 2.22823047,13.5184348 2.1291875,13.2099565 L2.1291875,13.2099565 Z" id="Shape"></path>
                        <path d="M11.0002148,19.7298261 C10.6797109,19.7298261 10.4198789,19.9927391 10.4198789,20.3170435 L10.4198789,21.3775652 C10.4198789,21.7018696 10.6797109,21.9647826 11.0002148,21.9647826 C11.3207188,21.9647826 11.5805508,21.7018696 11.5805508,21.3775652 L11.5805508,20.3170435 C11.5805508,19.9926957 11.3207617,19.7298261 11.0002148,19.7298261 L11.0002148,19.7298261 Z" id="Shape"></path>
                        <path d="M21.5988438,13.1615217 L20.6020977,12.8337826 C20.2973633,12.7336522 19.9698555,12.9023478 19.8708125,13.2108261 C19.7717695,13.5193043 19.9385313,13.8505652 20.2433945,13.9507826 L21.2401406,14.2785217 C21.2997383,14.298087 21.3601523,14.3073913 21.4195781,14.3073913 C21.6642422,14.3073913 21.8917617,14.1496087 21.9714258,13.9014348 C22.0704688,13.593 21.9036641,13.2617391 21.5988438,13.1615217 L21.5988438,13.1615217 Z" id="Shape"></path>
                    </g>
                </g>
            </g>
        </g>
    </g>
</svg>