<?xml version="1.0" encoding="UTF-8"?>
<svg width="38px" height="18px" viewBox="0 0 38 18" version="1.1" xmlns="http://www.w3.org/2000/svg" xmlns:xlink="http://www.w3.org/1999/xlink">
    <!-- Generator: Sketch 46.2 (44496) - http://www.bohemiancoding.com/sketch -->
    <title>Group 3</title>
    <desc>Created with Sketch.</desc>
    <defs></defs>
    <g id="Symbols" stroke="none" stroke-width="1" fill="none" fill-rule="evenodd">
        <g id="Меню-сверху" transform="translate(-114.000000, -25.000000)" fill="#FFFFFF">
            <g id="Group-14">
                <g id="Group-3" transform="translate(114.000000, 25.000000)">
                    <g id="Group-2">
                        <path d="M20.4732384,12.8288979 C21.7394562,11.9106722 22.4991825,10.399182 22.4991825,8.55692657 C22.4991825,8.02042635 22.436888,7.52317524 22.3215566,7.06613876 L19.8911702,9.43517994 L20.4732384,12.8288979 Z M20.3968005,12.8831794 L17.3500532,11.2814095 L14.268338,12.9015631 C15.1375068,13.4930513 16.1985029,13.7966605 17.3028718,13.7966605 C18.5012338,13.7966605 19.5561073,13.4677408 20.3968005,12.8831794 Z M14.2201085,12.8683084 L14.8089361,9.43517994 L12.3369176,7.02555739 C12.2155674,7.49336183 12.1499843,8.00410452 12.1499843,8.55692657 C12.1499843,10.5532509 12.9854415,12.0057864 14.2201085,12.8683084 Z M12.3584726,6.94503026 L15.7795565,6.44791769 L17.317484,3.33173613 C15.0968156,3.34238929 13.0099275,4.58478555 12.3584726,6.94503026 Z M17.3826448,3.33178155 L18.9205499,6.44791769 L22.2873044,6.93713576 C21.6336441,4.59297101 19.560786,3.34550826 17.3826448,3.33178155 Z M4,0 L33.4631611,0 C35.6723001,-4.05812251e-16 37.4631611,1.790861 37.4631611,4 L37.4631611,13.0287096 C37.4631611,15.2378486 35.6723001,17.0287096 33.4631611,17.0287096 L4,17.0287096 C1.790861,17.0287096 2.705415e-16,15.2378486 0,13.0287096 L0,4 L0,4 C-2.705415e-16,1.790861 1.790861,4.05812251e-16 4,0 L4,0 Z M6.64375097,5.37255788 L6.64375097,13.6229677 L8.74253942,13.6229677 L8.74253942,5.37255788 L11.4347784,5.37255788 L11.4347784,3.49088547 L3.93703758,3.49088547 L3.93703758,5.37255788 L6.64375097,5.37255788 Z M24.3433918,3.49088547 L24.3433918,13.6229677 L26.5145523,13.6229677 L26.5145523,5.4594043 L30.3792179,5.4594043 L30.3792179,13.6229677 L32.5503784,13.6229677 L32.5503784,3.49088547 L24.3433918,3.49088547 Z" id="Combined-Shape"></path>
                    </g>
                </g>
            </g>
        </g>
    </g>
</svg>