<?xml version="1.0" encoding="UTF-8"?>
<svg width="28px" height="32px" viewBox="0 0 28 32" version="1.1" xmlns="http://www.w3.org/2000/svg" xmlns:xlink="http://www.w3.org/1999/xlink">
    <!-- Generator: Sketch 46.2 (44496) - http://www.bohemiancoding.com/sketch -->
    <title>Group 24</title>
    <desc>Created with Sketch.</desc>
    <defs></defs>
    <g id="Page-1" stroke="none" stroke-width="1" fill="none" fill-rule="evenodd">
        <g id="Горизонтальный-лэндинг" transform="translate(-3098.000000, -865.000000)" fill="#756300">
            <g id="Luxury" transform="translate(3066.000000, 850.000000)">
                <g id="Group-24" transform="translate(31.000000, 15.000000)">
                    <g id="diamond-4" transform="translate(0.950820, 0.803279)">
                        <g id="Layer_1">
                            <path d="M23.2905727,9.57858499 L4.25053225,9.57858499 L0.0265097133,16.5878257 L13.7705525,30.9232701 L27.5145346,16.5878257 L23.2905727,9.57858499 L23.2905727,9.57858499 Z M24.8787896,15.7376186 L20.2230895,15.7376186 L22.8835242,12.4266609 L24.8787896,15.7376186 L24.8787896,15.7376186 Z M21.3834506,11.3915186 L18.3632845,15.1501984 L15.6176789,11.3915186 L21.3834506,11.3915186 L21.3834506,11.3915186 Z M16.5409085,15.7376186 L11.0002571,15.7376186 L13.7706131,11.9451165 L16.5409085,15.7376186 L16.5409085,15.7376186 Z M11.9235473,11.3915186 L9.17794179,15.1501984 L6.15777569,11.3915186 L11.9235473,11.3915186 L11.9235473,11.3915186 Z M4.65764137,12.4266609 L7.31807612,15.7376186 L2.6623153,15.7376186 L4.65764137,12.4266609 L4.65764137,12.4266609 Z M3.46670615,17.5505522 L8.574588,17.5505522 L11.7178999,26.1568076 L3.46670615,17.5505522 L3.46670615,17.5505522 Z M10.5121629,17.5505522 L17.028942,17.5505522 L13.7705525,26.4718378 L10.5121629,17.5505522 L10.5121629,17.5505522 Z M15.8231444,26.1567472 L18.9664563,17.5504918 L24.0743988,17.5504918 L15.8231444,26.1567472 L15.8231444,26.1567472 Z" id="Shape"></path>
                            <rect id="Rectangle-path" x="12.8600014" y="0" width="1.82085939" height="3.85809318"></rect>
                            <rect id="Rectangle-path" transform="translate(3.060055, 5.810127) rotate(-40.002181) translate(-3.060055, -5.810127) " x="2.14967987" y="3.88113096" width="1.82075124" height="3.85799256"></rect>
                            <rect id="Rectangle-path" transform="translate(24.479455, 5.811012) rotate(-49.997819) translate(-24.479455, -5.811012) " x="22.5419607" y="4.90462885" width="3.87498813" height="1.81276549"></rect>
                        </g>
                    </g>
                </g>
            </g>
        </g>
    </g>
</svg>