<?xml version="1.0" encoding="UTF-8"?>
<svg width="29px" height="35px" viewBox="0 0 29 35" version="1.1" xmlns="http://www.w3.org/2000/svg" xmlns:xlink="http://www.w3.org/1999/xlink">
    <!-- Generator: Sketch 46.2 (44496) - http://www.bohemiancoding.com/sketch -->
    <title>Group 13</title>
    <desc>Created with Sketch.</desc>
    <defs></defs>
    <g id="Page-1" stroke="none" stroke-width="1" fill="none" fill-rule="evenodd">
        <g id="Горизонтальный-лэндинг" transform="translate(-2535.000000, -867.000000)" fill="#756300">
            <g id="Tourist" transform="translate(2513.000000, 850.000000)">
                <g id="Group-13" transform="translate(22.000000, 17.000000)">
                    <g id="Group">
                        <g id="globe">
                            <g id="Capa_1">
                                <path d="M26.0658905,20.2478418 C27.9642857,18.0314258 28.9994476,15.2468066 28.9994476,12.3012695 C28.9994476,9.0106543 27.7083262,5.92019531 25.3639524,3.59925781 C23.0197167,1.27825195 19.8981429,0 16.5743976,0 C13.5992048,0 10.78655,1.02491211 8.54781905,2.90431641 L6.31979048,0.698496094 C5.91530952,0.297978516 5.25942619,0.297978516 4.85487619,0.698496094 C1.72453333,3.79770508 0.000483333332,7.91833984 0.000483333332,12.3012695 C0.000483333332,16.6841992 1.72453333,20.804834 4.85494524,23.904043 C7.54842381,26.5706055 11.0058452,28.2051465 14.7385595,28.609834 L11.5642333,33.4129004 C11.3559857,33.7281055 11.338931,34.1309473 11.5198357,34.4622168 C11.7007405,34.7935547 12.0506048,34.9999316 12.4309881,34.9999316 L20.7179452,34.9999316 C21.0983976,34.9999316 21.4481929,34.7934863 21.6290976,34.4622168 C21.8100714,34.1308789 21.7930167,33.7280371 21.5847,33.4129004 L18.4103738,28.609834 C22.143019,28.2051465 25.6005095,26.5706055 28.2939881,23.9039746 C28.6985381,23.503457 28.6985381,22.8541797 28.2939881,22.4536621 L26.0658905,20.2478418 L26.0658905,20.2478418 Z M26.927881,12.3013379 C26.9278119,13.2783301 26.7906143,14.2339258 26.5265762,15.1470703 C26.4810738,14.9588086 26.4304619,14.7684277 26.3732214,14.575791 C26.0734857,13.5670117 25.622881,12.5383398 25.0417762,11.522041 L26.6511381,9.92878906 C26.8333548,10.6970117 26.927881,11.4917578 26.927881,12.3013379 L26.927881,12.3013379 Z M21.1284333,3.08970703 C22.1297619,3.57389648 23.068119,4.22686523 23.8991071,5.04957031 C24.719531,5.86174805 25.3843214,6.7874707 25.8803595,7.79098633 L23.8925476,9.75898438 C23.2501976,8.88289063 22.515531,8.03079102 21.7016667,7.22503906 C20.8754429,6.40705078 20.0159381,5.68203125 19.1440048,5.05421875 L21.1284333,3.08970703 L21.1284333,3.08970703 Z M12.9120429,15.9271191 C12.0908595,15.1141211 11.3610952,14.2538867 10.740219,13.3743066 L13.4667714,10.6749316 L18.2170405,15.3778516 L15.4904881,18.0772266 C14.6021214,17.4626074 13.7331571,16.7401172 12.9120429,15.9271191 L12.9120429,15.9271191 Z M14.0065857,19.5464746 L12.020431,21.512832 C11.0190333,21.0286426 10.0806762,20.3756738 9.2496881,19.5529687 C8.4187,18.7302637 7.7590881,17.8012598 7.27009286,16.8099121 L9.25445238,14.845332 C9.88858571,15.7085742 10.6209738,16.5595117 11.4471976,17.3775 C12.2610619,18.1831836 13.1216024,18.910459 14.0065857,19.5464746 L14.0065857,19.5464746 Z M14.9316857,9.22461914 L17.6582381,6.52524414 C18.5466738,7.13986328 19.4156381,7.86242187 20.2367524,8.67541992 C21.0579357,9.48841797 21.7877,10.3486523 22.4085762,11.2282324 L19.6820238,13.9276074 L14.9316857,9.22461914 L14.9316857,9.22461914 Z M15.7873238,20.684043 C16.8138548,21.2593555 17.8528833,21.7054688 18.871819,22.0022168 C19.0653595,22.0585449 19.2562071,22.107627 19.4453286,22.1524707 C17.7301167,22.6393262 15.912231,22.6803418 14.1797571,22.2756543 L15.7873238,20.684043 L15.7873238,20.684043 Z M17.3145881,19.172002 L19.6820238,16.8282324 L23.0036976,20.1167969 C22.0944095,20.4648145 20.8598381,20.4432129 19.4563071,20.0344922 C18.7517452,19.8293457 18.0330286,19.5385449 17.3145881,19.172002 L17.3145881,19.172002 Z M21.1470071,15.3779199 L23.5144429,13.034082 C23.8846071,13.7454297 24.1782667,14.4569141 24.3855476,15.1545215 C24.7983833,16.5440625 24.8202024,17.7662598 24.468681,18.6665527 L21.1470071,15.3779199 L21.1470071,15.3779199 Z M16.5744667,2.05057617 C17.3785952,2.05057617 18.1826548,2.14306641 18.9691071,2.32681641 L17.3643024,3.915625 C16.1222048,3.21904297 14.8834905,2.7252832 13.7066429,2.44911133 C14.6422381,2.18387695 15.6082833,2.05057617 16.5744667,2.05057617 L16.5744667,2.05057617 Z M11.6104952,4.24163086 C12.2402786,4.24163086 12.9423548,4.34957031 13.6924881,4.56804687 C14.397119,4.77319336 15.1157667,5.06399414 15.8342762,5.43053711 L13.4668405,7.77430664 L10.1455119,4.48608398 C10.5687048,4.32407227 11.061981,4.24163086 11.6104952,4.24163086 L11.6104952,4.24163086 Z M8.68018333,5.93598633 L12.0018571,9.22455078 L9.63449048,11.5683203 C9.26425714,10.857041 8.97059762,10.145625 8.76331667,9.44794922 C8.35048095,8.05847656 8.3286619,6.83621094 8.68018333,5.93598633 L8.68018333,5.93598633 Z M6.49952143,14.6721094 C6.09096667,12.957793 6.1321881,11.1591211 6.62311667,9.46196289 C6.90220714,10.6270801 7.4009381,11.8534473 8.10439524,13.0832324 L6.49952143,14.6721094 L6.49952143,14.6721094 Z M18.802219,32.948877 L14.3466452,32.948877 L16.5743976,29.5780078 L18.802219,32.948877 L18.802219,32.948877 Z M6.31979048,22.4535254 C3.58074048,19.7417773 2.07225714,16.1362988 2.07225714,12.3012695 C2.07225714,8.81008789 3.32277857,5.50942383 5.61336429,2.89966797 L7.0831119,4.35476562 C4.03348571,7.91991211 3.36199762,12.8108887 5.0693381,16.9597559 C5.07285952,16.9687109 5.07679524,16.9774609 5.08059286,16.9863477 C5.68634762,18.448418 6.58735,19.817793 7.78484286,21.0032812 C8.98226667,22.1887695 10.3654286,23.0808594 11.84215,23.6805078 C11.8511262,23.6842676 11.8600333,23.6881641 11.8690786,23.6916504 C13.3731429,24.2983398 14.9738048,24.6019922 16.5744667,24.6019922 C19.4335905,24.6019922 22.292369,23.6335449 24.6008381,21.6979492 L26.0701024,23.1525684 C20.3793357,28.040332 11.7278071,27.8077051 6.31979048,22.4535254 L6.31979048,22.4535254 Z" id="Shape"></path>
                            </g>
                        </g>
                    </g>
                </g>
            </g>
        </g>
    </g>
</svg>