<?xml version="1.0" encoding="UTF-8"?>
<svg width="34px" height="34px" viewBox="0 0 34 34" version="1.1" xmlns="http://www.w3.org/2000/svg" xmlns:xlink="http://www.w3.org/1999/xlink">
    <!-- Generator: Sketch 46.2 (44496) - http://www.bohemiancoding.com/sketch -->
    <title>Group 27</title>
    <desc>Created with Sketch.</desc>
    <defs></defs>
    <g id="Page-1" stroke="none" stroke-width="1" fill="none" fill-rule="evenodd">
        <g id="Горизонтальный-лэндинг" transform="translate(-2710.000000, -864.000000)" fill="#756300">
            <g id="Discounter" transform="translate(2690.000000, 850.000000)">
                <g id="Group-27" transform="translate(20.000000, 14.000000)">
                    <g id="purse" transform="translate(0.655738, 0.655738)">
                        <g id="Capa_1">
                            <path d="M16.6393443,19.564229 C16.1017504,19.564229 15.6643827,19.1268612 15.6643827,18.5892674 C15.6643827,18.1806935 15.9220975,17.812353 16.3056474,17.6726085 C16.8064527,17.4902907 17.3894147,17.737606 17.9049744,18.3514418 C18.2513457,18.7637205 18.8662865,18.8172784 19.2786303,18.4709721 C19.690909,18.1246657 19.7444669,17.50966 19.3981605,17.0973812 C18.8710963,16.4698309 18.2575855,16.0384429 17.6143058,15.8218715 L17.6143058,14.6894211 C17.6143058,14.1509823 17.177783,13.7144595 16.6393443,13.7144595 C16.1009055,13.7144595 15.6643827,14.1509823 15.6643827,14.6894211 L15.6643827,15.8315561 C15.655673,15.834611 15.6469634,15.8372759 15.6383187,15.8404607 C14.4876041,16.2595642 13.7144595,17.3642607 13.7144595,18.5892674 C13.7144595,20.2020489 15.0265628,21.5141522 16.6393443,21.5141522 C17.1769381,21.5141522 17.6143058,21.9515199 17.6143058,22.4891137 C17.6143058,22.8818283 17.38064,23.2345044 17.0189293,23.3877033 C16.5824715,23.572621 16.0598271,23.4148072 15.5852158,22.9548854 C15.198481,22.5801751 14.5812654,22.5899898 14.2066201,22.9766595 C13.8319099,23.3633943 13.8417245,23.98061 14.2283943,24.3552552 C14.6685569,24.7817034 15.1579226,25.0830315 15.6643827,25.2530648 L15.6643827,26.38896 C15.6643827,26.9273988 16.1009055,27.3639216 16.6393443,27.3639216 C17.177783,27.3639216 17.6143058,26.9273988 17.6143058,26.38896 L17.6143058,25.24689 C18.803434,24.8240817 19.564229,23.7145754 19.564229,22.4891137 C19.564229,20.8763323 18.2521257,19.564229 16.6393443,19.564229 L16.6393443,19.564229 Z" id="Shape"></path>
                            <path d="M31.3024414,18.8109737 C31.3190808,18.7396715 31.3287654,18.6656394 31.3287654,18.5892674 L31.3287654,12.739498 C31.3287654,7.88769915 27.3392876,3.89984631 22.4891137,3.89984631 L21.3464588,3.89984631 C21.4546795,3.59468334 21.5141522,3.26664127 21.5141522,2.92488473 C21.5141522,1.31210329 20.2020489,0 18.5892674,0 C17.8406919,0 17.1572439,0.282998847 16.6393443,0.747145556 C16.1214447,0.282998847 15.4379966,0 14.6894211,0 C13.0766397,0 11.7645364,1.31210329 11.7645364,2.92488473 C11.7645364,3.26664127 11.824009,3.59468334 11.9322298,3.89984631 L10.7895748,3.89984631 C5.937776,3.89984631 1.94992316,7.88932409 1.94992316,12.739498 L1.94992316,18.5892674 C1.94992316,18.6656394 1.95960777,18.7396715 1.97624712,18.8109737 C0.679483222,20.2255779 0,21.8160653 0,23.4640753 C0,26.1765484 1.81011367,28.6930542 5.09683914,30.5500961 C8.21112641,32.3096417 12.3103199,33.2786885 16.6393443,33.2786885 C20.9683687,33.2786885 25.0675621,32.3096417 28.1818494,30.5500961 C31.4685749,28.6930542 33.2786885,26.1765484 33.2786885,23.4640753 C33.2786885,21.8160653 32.5992053,20.2255779 31.3024414,18.8109737 L31.3024414,18.8109737 Z M18.5892674,1.94992316 C19.1268612,1.94992316 19.564229,2.38729092 19.564229,2.92488473 C19.564229,3.46247855 19.1268612,3.89984631 18.5892674,3.89984631 C18.0516736,3.89984631 17.6143058,3.46247855 17.6143058,2.92488473 C17.6143058,2.38729092 18.0516736,1.94992316 18.5892674,1.94992316 L18.5892674,1.94992316 Z M14.6894211,1.94992316 C15.2270149,1.94992316 15.6643827,2.38729092 15.6643827,2.92488473 C15.6643827,3.46247855 15.2270149,3.89984631 14.6894211,3.89984631 C14.1518273,3.89984631 13.7144595,3.46247855 13.7144595,2.92488473 C13.7144595,2.38729092 14.1518273,1.94992316 14.6894211,1.94992316 L14.6894211,1.94992316 Z M3.89984631,12.739498 C3.89984631,8.94046267 6.99053951,5.84976947 10.7895748,5.84976947 L22.4891137,5.84976947 C26.288149,5.84976947 29.3788422,8.94046267 29.3788422,12.739498 L29.3788422,16.7588096 C29.0483952,16.2476697 28.8203192,15.7001313 28.7066387,15.1319237 L28.3503877,13.3507989 C27.7123729,10.1609846 24.8439709,7.79969262 21.593319,7.79969262 L11.6853695,7.79969262 C8.43166272,7.79969262 5.56566566,10.1640394 4.92830078,13.3507989 L4.57204982,15.1318587 C4.4583693,15.7000663 4.23029329,16.2476697 3.89984631,16.7587446 L3.89984631,12.739498 L3.89984631,12.739498 Z M23.8867537,30.2685272 C24.8498857,29.1628557 25.4139985,27.8267034 25.4139985,26.38896 C25.4139985,25.8505213 24.9774757,25.4139985 24.4390369,25.4139985 C23.9005981,25.4139985 23.4640753,25.8505213 23.4640753,26.38896 C23.4640753,27.6439956 22.7892719,28.8491131 21.5638752,29.7822163 C20.2542418,30.779537 18.5052907,31.3287654 16.6393443,31.3287654 C14.7733978,31.3287654 13.0244467,30.779537 11.7148133,29.7822163 C10.4894166,28.8491131 9.81461322,27.6439956 9.81461322,26.38896 C9.81461322,25.8505213 9.37809042,25.4139985 8.83965164,25.4139985 C8.30121286,25.4139985 7.86469006,25.8505213 7.86469006,26.38896 C7.86469006,27.8267034 8.42880283,29.1628557 9.39193487,30.2685272 C4.98549853,28.8930514 1.94992316,26.3278624 1.94992316,23.4640753 C1.94992316,21.7012148 3.121242,20.3126745 4.10380827,19.4582182 C5.3641736,18.3622964 6.18723617,16.9985201 6.48407947,15.5143686 L6.84033043,13.7333088 C7.29459753,11.4622983 9.37757044,9.74968078 11.6853695,9.74968078 L21.593319,9.74968078 C23.9011831,9.74968078 25.984091,11.4622983 26.4383581,13.7333088 L26.7946091,15.5143686 C27.0914524,16.9985201 27.9145149,18.3622964 29.1748803,19.4582182 C30.1574465,20.3126745 31.3287654,21.7012148 31.3287654,23.4640753 C31.3287654,26.3278624 28.29319,28.8930514 23.8867537,30.2685272 L23.8867537,30.2685272 Z" id="Shape"></path>
                        </g>
                    </g>
                </g>
            </g>
        </g>
    </g>
</svg>