<?xml version="1.0" encoding="UTF-8"?>
<svg width="31px" height="31px" viewBox="0 0 31 31" version="1.1" xmlns="http://www.w3.org/2000/svg" xmlns:xlink="http://www.w3.org/1999/xlink">
    <!-- Generator: Sketch 46.2 (44496) - http://www.bohemiancoding.com/sketch -->
    <title>Group 23</title>
    <desc>Created with Sketch.</desc>
    <defs></defs>
    <g id="Page-1" stroke="none" stroke-width="1" fill="none" fill-rule="evenodd">
        <g id="Горизонтальный-лэндинг" transform="translate(-3259.000000, -866.000000)" fill="#756300">
            <g id="Blogger" transform="translate(3237.000000, 850.000000)">
                <g id="Group-23" transform="translate(22.000000, 16.000000)">
                    <g id="star-3" transform="translate(0.803279, 0.950820)">
                        <g id="Capa_1">
                            <ellipse id="Oval" cx="27.3135085" cy="25.4626345" rx="1" ry="1"></ellipse>
                            <ellipse id="Oval" cx="13.2083323" cy="28.9613794" rx="1" ry="1"></ellipse>
                            <ellipse id="Oval" cx="2.62974377" cy="20.2145172" rx="1" ry="1"></ellipse>
                            <ellipse id="Oval" cx="23.7872144" cy="2.72085105" rx="1" ry="1"></ellipse>
                            <path d="M6.15603782,1.84616483 L5.27446431,1.84616483 L5.27446431,0.971478612 C5.27446431,0.488449027 4.87972376,0.0967923924 4.3928908,0.0967923924 C3.90605783,0.0967923924 3.51131728,0.488390753 3.51131728,0.971478612 L3.51131728,1.84616483 L2.62974377,1.84616483 C2.14285207,1.84616483 1.74817026,2.23776319 1.74817026,2.72085105 C1.74817026,3.20393891 2.14285207,3.59553727 2.62974377,3.59553727 L3.51131728,3.59553727 L3.51131728,4.47022349 C3.51131728,4.95325307 3.9059991,5.34490971 4.3928908,5.34490971 C4.8797825,5.34490971 5.27446431,4.95331135 5.27446431,4.47022349 L5.27446431,3.595479 L6.15603782,3.595479 C6.64287079,3.595479 7.03761133,3.20388064 7.03761133,2.72079278 C7.03761133,2.23776319 6.64287079,1.84616483 6.15603782,1.84616483 L6.15603782,1.84616483 Z" id="Shape"></path>
                            <path d="M29.7016271,10.9690663 C29.3968059,9.96268186 28.5585769,9.22925077 27.5139622,9.05512935 L20.9820956,7.96599641 C20.7340099,7.92468046 20.5225733,7.76495261 20.4162676,7.53873463 L17.6173745,1.58253522 C17.1697748,0.630112065 16.2339325,0.024008709 15.1749284,0.000699282787 C14.1194482,-0.022260502 13.1515967,0.546606045 12.6645288,1.47356365 L9.60216213,7.30074539 C9.48587195,7.52206839 9.26744611,7.67223937 9.01777462,7.70271644 L2.44367949,8.50316214 C1.39231057,8.63113089 0.522131148,9.32691726 0.17261456,10.3189082 C-0.176960759,11.3108408 0.0667200207,12.3930392 0.808510391,13.1430783 L5.44784239,17.8335175 C5.6239809,18.0116016 5.70050923,18.2642175 5.65246612,18.5091413 L4.3883684,24.9600832 C4.1861527,25.9916419 4.5840648,27.0278042 5.42699238,27.6642681 C6.24448883,28.2815599 7.37027172,28.4111021 8.33066413,27.9368135 L14.2603472,25.0084503 C14.4812398,24.8993039 14.7552853,24.9054226 14.9712444,25.0241259 L20.7640222,28.2105245 C21.6585168,28.7025282 22.7889983,28.6767713 23.6770324,28.0659477 C24.5475055,27.4672451 24.9913463,26.4496721 24.8355292,25.4103048 L23.8609823,18.9100051 C23.8239809,18.6631583 23.9116684,18.4142136 24.095677,18.2440548 L28.9401026,13.7623514 C29.7147244,13.0457031 30.006507,11.9753343 29.7016271,10.9690663 L29.7016271,10.9690663 Z M27.7377327,12.4827805 L22.8933071,16.9644256 C22.2847806,17.5273482 21.9946424,18.3508703 22.1170408,19.1672829 L23.0915877,25.6675826 C23.1479708,26.0435054 22.9874551,26.4115612 22.6725319,26.6281058 C22.3513831,26.8490791 21.9424293,26.8583446 21.6189312,26.6803772 L15.8259772,23.4939786 C15.4520279,23.2882729 15.0282735,23.1794762 14.6005841,23.1794762 C14.2119517,23.1794762 13.8224971,23.2703247 13.4745663,23.4421734 L7.54505938,26.3707114 C7.19566026,26.5432012 6.7887621,26.4941349 6.49468891,26.2721709 C6.18980896,26.041932 6.04585582,25.6671747 6.1190364,25.2941073 L7.38325158,18.8430488 C7.54200529,18.0327549 7.28886859,17.197345 6.7061256,16.6083158 L2.06685233,11.9178765 C1.79850394,11.6465548 1.71034659,11.255073 1.8368562,10.8962244 C1.96318962,10.537434 2.27799535,10.2858088 2.65828772,10.2394813 L9.23244159,9.43897733 C10.0581606,9.33845543 10.7808629,8.84144019 11.1655015,8.10952421 L14.2278682,2.28234247 C14.4006002,1.95356301 14.7400148,1.74937244 15.113553,1.74937244 L15.1358713,1.74960553 C15.5188654,1.7580552 15.8573403,1.97733863 16.0192655,2.32179367 L18.8180999,8.27799308 C19.1696134,9.02616739 19.8693514,9.55447554 20.6898432,9.69118532 L27.2218272,10.7802017 C27.599594,10.8431954 27.9028295,11.1084567 28.0130702,11.4724917 C28.1234872,11.8364101 28.017945,12.2235797 27.7377327,12.4827805 L27.7377327,12.4827805 Z" id="Shape"></path>
                            <path d="M24.2215406,12.6032902 C24.1249258,12.2844173 23.8543456,12.04771 23.5234471,11.9924667 L20.3601194,11.4647413 C18.9671628,11.2318218 17.7795934,10.3352248 17.1832832,9.06608478 L15.8274455,6.18177638 C15.6856067,5.88009413 15.3834284,5.68435323 15.0479489,5.67701076 C14.7124693,5.66943519 14.4019511,5.85188973 14.24678,6.14704534 L12.7636104,8.96946721 C12.110506,10.212151 10.8841145,11.0553695 9.48211308,11.2251787 L6.29893378,11.6136303 C5.965921,11.6542469 5.6850626,11.8789498 5.57435201,12.1932191 C5.46364141,12.5074885 5.54234284,12.8568385 5.77733122,13.0944198 L8.02137924,15.3635925 C9.01307603,16.363392 9.44370208,17.7822368 9.17329805,19.1592412 L8.56136504,22.2835201 C8.49734671,22.6103765 8.62591197,22.9449251 8.89302698,23.1464933 C9.16002453,23.3480616 9.51929069,23.381802 9.81976572,23.2333792 L12.6890203,21.815933 C13.2805144,21.5235745 13.942135,21.369033 14.6024635,21.369033 C15.3285136,21.369033 16.0477507,21.553702 16.6824132,21.9031103 C16.6825307,21.9031685 16.6826481,21.9032268 16.6827656,21.9032851 L19.4876494,23.4460777 C19.6210307,23.5194442 19.7681554,23.5557486 19.9149864,23.5557486 C20.0911837,23.5557486 20.2668523,23.5033607 20.4173248,23.3998668 C20.6930734,23.2101863 20.8364393,22.8815817 20.7870453,22.5522195 L20.3147192,19.4035822 C20.1073351,18.0167296 20.5999826,16.619213 21.6332619,15.6648668 L23.9785646,13.4947009 C24.2238899,13.2677254 24.3180967,12.9221632 24.2215406,12.6032902 L24.2215406,12.6032902 Z M20.4310682,14.3849462 C18.9733297,15.7314152 18.2778204,17.7035092 18.5704841,19.6606852 L18.7798651,21.0565702 L17.5377333,20.3733709 C16.6421228,19.8802017 15.6269917,19.6195441 14.6023461,19.6195441 C13.6706151,19.6195441 12.7371808,19.8376037 11.9029457,20.2499475 L10.632916,20.877379 L10.9039661,19.4933818 C11.2856093,17.550308 10.6777288,15.5477369 9.27901639,14.1374584 L8.28632116,13.1335797 L9.69648638,12.9614978 C11.6741829,12.7219352 13.4052033,11.531989 14.3268911,9.7783043 L14.9843417,8.52711258 L15.585233,9.80534324 C16.4265748,11.5960316 18.1019169,12.8612673 20.0673971,13.1898719 L21.4699271,13.4238403 L20.4310682,14.3849462 L20.4310682,14.3849462 Z" id="Shape"></path>
                        </g>
                    </g>
                </g>
            </g>
        </g>
    </g>
</svg>