<?xml version="1.0" encoding="UTF-8"?>
<svg width="39px" height="31px" viewBox="0 0 39 31" version="1.1" xmlns="http://www.w3.org/2000/svg" xmlns:xlink="http://www.w3.org/1999/xlink">
    <!-- Generator: Sketch 46.2 (44496) - http://www.bohemiancoding.com/sketch -->
    <title>Group 22</title>
    <desc>Created with Sketch.</desc>
    <defs></defs>
    <g id="Page-1" stroke="none" stroke-width="1" fill="none" fill-rule="evenodd">
        <g id="Горизонтальный-лэндинг" transform="translate(-2922.000000, -869.000000)" fill="#756300">
            <g id="Rich" transform="translate(2900.000000, 850.000000)">
                <g id="Group-22" transform="translate(22.000000, 19.000000)">
                    <g id="superman" transform="translate(0.213115, 0.245902)">
                        <g id="Capa_1">
                            <g id="Group">
                                <path d="M14.2767287,15.2696123 C14.6143784,16.6089667 16.6126886,17.4743802 19.3676905,17.4743802 C21.4312002,17.4743802 22.7397318,16.7369433 23.2761501,16.0469423 C23.6297356,15.5922776 23.7305764,15.0848969 23.5758453,14.5388801 C23.2673255,13.4498637 21.6609836,12.9198545 19.0524879,12.1763833 L18.3246692,11.9686204 C15.6647678,11.210734 12.6499959,10.35169 12.011109,8.0968042 C11.688624,6.95867563 11.9152374,5.81199853 12.6491392,4.867972 C12.6783547,4.83042549 12.7085984,4.79346565 12.7392705,4.75667342 C12.9484059,4.50591638 12.9913296,4.15978449 12.8495356,3.86737429 C12.707656,3.57496408 12.4064187,3.38865629 12.0755374,3.38865629 L9.06599177,3.38865629 C8.81650286,3.38865629 8.57943699,3.49501013 8.41665233,3.67997698 L4.72932275,7.87043562 C4.45276018,8.18472002 4.45276018,8.6496095 4.72932275,8.96397771 L11.0937746,16.196877 C11.3387226,16.4751234 11.7401153,16.5650507 12.0844477,16.4188036 C12.4287801,16.2725566 12.6356023,15.9240781 12.5949062,15.5590892 C12.5486411,15.1443176 12.8259747,14.7561973 13.2401332,14.6563805 C13.3082457,14.639954 13.3776433,14.6316568 13.446527,14.6316568 C13.8406372,14.6316568 14.1821423,14.8939796 14.2767287,15.2696123 L14.2767287,15.2696123 Z M12.8296588,13.028974 C12.2360088,13.1721201 11.7359172,13.512553 11.3902997,13.9646196 L6.50898746,8.41720667 L9.45890253,5.06483975 L10.5658382,5.06483975 C10.0982179,6.15410757 10.0219661,7.35224351 10.3597871,8.54442899 C11.2538176,11.6995929 14.9086759,12.7410895 17.8452255,13.5777565 L18.5728729,13.7854356 C19.3017198,13.9931986 20.1278948,14.2287023 20.8046506,14.4797108 C21.5465203,14.7550239 21.8229972,14.9439298 21.917755,15.0251409 C21.9160415,15.0273199 21.9143279,15.0296666 21.9124431,15.0320971 C21.6730639,15.340012 20.7978822,15.7981129 19.3678618,15.7981129 C17.038756,15.7981129 16.0263211,15.1038377 15.940645,14.8682501 C15.6567999,13.7420225 14.6311709,12.9553896 13.4464413,12.9553896 C13.2392764,12.9554734 13.0318545,12.9802809 12.8296588,13.028974 L12.8296588,13.028974 Z" id="Shape"></path>
                                <path d="M22.5497022,18.5650728 C21.6153182,18.9480807 20.5149796,19.1505636 19.3676905,19.1505636 C17.7602348,19.1505636 16.3063107,18.8806143 15.1629627,18.3700488 C14.7967829,18.2064533 14.36369,18.3143157 14.1220833,18.629103 C13.8803909,18.9438902 13.8952129,19.3807874 14.1578103,19.6792319 L18.2850868,24.3696961 C18.4478714,24.5546629 18.6849373,24.6610168 18.9344262,24.6610168 C19.1839151,24.6610168 19.420981,24.5546629 19.5837657,24.3696961 L23.5301799,19.8848158 C23.7894359,19.5901428 23.8075135,19.1597826 23.5738747,18.8453306 C23.3402359,18.5307948 22.9163104,18.4148029 22.5497022,18.5650728 L22.5497022,18.5650728 Z M18.9344262,22.5381304 L17.3036666,20.6848582 C17.9621734,20.7787244 18.6536655,20.8266633 19.3676905,20.8266633 C19.7458649,20.8266633 20.1208694,20.80789 20.4894481,20.7708464 L18.9344262,22.5381304 L18.9344262,22.5381304 Z" id="Shape"></path>
                                <path d="M28.803032,3.3887401 L25.6687419,3.3887401 C25.3325488,3.3887401 25.027456,3.58108215 24.888575,3.88044852 C24.7496083,4.17989869 24.8025562,4.53114294 25.0239433,4.77863142 C25.6734541,5.50483791 26.0027932,6.35801529 26.0027932,7.31452938 C26.0027932,7.77665316 25.61845,8.15262111 25.1460318,8.15262111 C24.6736136,8.15262111 24.2892705,7.77665316 24.2892705,7.31452938 C24.2892705,5.19918585 21.357176,4.25230982 18.4512128,4.25230982 C16.1135394,4.25230982 14.625859,5.0945082 14.0130176,5.88273347 C13.5990305,6.41517314 13.4811401,7.00946399 13.6623452,7.6490956 C14.0186722,8.90656843 16.0181819,9.56564376 18.8035988,10.3592328 L19.5315032,10.5669958 C22.159276,11.3159983 24.6413137,12.0233478 25.2271671,14.0910877 C25.3587657,14.5557257 25.3926077,15.0221238 25.3277509,15.4772914 C25.2753171,15.8454651 25.4770844,16.2034979 25.8233874,16.356701 C25.9369082,16.4069027 26.0570262,16.4312074 26.1760303,16.4312074 C26.4199503,16.4312074 26.6589867,16.3292116 26.8257125,16.1398029 L33.1398724,8.96406152 C33.416435,8.64977712 33.416435,8.18488764 33.1398724,7.87051943 L29.4525428,3.68006078 C29.2895868,3.49509394 29.052521,3.3887401 28.803032,3.3887401 L28.803032,3.3887401 Z M26.8490164,13.54373 C25.9651814,10.6549116 22.8037319,9.75379536 20.0111182,8.95785964 L19.2831281,8.7500967 C18.4325354,8.50772057 17.4683362,8.23299411 16.6575829,7.9195478 C15.5820903,7.50368668 15.3448531,7.23105544 15.307584,7.17942899 C15.277426,7.06502947 15.2859079,7.01440873 15.376896,6.89741113 C15.6374371,6.56225824 16.6153446,5.92849328 18.4512128,5.92849328 C20.8118474,5.92849328 22.5757477,6.66031498 22.5757477,7.31452938 C22.5757477,8.70090072 23.7287772,9.82880457 25.1460318,9.82880457 C26.5632865,9.82880457 27.7163159,8.70090072 27.7163159,7.31452938 C27.7163159,6.52270031 27.5506183,5.76372444 27.2297611,5.06492356 L28.4101213,5.06492356 L31.3600363,8.41729048 L26.8490164,13.54373 L26.8490164,13.54373 Z" id="Shape"></path>
                                <path d="M37.6614305,7.87051943 L31.0242716,0.327693866 C30.8614869,0.142727022 30.624421,0.0363731811 30.3749321,0.0363731811 L7.49392033,0.0363731811 C7.24443142,0.0363731811 7.00736555,0.142727022 6.84458089,0.327693866 L0.207421927,7.87051943 C-0.0691406424,8.18480383 -0.0691406424,8.64969331 0.207421927,8.96406152 L18.2850868,29.5083717 C18.4478714,29.6933386 18.6849373,29.7997762 18.9344262,29.7997762 C19.1839151,29.7997762 19.420981,29.6933386 19.5837657,29.5083717 L37.6614305,8.96406152 C37.9379931,8.64977712 37.9379931,8.18488764 37.6614305,7.87051943 L37.6614305,7.87051943 Z M18.9344262,27.6769737 L1.98717232,8.41729048 L7.88691677,1.71255664 L29.9819357,1.71255664 L35.8816801,8.41729048 L18.9344262,27.6769737 L18.9344262,27.6769737 Z" id="Shape"></path>
                            </g>
                        </g>
                    </g>
                </g>
            </g>
        </g>
    </g>
</svg>