<svg xmlns="http://www.w3.org/2000/svg" xmlns:xlink="http://www.w3.org/1999/xlink" width="38" height="38" viewBox="0 0 38 38"><defs><path id="a" d="M388 553.6a18.6 18.6 0 1 1 37.21 0 18.6 18.6 0 1 1-37.21 0z"/><path id="b" d="M400 559.33h2.67v-8H400zm14.67-7.33c0-.73-.6-1.33-1.34-1.33h-4.2l.67-3.07v-.2c0-.27-.13-.53-.27-.73l-.73-.67-4.4 4.4c-.27.2-.4.53-.4.93V558c0 .73.6 1.33 1.33 1.33h6c.54 0 1-.33 1.2-.8l2-4.73c.07-.13.07-.33.07-.47V552h.07c0 .07 0 0 0 0z"/></defs><g transform="translate(-388 -535)"><use fill="#d0021b" xlink:href="#a"/></g><g transform="translate(-388 -535)"><use fill="#fff" xlink:href="#b"/></g></svg>