<svg xmlns="http://www.w3.org/2000/svg" xmlns:xlink="http://www.w3.org/1999/xlink" width="38" height="39" viewBox="0 0 38 39"><defs><path id="a" d="M498 554a19 19 0 0 1 38 0 19 19 0 0 1-38 0z"/><path id="b" d="M509 550.52a3.52 3.52 0 1 1 7.04 0 3.52 3.52 0 0 1-7.04 0z"/><path id="c" d="M513.38 555a6.38 6.38 0 0 0-6.38 6.38h12.76a6.38 6.38 0 0 0-6.38-6.38z"/><path id="d" d="M519 550.52a3.52 3.52 0 1 1 7.04 0 3.52 3.52 0 0 1-7.04 0z"/><path id="e" d="M522.39 555c-1.24 0-2.41.36-3.39.98.97.86 2.55 2.16 2.46 5.4h7.31a6.38 6.38 0 0 0-6.38-6.38z"/></defs><g transform="translate(-498 -535)"><use fill="#00c59d" xlink:href="#a"/></g><g transform="translate(-498 -535)"><use fill="#fff" xlink:href="#b"/></g><g transform="translate(-498 -535)"><use fill="#fff" xlink:href="#c"/></g><g transform="translate(-498 -535)"><use fill="#fff" xlink:href="#d"/></g><g transform="translate(-498 -535)"><use fill="#fff" xlink:href="#e"/></g></svg>