<svg xmlns="http://www.w3.org/2000/svg" xmlns:xlink="http://www.w3.org/1999/xlink" width="38" height="39" viewBox="0 0 38 39"><defs><path id="a" d="M443 554a19 19 0 0 1 38 0 19 19 0 0 1-38 0z"/><path id="b" d="M460.11 558.29h-.03l-.05-.01-.07-.01h-.01l-.01-.01-.05-.01-.08-.01-.06-.01-.08-.01-.05-.01h-.01l-.07-.01-.06-.01-.07-.01-.06-.01-.06-.01-.06-.01-.06-.01-.06-.01-.06-.01H459l-.06-.01-.05-.01-.06-.01h-.05l-.05-.01-.04-.01-.1-.01-.5-.06H457l.86 3.84h3.04z"/><path id="c" d="M467.14 547.53l-.2.11a.49.49 0 0 1-.07.03l-.12.07-.09.05-.11.06-.09.04-.11.06-.1.04-.1.06-.1.04-.11.05-.09.05-.11.05-.1.04-.1.05-.1.04-.11.05-.1.04-.1.04-.11.05-.1.04a.3.3 0 0 0-.1.04l-.11.04-.1.04-.1.04a.49.49 0 0 0-.11.04l-.1.03-.1.04-.1.04-.11.03-.1.04a.49.49 0 0 0-.11.04l-.09.03-.11.03-.1.04-.1.03-.1.03-.11.03-.09.03-.11.04-.09.03-.11.03-.09.02-.11.03-.09.03-.11.03a.3.3 0 0 1-.09.02l-.11.03-.08.03-.11.03a.19.19 0 0 0-.08.02l-.11.03-.08.01-.12.03-.06.02-.12.03-.05.01-.14.03-.01.01-.85.18-.02.01-.14.02-.03.01-.13.03h-.03l-.12.03h-.05l-.11.02-.04.01-.12.02-.04.01-.11.02-.04.01-.1.01-.04.01-.11.02h-.03l-.11.02-.03.01-.1.01-.03.01-.1.01-.03.01-.1.01h-.02l-.1.02h-.02l-.09.01-.02.01-.09.01h-.02l-.09.01h-.01l-.09.01-.05.01v5.7h.02l.05.01.05.01h.05l.05.01.05.01h.06a.1.1 0 0 0 .05.01l.06.01.06.01.06.01h.06l.07.01.06.01.06.01.07.01.07.01.06.01.08.02.06.01.08.01.06.01.08.01.07.02.09.01.07.01.08.02.07.01.09.02.07.01.09.02.07.01.1.02.07.01.1.02.07.02.1.02.07.02a.3.3 0 0 1 .1.02l.06.01.26.06.04.01.11.02.07.02.11.02.08.02.1.03a.3.3 0 0 1 .09.02l.1.02.09.03.1.02.09.03.1.02.1.03.1.03a1.26 1.26 0 0 1 .29.08l.1.03.1.03.1.03.1.03.1.03.1.03.11.03.1.03.1.03.1.04.1.03.11.04.1.03.1.04a1.26 1.26 0 0 1 .21.07l.1.04.1.04.11.03.1.04.1.04.11.04a.3.3 0 0 0 .1.04l.1.05a.3.3 0 0 1 .1.04l.11.04.1.04.11.05.09.04.11.05.1.04.11.05.09.05.11.05.1.04.1.06.1.04.11.06.09.04.11.06.09.05.12.07.07.04.2.11.92.52V547z"/><path id="d" d="M454.78 551a2.79 2.79 0 0 0 0 5.56h2.25V551z"/><path id="e" d="M470 554.23V553h2.6v1.23z"/><path id="f" d="M470.84 549l-1.15 1.15-.69.69.69.69.18.18 1.84-1.84z"/><path id="g" d="M469.87 555l-.18.18-.69.69.69.69 1.15 1.15.87-.87z"/></defs><g transform="translate(-443 -535)"><use fill="#4a90e2" xlink:href="#a"/></g><g transform="translate(-443 -535)"><use fill="#fff" xlink:href="#b"/></g><g transform="translate(-443 -535)"><use fill="#fff" xlink:href="#c"/></g><g transform="translate(-443 -535)"><use fill="#fff" xlink:href="#d"/></g><g transform="translate(-443 -535)"><use fill="#fff" xlink:href="#e"/></g><g transform="translate(-443 -535)"><use fill="#fff" xlink:href="#f"/></g><g transform="translate(-443 -535)"><use fill="#fff" xlink:href="#g"/></g></svg>