<svg xmlns="http://www.w3.org/2000/svg" xmlns:xlink="http://www.w3.org/1999/xlink" width="22" height="21" viewBox="0 0 22 21"><defs><path id="a" d="M711.47 1079l-.06-.05a1.27 1.27 0 0 0-1.82 0l-1.97 2.02a.26.26 0 0 1-.37.01l-2.76-2.59a1.45 1.45 0 0 0-.98-.39h-4.1a.4.4 0 0 0-.26.1l-3.47 3.36c-.51.52-.55 1.35-.08 1.86.25.28.59.42.95.42s.71-.15.95-.42l2.45-2.64h.88l-5.73 6.51h-3.53c-.84 0-1.53.64-1.57 1.45a1.53 1.53 0 0 0 1.51 1.62h5.27c.1 0 .2-.05.27-.13l2.7-2.93 2.27 2.42-.68 4.45c-.18.74.17 1.5.82 1.79.21.09.42.14.63.14a1.53 1.53 0 0 0 1.47-1.2l1.17-6.39a.4.4 0 0 0-.11-.34l-3.12-3.18 2.48-2.52 1.73 1.76a1.3 1.3 0 0 0 1.81 0l3.25-3.3a1.3 1.3 0 0 0 0-1.83z"/><path id="b" d="M706.99 1079a2 2 0 0 0 1.98-2 2 2 0 0 0-1.98-2 2 2 0 0 0 0 4z"/></defs><g transform="translate(-690 -1075)"><use fill="#fff" xlink:href="#a"/></g><g transform="translate(-690 -1075)"><use fill="#fff" xlink:href="#b"/></g></svg>