<svg xmlns="http://www.w3.org/2000/svg" xmlns:xlink="http://www.w3.org/1999/xlink" width="29" height="31" viewBox="0 0 29 31"><defs><path id="a" d="M334.83 251.61h-1.3v5.61c0 1.53-1.17 2.78-2.6 2.78H310.6c-1.43 0-2.6-1.25-2.6-2.78v-19.11c0-1.54 1.17-2.78 2.6-2.78h7.73l6.91-4.12a1.5 1.5 0 0 1 2.13.65l1.8 3.47h1.76c1.43 0 2.6 1.24 2.6 2.78v6.4h1.3zm-5.08-15.17l.77 1.48h1.95a1.6 1.6 0 0 0-1.54-1.48zm-13.65 1.48h13.23l-2.87-5.52c-.14-.26-.47-.36-.71-.22zm16.39 13.69h-3.8c-1.77 0-3.21-1.54-3.21-3.43v-.24c0-1.89 1.44-3.43 3.21-3.43h3.8v-5.47h-21.56c-.29 0-.52-.25-.52-.56 0-.31.23-.56.52-.56h3.03l2.5-1.48h-5.86c-.86 0-1.56.75-1.56 1.67v19.11c0 .92.7 1.67 1.56 1.67h20.33c.86 0 1.56-.75 1.56-1.67zm1.3-5.99h-5.1c-1.2 0-2.17 1.04-2.17 2.32v.24c0 1.27.97 2.31 2.17 2.31h5.1zm-3.51 2.48c0 .68-.51 1.23-1.15 1.23-.63 0-1.15-.55-1.15-1.23 0-.68.52-1.23 1.15-1.23.64 0 1.15.55 1.15 1.23z"/></defs><g transform="translate(-307 -230)"><use fill="#fff" xlink:href="#a"/><use fill="#fff" fill-opacity="0" stroke="#fff" stroke-miterlimit="50" stroke-width=".5" xlink:href="#a"/></g></svg>