<svg xmlns="http://www.w3.org/2000/svg" xmlns:xlink="http://www.w3.org/1999/xlink" width="22" height="18" viewBox="0 0 22 18"><defs><path id="a" d="M323.32 733.64v3.86a1.3 1.3 0 0 1-1.33 1.29v1.92a1.3 1.3 0 0 1-1.33 1.29h-15.99a2.62 2.62 0 0 1-2.67-2.57v-11.57a3.93 3.93 0 0 1 4-3.86h14.66c.74 0 1.33.58 1.33 1.29a1.3 1.3 0 0 1-1.33 1.28H306a1.3 1.3 0 0 0-1.33 1.29c0 .71.59 1.28 1.33 1.28h14.66c.74 0 1.33.58 1.33 1.29v1.93c.74 0 1.33.57 1.33 1.28zm-1.99 1.93c0-.71-.6-1.28-1.34-1.28a1.3 1.3 0 0 0-1.33 1.28c0 .71.6 1.29 1.33 1.29.74 0 1.34-.58 1.34-1.29z"/></defs><g transform="translate(-302 -724)"><use fill="#00ecb7" xlink:href="#a"/></g></svg>