<svg xmlns="http://www.w3.org/2000/svg" xmlns:xlink="http://www.w3.org/1999/xlink" width="23" height="22" viewBox="0 0 23 22"><defs><path id="a" d="M323.01 770.32l-.5.27c-.54.3-.83.9-.72 1.51l.1.55c.16.85-.47 1.64-1.34 1.69l-.56.03c-.62.04-1.15.46-1.32 1.05l-.14.55a1.45 1.45 0 0 1-1.95.94l-.53-.21a1.45 1.45 0 0 0-1.64.38l-.37.43c-.57.65-1.59.66-2.17.01l-.37-.41a1.47 1.47 0 0 0-1.65-.37l-.53.23c-.8.34-1.71-.09-1.95-.92l-.16-.54a1.44 1.44 0 0 0-1.33-1.04l-.56-.02a1.44 1.44 0 0 1-1.37-1.67l.09-.56c.11-.6-.19-1.21-.74-1.5l-.5-.27c-.77-.4-1-1.38-.5-2.08l.33-.46c.36-.5.35-1.18-.02-1.67l-.33-.46a1.43 1.43 0 0 1 .47-2.1l.49-.27c.54-.3.84-.9.72-1.51l-.1-.55a1.43 1.43 0 0 1 1.34-1.69l.57-.03a1.45 1.45 0 0 0 1.31-1.05l.15-.55a1.44 1.44 0 0 1 1.94-.94l.53.21c.57.24 1.23.08 1.64-.38l.37-.43a1.45 1.45 0 0 1 2.17-.01l.38.42c.42.46 1.08.6 1.65.36l.52-.22c.8-.34 1.72.09 1.96.91l.16.55c.17.59.7 1 1.32 1.03l.57.02c.87.04 1.51.82 1.37 1.67l-.1.56c-.1.61.19 1.21.74 1.5l.51.27c.77.4 1 1.38.5 2.09l-.33.46c-.36.5-.35 1.17.01 1.67l.34.45c.51.7.29 1.68-.47 2.1zm-8.35-3.9c-.5-.28-1.03-.48-1.56-.7-.31-.13-.6-.27-.86-.48-.51-.4-.41-1.05.19-1.31.16-.07.34-.1.52-.11.69-.03 1.35.09 1.98.39.31.15.41.1.52-.22.11-.34.2-.69.3-1.03.07-.23-.02-.38-.24-.48-.4-.17-.81-.3-1.24-.37-.57-.08-.56-.09-.57-.65 0-.79 0-.79-.8-.79h-.35c-.38.01-.44.07-.45.45v.5c-.01.5-.01.49-.49.66-1.16.42-1.88 1.21-1.95 2.46-.07 1.12.51 1.87 1.44 2.41.56.34 1.19.54 1.79.81.24.1.46.22.66.38.58.47.47 1.26-.22 1.56-.36.16-.76.2-1.15.15a5.34 5.34 0 0 1-1.76-.52c-.32-.17-.42-.12-.53.23-.1.29-.18.6-.26.9-.12.41-.08.51.32.7.49.24 1.03.36 1.58.45.42.07.44.08.44.52l.01.6c0 .25.12.4.38.4h.89c.25 0 .37-.13.37-.38 0-.27.02-.54 0-.82-.01-.27.11-.41.38-.49.61-.17 1.15-.5 1.55-.99 1.13-1.35.7-3.35-.89-4.23z"/></defs><g transform="translate(-302 -756)"><use fill="#f3dd00" xlink:href="#a"/></g></svg>