<svg xmlns="http://www.w3.org/2000/svg" xmlns:xlink="http://www.w3.org/1999/xlink" width="26" height="27" viewBox="0 0 26 27"><defs><path id="a" d="M669 114.08c0-.6.47-1.08 1.06-1.08.59 0 1.06.48 1.06 1.08 0 .6-.47 1.08-1.06 1.08-.59 0-1.06-.48-1.06-1.08z"/><path id="b" d="M676 119.08c0-.6.47-1.08 1.06-1.08.59 0 1.06.48 1.06 1.08 0 .6-.47 1.08-1.06 1.08-.59 0-1.06-.48-1.06-1.08z"/><path id="c" d="M686.11 120.56l-.59.34c-.65.37-1 1.11-.86 1.85l.12.68a1.75 1.75 0 0 1-1.59 2.08l-.68.04c-.74.04-1.37.56-1.57 1.29l-.18.67a1.73 1.73 0 0 1-2.33 1.16l-.63-.27a1.72 1.72 0 0 0-1.96.47l-.45.52a1.7 1.7 0 0 1-2.58.03l-.45-.52a1.71 1.71 0 0 0-1.97-.44l-.63.27a1.72 1.72 0 0 1-2.34-1.12l-.19-.67a1.74 1.74 0 0 0-1.59-1.26l-.68-.03a1.76 1.76 0 0 1-1.63-2.05l.11-.68a1.75 1.75 0 0 0-.88-1.84l-.6-.33c-.92-.5-1.2-1.7-.6-2.57l.39-.56c.43-.62.42-1.44-.01-2.05l-.41-.56a1.77 1.77 0 0 1 .56-2.57l.59-.34c.65-.37 1-1.11.86-1.85l-.12-.68a1.75 1.75 0 0 1 1.59-2.08l.68-.04a1.74 1.74 0 0 0 1.57-1.29l.18-.67a1.73 1.73 0 0 1 2.33-1.16l.63.27c.68.28 1.47.1 1.96-.47l.45-.52a1.7 1.7 0 0 1 2.58-.03l.45.52c.5.56 1.29.74 1.97.44l.63-.27c.96-.42 2.05.11 2.34 1.12l.19.67c.21.72.85 1.23 1.59 1.26l.68.03a1.76 1.76 0 0 1 1.63 2.05l-.11.68c-.13.75.23 1.49.88 1.84l.6.33c.92.5 1.2 1.7.6 2.57l-.39.56c-.43.62-.42 1.44.01 2.05l.41.56c.61.86.35 2.06-.56 2.57zm-15.64-3.63a2.7 2.7 0 0 0 2.67-2.72 2.7 2.7 0 0 0-2.67-2.73 2.7 2.7 0 0 0-2.68 2.73 2.7 2.7 0 0 0 2.68 2.72zm7.53-4.31a.67.67 0 0 0-.08-.93.65.65 0 0 0-.92.09l-7.02 8.6c-.23.28-.19.7.09.94.27.23.69.19.92-.09zm2.2 6.17a2.7 2.7 0 0 0-2.68-2.72 2.69 2.69 0 0 0-2.67 2.72 2.7 2.7 0 0 0 2.67 2.72 2.7 2.7 0 0 0 2.68-2.72z"/></defs><g transform="translate(-661 -103)"><use xlink:href="#a"/></g><g transform="translate(-661 -103)"><use xlink:href="#b"/></g><g transform="translate(-661 -103)"><use xlink:href="#c"/></g></svg>