<svg xmlns="http://www.w3.org/2000/svg" xmlns:xlink="http://www.w3.org/1999/xlink" width="26" height="18" viewBox="0 0 26 18"><defs><path id="a" d="M890.73 114.52l.07-.01 2.31 8.49h17.78l2.31-8.49.07.01c.95 0 1.73-.79 1.73-1.76s-.78-1.76-1.73-1.76c-.96 0-1.73.79-1.73 1.76 0 .19.03.37.08.54l-4.17 2.48-4.49-7.56c.46-.31.77-.85.77-1.46 0-.97-.77-1.76-1.73-1.76-.95 0-1.73.79-1.73 1.76 0 .61.31 1.15.78 1.46l-4.49 7.56-4.18-2.48a1.75 1.75 0 0 0-1.65-2.3c-.95 0-1.73.79-1.73 1.76s.78 1.76 1.73 1.76z"/></defs><g opacity=".4" transform="translate(-889 -105)"><use xlink:href="#a"/></g></svg>