<svg xmlns="http://www.w3.org/2000/svg" xmlns:xlink="http://www.w3.org/1999/xlink" width="26" height="27" viewBox="0 0 26 27"><defs><path id="a" d="M800.15 120.41l-.73.41a1.66 1.66 0 0 0-.82 1.74l.15.84c.19.98-.53 1.9-1.5 1.95l-.85.05c-.7.05-1.29.53-1.48 1.22l-.22.82a1.63 1.63 0 0 1-2.2 1.09l-.78-.32a1.64 1.64 0 0 0-1.86.44l-.55.65c-.64.75-1.79.76-2.44.02l-.57-.64a1.61 1.61 0 0 0-1.86-.41l-.77.34c-.9.39-1.94-.1-2.21-1.06l-.24-.82c-.2-.68-.8-1.16-1.5-1.19l-.84-.04a1.64 1.64 0 0 1-1.54-1.92l.14-.84a1.64 1.64 0 0 0-.84-1.72l-.75-.41a1.66 1.66 0 0 1-.56-2.41l.5-.7c.4-.59.4-1.36-.02-1.93l-.49-.69c-.58-.8-.34-1.94.52-2.42l.74-.42c.61-.34.94-1.04.81-1.74l-.15-.84a1.64 1.64 0 0 1 1.51-1.94l.84-.05c.7-.04 1.29-.53 1.48-1.22l.23-.82a1.64 1.64 0 0 1 2.2-1.1l.78.33a1.6 1.6 0 0 0 1.85-.45l.55-.64a1.62 1.62 0 0 1 2.45-.02l.56.64c.47.53 1.22.69 1.86.41l.78-.34c.9-.39 1.93.1 2.21 1.06l.23.82c.2.68.8 1.17 1.5 1.19l.84.04c.99.04 1.71.95 1.55 1.92l-.15.85c-.12.7.22 1.39.84 1.73l.74.4c.87.48 1.14 1.6.57 2.41l-.49.7c-.4.58-.4 1.36.02 1.93l.5.69c.57.8.33 1.94-.54 2.41zm-3.99-4.06a8.2 8.2 0 0 0-8.16-8.25 8.2 8.2 0 0 0-8.16 8.25 8.2 8.2 0 0 0 8.16 8.26c4.5 0 8.16-3.7 8.16-8.26z"/><path id="b" d="M792.83 114.48l-2.95-.22-1.11-2.86a.6.6 0 0 0-1.14 0l-1.11 2.86-2.94.22c-.56.04-.78.77-.36 1.14l2.25 1.98-.7 3c-.14.56.45 1.01.92.7l2.51-1.62 2.5 1.62c.47.31 1.06-.14.93-.7l-.71-3 2.25-1.98c.44-.37.21-1.1-.34-1.14z"/></defs><g transform="translate(-775 -103)"><use xlink:href="#a"/></g><g transform="translate(-775 -103)"><use xlink:href="#b"/></g></svg>