<svg xmlns="http://www.w3.org/2000/svg" xmlns:xlink="http://www.w3.org/1999/xlink" width="26" height="26" viewBox="0 0 26 26"><defs><path id="a" d="M743.1 120.92l-.59.32c-.65.35-1 1.07-.86 1.79l.12.65c.19 1-.56 1.94-1.6 1.99l-.68.04a1.7 1.7 0 0 0-1.56 1.24l-.18.65a1.74 1.74 0 0 1-2.33 1.12l-.63-.26a1.75 1.75 0 0 0-1.96.46l-.44.5c-.68.77-1.9.78-2.59.02l-.45-.5a1.75 1.75 0 0 0-1.97-.42l-.63.26c-.95.4-2.05-.11-2.34-1.08l-.19-.65a1.7 1.7 0 0 0-1.58-1.22l-.68-.02a1.7 1.7 0 0 1-1.63-1.98l.11-.66a1.67 1.67 0 0 0-.88-1.77l-.61-.32a1.68 1.68 0 0 1-.59-2.47l.39-.54c.43-.59.42-1.38-.02-1.97l-.4-.54a1.68 1.68 0 0 1 .56-2.48l.6-.32a1.7 1.7 0 0 0 .86-1.79l-.13-.65a1.7 1.7 0 0 1 1.6-1.99l.68-.04a1.71 1.71 0 0 0 1.57-1.24l.18-.65a1.73 1.73 0 0 1 2.32-1.12l.63.26c.68.27 1.47.09 1.96-.46l.45-.5a1.74 1.74 0 0 1 2.59-.01l.45.49c.5.54 1.29.72 1.97.43l.63-.27c.95-.4 2.05.11 2.34 1.09l.19.64c.2.7.84 1.19 1.58 1.22l.68.03a1.7 1.7 0 0 1 1.63 1.97l-.11.66c-.13.72.23 1.43.88 1.78l.61.31c.91.48 1.19 1.64.59 2.47l-.39.54c-.43.59-.42 1.39.02 1.98l.4.53c.61.83.35 1.99-.57 2.48zm-9.96-4.61c-.61-.32-1.24-.57-1.87-.82a4.3 4.3 0 0 1-1.03-.57c-.61-.47-.49-1.25.22-1.55.2-.08.41-.12.63-.13.83-.04 1.61.11 2.36.46.37.18.5.12.62-.26l.37-1.21c.08-.28-.03-.46-.29-.57a5.94 5.94 0 0 0-1.49-.44c-.67-.1-.67-.1-.67-.77-.01-.93-.01-.93-.97-.93h-.41c-.46.01-.53.09-.54.53v.59c-.01.59-.01.58-.58.79-1.39.49-2.25 1.42-2.34 2.9-.08 1.32.62 2.2 1.72 2.85.68.4 1.43.64 2.15.95.28.12.55.26.78.45.7.56.57 1.49-.25 1.84-.45.19-.91.24-1.39.18a6.5 6.5 0 0 1-2.1-.61c-.38-.2-.49-.14-.63.27-.12.35-.21.71-.32 1.07-.13.48-.08.6.39.82a6.4 6.4 0 0 0 1.89.53c.51.08.52.1.53.62v.71c.01.29.15.47.47.47h1.06c.29 0 .44-.15.44-.44 0-.32.02-.65 0-.97-.02-.33.13-.5.45-.58.74-.2 1.37-.59 1.86-1.17 1.35-1.61.83-3.96-1.06-5.01z"/></defs><g opacity=".4" transform="translate(-718 -104)"><use xlink:href="#a"/></g></svg>