<svg xmlns="http://www.w3.org/2000/svg" xmlns:xlink="http://www.w3.org/1999/xlink" width="40" height="30" viewBox="0 0 40 30"><defs><path id="a" d="M468.79 234.74a2.86 2.86 0 0 1 2.85-2.85h3.55c.52 0 .94-.42.94-.94a.96.96 0 0 1 1.91 0 2.86 2.86 0 0 1-2.85 2.85h-3.55a.94.94 0 1 0 0 1.88h8.6a2.84 2.84 0 1 1 0 5.69h-6.63a.94.94 0 0 0-.94.94v1.89c0 .53-.43.95-.95.95a.95.95 0 0 1-.96-.95v-1.89a2.86 2.86 0 0 1 2.85-2.85h6.63a.94.94 0 1 0 0-1.88h-8.6a2.85 2.85 0 0 1-2.85-2.84zm14.11 24.04c0 .53-.42.96-.95.96h-37a.96.96 0 0 1 0-1.91h1.37v-2.95c0-4.15 1.63-8.06 4.58-11.02a15.51 15.51 0 0 1 9.33-4.49v-1.46a3.28 3.28 0 0 1 6.55 0v1.46c.59.06 1.18.16 1.76.29.51.12.84.63.72 1.15a.95.95 0 0 1-1.14.71c-.99-.22-2.01-.34-3.04-.34h-3.15c-7.56 0-13.7 6.15-13.7 13.7v2.95h30.56v-2.95c0-3.73-1.5-7.23-4.2-9.84a.95.95 0 1 1 1.32-1.37 15.47 15.47 0 0 1 4.78 11.21v2.95h1.26c.53 0 .95.43.95.95zm-18.03-19.5v-1.37c0-.75-.61-1.37-1.36-1.37-.76 0-1.37.62-1.37 1.37v1.37zm-2.59 3.67a.96.96 0 0 1 0 1.91c-5.41 0-9.96 4.39-10.35 10a.95.95 0 0 1-.95.89l-.06-.01a.94.94 0 0 1-.89-1.01c.46-6.61 5.84-11.78 12.25-11.78z"/></defs><g transform="translate(-443 -230)"><use fill="#fff" xlink:href="#a"/></g></svg>