<svg xmlns="http://www.w3.org/2000/svg" xmlns:xlink="http://www.w3.org/1999/xlink" width="33" height="29" viewBox="0 0 33 29"><defs><path id="a" d="M1464.35 215.05v8.73l-.04.12a7.22 7.22 0 0 1-1.4 2.51 7.03 7.03 0 0 1-5.58 2.49c-2.89 0-4.29-1.26-5.53-2.37-1.02-.91-1.9-1.7-3.63-1.89-1.73.19-2.61.98-3.63 1.89-1.24 1.11-2.64 2.37-5.53 2.37a7.02 7.02 0 0 1-5.57-2.49 7.22 7.22 0 0 1-1.4-2.51l-.04-.12v-8.73l.6-.24a24.47 24.47 0 0 1 9.2-1.82c-1.4-1.85-1.64-4.02-1.66-4.13l-.12-1.16 1.17.12c.09.01 2.08.23 3.87 1.47v-.2c0-3.86 2.26-6.94 2.35-7.07l.76-1.02.76 1.02c.1.13 2.36 3.21 2.36 7.07v.2a9.1 9.1 0 0 1 3.87-1.47l1.16-.12-.12 1.16a9.05 9.05 0 0 1-1.65 4.13 24.5 24.5 0 0 1 9.2 1.82zm-14.08-1.31a6.1 6.1 0 0 0 2.33-1.39c.7-.7 1.12-1.58 1.37-2.3a5.98 5.98 0 0 0-2.68 1.81c-.28.36-.43.63-.64 1.07l-.05-.02-.33.83zm-3.32-4.65c0 1.86.66 3.56 1.22 4.65a10.5 10.5 0 0 0 1.22-4.65c0-1.88-.66-3.57-1.22-4.66a10.6 10.6 0 0 0-1.22 4.66zm-4.58.96c.25.72.68 1.6 1.38 2.3.71.71 1.6 1.14 2.32 1.39a13.1 13.1 0 0 1-.32-.83l-.06.02a4.71 4.71 0 0 0-1.01-1.5 6.08 6.08 0 0 0-2.31-1.38zm20.08 6.29c-4.2-1.56-7.87-1.67-9.8-1.26a13.31 13.31 0 0 0-3.56 1.34l-.6.33-.32.17-.31-.17-.61-.33a12.89 12.89 0 0 0-3.55-1.34c-1.93-.41-5.6-.3-9.8 1.26v7.16c.21.61 1.42 3.5 5.11 3.5 2.17 0 3.14-.87 4.27-1.88 1.12-1.01 2.39-2.15 4.8-2.38l.09-.01.09.01c2.41.23 3.69 1.37 4.81 2.38 1.13 1.01 2.1 1.88 4.26 1.88 3.69 0 4.9-2.88 5.12-3.5z"/><path id="b" d="M1461.31 219.41l-.48.71c-1.29 1.9-2.86 2.98-4.68 3.22-.25.03-.5.05-.75.05-2.62 0-4.68-1.76-4.78-1.84l-.62-.54.45-.69c.07-.11 1.85-2.8 4.81-3.25 1.81-.28 3.62.32 5.39 1.79zm-2.6.37a4.47 4.47 0 0 0-3.15-.84 5.26 5.26 0 0 0-2.94 1.7c.75.45 1.99 1 3.3.82a4.46 4.46 0 0 0 2.79-1.68z"/><path id="c" d="M1446.31 221.01l-.62.54c-.1.08-2.16 1.84-4.78 1.84-.25 0-.5-.02-.75-.05-1.81-.24-3.39-1.32-4.68-3.22l-.48-.71.66-.55c1.77-1.47 3.58-2.07 5.39-1.79 2.97.45 4.74 3.14 4.81 3.25zm-2.62-.37a5.26 5.26 0 0 0-2.94-1.7 4.43 4.43 0 0 0-3.15.84 4.46 4.46 0 0 0 2.81 1.68c1.3.17 2.53-.37 3.28-.82z"/></defs><g transform="translate(-1432 -201)"><use fill="#fff" xlink:href="#a"/></g><g transform="translate(-1432 -201)"><use fill="#fff" xlink:href="#b"/></g><g transform="translate(-1432 -201)"><use fill="#fff" xlink:href="#c"/></g></svg>