<svg xmlns="http://www.w3.org/2000/svg" xmlns:xlink="http://www.w3.org/1999/xlink" width="35" height="36" viewBox="0 0 35 36"><defs><path id="a" d="M956.76 242.77c-.04.1-.1.18-.17.24l-.01.01-16.65 18.77a.68.68 0 0 1-.52.23.68.68 0 0 1-.51-.23l-16.66-18.77v-.01a.55.55 0 0 1-.18-.24.7.7 0 0 1 .11-.74l6.01-6.8a.68.68 0 0 1 .52-.23h21.43c.19 0 .38.08.51.23l6.01 6.8c.18.21.23.5.11.74zm-15.83-6.39l4.91 4.94 3.06-4.94zm-1.52.42l-4.96 5h9.93zm-9.49-.42l3.06 4.94 4.91-4.94zm-5.7 5.42h7.44l-3.07-4.95zM938 258.7l-5.63-15.52h-8.14zm16.6-15.52h-20.76l5.58 15.39 4.07-11.01a.69.69 0 0 1 .88-.41.7.7 0 0 1 .41.89l-3.93 10.64zm.01-1.38l-4.38-4.95-3.07 4.95z"/><path id="b" d="M939.69 227a.7.7 0 0 0-.69.69v3.55a.7.7 0 0 0 1.38 0v-3.55a.7.7 0 0 0-.69-.69z"/><path id="c" d="M945.69 230.2a.7.7 0 0 0-.98 0l-2.51 2.51a.7.7 0 0 0 0 .98c.14.13.31.2.49.2s.35-.07.49-.2l2.51-2.51a.7.7 0 0 0 0-.98z"/><path id="d" d="M936.69 232.71l-2.51-2.51a.7.7 0 0 0-.98.98l2.51 2.51c.14.13.31.2.49.2s.35-.07.49-.2a.7.7 0 0 0 0-.98z"/><path id="e" d="M944 245.69a.69.69 0 1 1 1.38 0 .69.69 0 0 1-1.38 0z"/></defs><g transform="translate(-922 -227)"><use fill="#fcbf5b" xlink:href="#a"/></g><g transform="translate(-922 -227)"><use fill="#fcbf5b" xlink:href="#b"/></g><g transform="translate(-922 -227)"><use fill="#fcbf5b" xlink:href="#c"/></g><g transform="translate(-922 -227)"><use fill="#fcbf5b" xlink:href="#d"/></g><g transform="translate(-922 -227)"><use fill="#fcbf5b" xlink:href="#e"/></g></svg>