<svg xmlns="http://www.w3.org/2000/svg" xmlns:xlink="http://www.w3.org/1999/xlink" width="18" height="16" viewBox="0 0 18 16"><defs><path id="a" d="M1033.68 1085.77c-5.3-5.32-4.67-9.4-4.64-9.58a.18.18 0 0 1 .12-.13c.02 0 .28-.06.76-.06 1.45 0 4.47.51 8.32 3.96.67.6 1.27 1.21 1.79 1.81l2.75.49c.03 0 .06.02.09.05l2.08 2.2c.04.04.06.1.05.15a.22.22 0 0 1-.11.12l-2.69.98c.17.93.01 1.54-.08 1.79l1.05.96c.03.03.05.08.05.12 0 .05-.01.09-.05.12l-.78.83a.18.18 0 0 1-.23.02l-1.05-.88c-.43.29-.94.43-1.52.4l-.8 2.76c-.02.05-.06.1-.11.11l-.05.01a.15.15 0 0 1-.11-.04l-2.32-1.94a.16.16 0 0 1-.06-.08l-.75-2.73c-1-.75-1.71-1.44-1.71-1.44zm3.63-3.21a1.67 1.67 0 1 0-3.35 0 1.67 1.67 0 0 0 3.35 0z"/><path id="b" d="M1046.95 1090.21l-2.59-2.17c-.06-.05-.15-.05-.22-.02l-1.06.58a.2.2 0 0 0-.08.12c0 .04.01.09.05.12l3.64 3.11c.04.03.08.05.13.05l.07-.01c.07-.03.11-.08.11-.15v-1.51a.17.17 0 0 0-.05-.12z"/></defs><g transform="translate(-1029 -1076)"><use fill="#fff" xlink:href="#a"/></g><g transform="translate(-1029 -1076)"><use fill="#fff" xlink:href="#b"/></g></svg>