<svg xmlns="http://www.w3.org/2000/svg" xmlns:xlink="http://www.w3.org/1999/xlink" width="18" height="16" viewBox="0 0 18 16"><defs><path id="a" d="M583 1080.7c0-2.04 1.61-3.7 3.6-3.7s3.6 1.66 3.6 3.7c0 2.05-1.61 3.71-3.6 3.71a3.65 3.65 0 0 1-3.6-3.7z"/><path id="b" d="M586.53 1086a6.63 6.63 0 0 0-6.53 6.72h13.05a6.62 6.62 0 0 0-6.52-6.72z"/><path id="c" d="M591.6 1077c1.99 0 3.6 1.66 3.6 3.7 0 2.05-1.61 3.71-3.6 3.71a3.5 3.5 0 0 1-1.5-.34 3.71 3.71 0 0 0 2.1-3.36c0-1.5-.86-2.79-2.1-3.37a3.5 3.5 0 0 1 1.5-.34zm6.25 15.98h-2.64a6.67 6.67 0 0 0-5.21-6.57c.43-.1.87-.14 1.32-.14 3.6 0 6.53 3 6.53 6.71z"/></defs><g transform="translate(-580 -1077)"><use fill="#fff" xlink:href="#a"/></g><g transform="translate(-580 -1077)"><use fill="#fff" xlink:href="#b"/></g><g transform="translate(-580 -1077)"><use fill="#fff" xlink:href="#c"/></g></svg>