<svg xmlns="http://www.w3.org/2000/svg" xmlns:xlink="http://www.w3.org/1999/xlink" width="33" height="33" viewBox="0 0 33 33"><defs><path id="a" d="M634.18 217.76c-.1.1-.15.24-.12.38l1.23 7.15c.14.82-.19 1.63-.87 2.12a2.1 2.1 0 0 1-1.27.42c-.34 0-.69-.09-1.01-.25l-6.42-3.38a.4.4 0 0 0-.4 0l-6.43 3.38a2.16 2.16 0 0 1-3.14-2.29l1.23-7.15a.42.42 0 0 0-.13-.38l-5.19-5.07a2.14 2.14 0 0 1-.55-2.22c.25-.79.92-1.35 1.75-1.47l7.18-1.05a.43.43 0 0 0 .32-.23l3.22-6.51a2.13 2.13 0 0 1 1.94-1.21c.83 0 1.57.46 1.94 1.21l3.21 6.51c.07.12.19.21.33.23l7.18 1.05a2.16 2.16 0 0 1 1.2 3.69zm-1.21-1.24l5.2-5.07a.4.4 0 0 0 .11-.44.42.42 0 0 0-.35-.3l-7.18-1.04a2.17 2.17 0 0 1-1.63-1.19l-3.21-6.51a.44.44 0 0 0-.39-.24.44.44 0 0 0-.39.24l-3.21 6.51a2.2 2.2 0 0 1-1.63 1.19l-7.19 1.04a.4.4 0 0 0-.34.3.4.4 0 0 0 .1.44l5.2 5.07c.51.49.75 1.21.62 1.91l-1.22 7.16c-.04.24.1.37.17.42.07.05.24.15.46.03l6.42-3.38a2.24 2.24 0 0 1 2.02 0l6.42 3.38c.22.12.39.02.46-.03a.43.43 0 0 0 .17-.42l-1.23-7.16c-.12-.7.11-1.42.62-1.91z"/><path id="b" d="M635.29 201.17a.86.86 0 0 0-1.21.19l-.91 1.26c-.29.39-.2.93.19 1.21.15.11.33.17.51.17.26 0 .53-.13.7-.36l.92-1.26a.87.87 0 0 0-.2-1.21z"/><path id="c" d="M617.49 202.62l-.92-1.26a.86.86 0 0 0-1.21-.19.84.84 0 0 0-.19 1.2l.91 1.27a.9.9 0 0 0 .71.36c.17 0 .35-.06.5-.17a.87.87 0 0 0 .2-1.21z"/><path id="d" d="M612.18 219.6a.86.86 0 0 0-1.09-.56l-1.49.49a.86.86 0 0 0-.56 1.09c.12.36.46.6.83.6.08 0 .17-.02.26-.05l1.49-.48c.46-.15.7-.64.56-1.09z"/><path id="e" d="M625.87 229a.87.87 0 0 0-.87.87v1.56c0 .48.39.87.87.87.47 0 .86-.39.86-.87v-1.56a.87.87 0 0 0-.86-.87z"/><path id="f" d="M641.62 219.53l-1.49-.49a.86.86 0 0 0-1.09.56c-.15.45.1.94.56 1.09l1.49.48a.8.8 0 0 0 .26.05.86.86 0 0 0 .27-1.69z"/></defs><g transform="translate(-609 -200)"><use fill="#fff" xlink:href="#a"/></g><g transform="translate(-609 -200)"><use fill="#fff" xlink:href="#b"/></g><g transform="translate(-609 -200)"><use fill="#fff" xlink:href="#c"/></g><g transform="translate(-609 -200)"><use fill="#fff" xlink:href="#d"/></g><g transform="translate(-609 -200)"><use fill="#fff" xlink:href="#e"/></g><g transform="translate(-609 -200)"><use fill="#fff" xlink:href="#f"/></g></svg>