<svg xmlns="http://www.w3.org/2000/svg" xmlns:xlink="http://www.w3.org/1999/xlink" width="15" height="16" viewBox="0 0 15 16"><defs><path id="a" d="M439 614.32a.6.6 0 0 1 .52-.32.6.6 0 0 1 .52.32l1.87 3.8a.6.6 0 0 0 .44.32l4.19.6c.22.04.4.19.47.4.07.21.01.44-.15.6l-3.03 2.95a.59.59 0 0 0-.17.52l.72 4.17a.58.58 0 0 1-.23.57.6.6 0 0 1-.62.04l-3.74-1.97a.57.57 0 0 0-.54 0l-3.75 1.97a.58.58 0 0 1-.61-.04.58.58 0 0 1-.23-.57l.71-4.17a.58.58 0 0 0-.16-.52l-3.03-2.95a.59.59 0 0 1-.15-.6.6.6 0 0 1 .47-.4l4.19-.6a.57.57 0 0 0 .43-.32z"/></defs><g transform="translate(-432 -613)"><use fill="#ffec00" xlink:href="#a"/></g></svg>