<svg xmlns="http://www.w3.org/2000/svg" xmlns:xlink="http://www.w3.org/1999/xlink" width="27" height="31" viewBox="0 0 27 31"><defs><path id="a" d="M1244.41 220.64h-1.74a1.15 1.15 0 0 1 0-2.3h3.07a.76.76 0 1 0 0-1.52h-1.44v-1.06a.76.76 0 1 0-1.52 0v1.06h-.11a2.68 2.68 0 0 0 0 5.34h1.74a1.14 1.14 0 1 1 0 2.29h-3.12a.76.76 0 1 0 0 1.52h1.49v1.09a.76.76 0 1 0 1.52 0v-1.09h.15a2.66 2.66 0 0 0-.04-5.33z"/><path id="b" d="M1256.2 225.59a5.92 5.92 0 0 1-5.91 5.91h-14.39a5.91 5.91 0 0 1-5.9-5.91c0-2.44.51-4.86 1.51-7.17.8-1.84 1.91-3.62 3.3-5.29a24.66 24.66 0 0 1 4.16-3.97l-3.49-5.27a.78.78 0 0 1 .09-.95 5.15 5.15 0 0 1 3.82-1.79c1.12 0 2.28.34 3.79.9.12.04.23.06.36.06.44 0 .98-.23 1.55-.46a6.26 6.26 0 0 1 2.46-.65c.99 0 1.88.4 2.71 1.22.25.23.3.6.14.9l-3.23 6a24.14 24.14 0 0 1 7.52 9.3c1 2.31 1.51 4.73 1.51 7.17zm-15.78-17.01h5.3l3.05-5.65a2.02 2.02 0 0 0-1.23-.42c-.6 0-1.22.26-1.87.53-.68.29-1.39.58-2.13.58-.31 0-.61-.05-.89-.15a9.9 9.9 0 0 0-3.26-.81c-.84 0-1.55.28-2.28.91zm14.24 17.01c0-4.07-1.48-7.92-4.42-11.45a22.82 22.82 0 0 0-4.3-4.04h-5.69c-.57.41-2.46 1.8-4.31 4.04-2.93 3.53-4.42 7.39-4.42 11.45a4.39 4.39 0 0 0 4.38 4.38h14.39a4.36 4.36 0 0 0 4.37-4.38z"/></defs><g transform="translate(-1230 -201)"><use fill="#fff" xlink:href="#a"/></g><g transform="translate(-1230 -201)"><use fill="#fff" xlink:href="#b"/></g></svg>