<svg xmlns="http://www.w3.org/2000/svg" xmlns:xlink="http://www.w3.org/1999/xlink" width="22" height="22" viewBox="0 0 22 22"><defs><path id="a" d="M1076 121a8 8 0 1 1 0-16 8 8 0 0 1 0 16zm6-8a6 6 0 1 0-12.01.01A6 6 0 0 0 1082 113z"/><path id="b" d="M1089.37 123.3l-5.31-5.3a10.15 10.15 0 0 1-3.06 3.06l5.3 5.31c.85.84 2.22.84 3.07 0 .84-.85.84-2.22 0-3.07z"/></defs><g opacity=".4" transform="translate(-1068 -105)"><use xlink:href="#a"/></g><g opacity=".4" transform="translate(-1068 -105)"><use xlink:href="#b"/></g></svg>