<svg xmlns="http://www.w3.org/2000/svg" xmlns:xlink="http://www.w3.org/1999/xlink" width="35" height="33" viewBox="0 0 35 33"><defs><path id="a" d="M1122.84 258.04c-.27.08-.54.14-.8.2a1.28 1.28 0 0 0-.98 1.64c.19.63.83 1.03 1.5.89.31-.06.64-.14.95-.22.69-.19 1.1-.9.92-1.59a1.3 1.3 0 0 0-1.59-.92z"/><path id="b" d="M1113.64 257.51l-.74-.36a1.3 1.3 0 0 0-1.84 1.52c.09.32.31.61.64.77.29.16.58.3.88.43a1.3 1.3 0 0 0 1.06-2.36z"/><path id="c" d="M1118.3 258.1c-.27-.02-.55-.05-.82-.09a1.3 1.3 0 0 0-1.43 1.66c.15.47.55.84 1.06.91l.98.11c.71.05 1.34-.48 1.4-1.19a1.31 1.31 0 0 0-1.19-1.4z"/><path id="d" d="M1126.32 256.23l-.69.45a1.3 1.3 0 0 0-.58 1.48c.04.1.08.2.14.29a1.3 1.3 0 0 0 1.77.45c.28-.17.56-.35.83-.54.59-.4.74-1.21.33-1.8a1.29 1.29 0 0 0-1.8-.33z"/><path id="e" d="M1131.6 252.24a1.3 1.3 0 0 0-1.8.3c-.16.22-.33.44-.51.65a1.31 1.31 0 0 0 .18 1.82 1.3 1.3 0 0 0 1.83-.18c.2-.25.41-.51.6-.78a1.3 1.3 0 0 0-.3-1.81z"/><path id="f" d="M1133.94 248.05a1.3 1.3 0 0 0-1.61.88l-.25.79a1.3 1.3 0 0 0 .78 1.66 1.3 1.3 0 0 0 1.66-.79c.11-.3.21-.62.3-.93a1.3 1.3 0 0 0-.88-1.61z"/><path id="g" d="M1136.14 239.58l-1.7.53a16.06 16.06 0 0 0-8.83-9.74h-.01a16.02 16.02 0 0 0-10.76-.79l-.36.11c-.2.05-.39.12-.58.18l-.07.03a15.92 15.92 0 0 0-7.82 5.85l-.02.02c-.19.27-.37.54-.54.82l-.03.05a15.98 15.98 0 0 0-2.29 10.47v.04a16.02 16.02 0 0 0 3.96 8.7 1.3 1.3 0 0 0 1.94-1.73 13.13 13.13 0 0 1-1.97-2.88l-.02-.03-.35-.75v-.01a13.5 13.5 0 0 1 4.45-16.24l.2-.15a13.46 13.46 0 0 1 8.51-2.44h.1c4.43.28 8.51 2.74 10.8 6.6v.01l.1.17.02.02c.43.77.8 1.59 1.09 2.46l-1.7.53c-.47.15-.52.49-.11.76l3.71 2.4c.41.27.91.11 1.1-.34l1.69-4.08c.19-.46-.04-.71-.51-.57z"/><path id="h" d="M1114.37 244.95c-1.25.92-2.1 1.73-2.55 2.41-.46.68-.73 1.4-.82 2.17h7.81v-2.12h-4.06c.24-.23.44-.42.62-.57.18-.14.53-.4 1.05-.76a7 7 0 0 0 1.83-1.71c.33-.52.5-1.07.5-1.64 0-.54-.15-1.02-.44-1.45a2.56 2.56 0 0 0-1.2-.97 5.8 5.8 0 0 0-2.14-.31 5.2 5.2 0 0 0-2.06.33c-.5.22-.88.53-1.16.95-.27.41-.46.98-.56 1.71l2.61.21c.07-.52.21-.89.43-1.1.21-.21.48-.32.81-.32.32 0 .59.11.8.31.21.2.31.44.31.73 0 .26-.1.54-.32.84-.21.29-.7.72-1.46 1.29z"/><path id="i" d="M1126.01 249.53h-2.27v-1.75H1119v-2.14l4.74-5.64h2.27v5.76h1.18v2.02h-1.18zm-4.77-3.77h2.5v-2.95z"/></defs><g transform="translate(-1102 -228)"><use fill="#fff" xlink:href="#a"/></g><g transform="translate(-1102 -228)"><use fill="#fff" xlink:href="#b"/></g><g transform="translate(-1102 -228)"><use fill="#fff" xlink:href="#c"/></g><g transform="translate(-1102 -228)"><use fill="#fff" xlink:href="#d"/></g><g transform="translate(-1102 -228)"><use fill="#fff" xlink:href="#e"/></g><g transform="translate(-1102 -228)"><use fill="#fff" xlink:href="#f"/></g><g transform="translate(-1102 -228)"><use fill="#fff" xlink:href="#g"/></g><g transform="translate(-1102 -228)"><use fill="#fff" xlink:href="#h"/></g><g transform="translate(-1102 -228)"><use fill="#fff" xlink:href="#i"/></g></svg>