<svg xmlns="http://www.w3.org/2000/svg" xmlns:xlink="http://www.w3.org/1999/xlink" width="29" height="32" viewBox="0 0 29 32"><defs><path id="a" d="M804 228.91a1 1 0 0 1-.26.76 1 1 0 0 1-.74.33h-26a1 1 0 0 1-.74-.33 1 1 0 0 1-.26-.76l2-22a1 1 0 0 1 1-.91h5v-2a6 6 0 0 1 12 0v2h5a1 1 0 0 1 1 .91zM786 206h8v-2a4 4 0 0 0-8 0zm15.9 22l-1.81-20H796v2.28c.6.34 1 .98 1 1.72a2 2 0 0 1-2 2 2 2 0 0 1-2-2c0-.74.4-1.38 1-1.72V208h-8v2.28c.6.34 1 .98 1 1.72a2 2 0 0 1-2 2 2 2 0 0 1-2-2c0-.74.4-1.38 1-1.72V208h-4.09l-1.81 20z"/></defs><g transform="translate(-776 -198)"><use fill="#fff" xlink:href="#a"/></g></svg>