<svg xmlns="http://www.w3.org/2000/svg" xmlns:xlink="http://www.w3.org/1999/xlink" width="41" height="41" viewBox="0 0 41 41"><defs><path id="a" d="M1675 248.5a20.5 20.5 0 1 1 41 0 20.5 20.5 0 1 1-41 0z"/><path id="c" d="M1707 245.16a1.88 1.88 0 0 1-2.47 1.76l-2.25 6.16V256h-13.63v-2.94l-2.3-6.3a1.88 1.88 0 0 1-2.35-1.79c0-1.02.85-1.85 1.9-1.85 1.05 0 1.9.83 1.9 1.85 0 .23-.05.46-.13.67l1.37.66 1.2-2.84 2.92 1.65 1.25-1.73c-.5-.34-.83-.9-.83-1.53 0-1.02.85-1.85 1.9-1.85 1.04 0 1.9.83 1.9 1.85 0 .64-.34 1.2-.84 1.53l1.26 1.75 2.96-1.67 1.19 2.81 1.32-.63a1.55 1.55 0 0 1-.07-.48c0-1.02.85-1.85 1.9-1.85 1.05 0 1.9.83 1.9 1.85zm-20.55-.19c0-.3-.24-.54-.55-.54-.3 0-.55.24-.55.54 0 .29.25.53.55.53.3 0 .55-.24.55-.53zm12.12 1.24l.9 1.25 1.27-.61-.64-1.5zm-3.65-4.36c0 .3.25.54.56.54.3 0 .55-.24.55-.54 0-.3-.25-.54-.55-.54a.55.55 0 0 0-.56.54zm-4.67 5.03l1.22.58.91-1.27-1.48-.84zm10.69 6.72H1690v1.09h10.94zm2.05-6.37l-3.96 1.9-3.56-4.94-3.56 4.94-3.96-1.9 1.85 5.06h11.34zm2.66-2.07c0-.3-.25-.54-.55-.54-.3 0-.55.24-.55.54 0 .29.24.53.55.53.3 0 .55-.24.55-.53z"/><linearGradient id="b" x1="1675" x2="1714.83" y1="241.44" y2="241.44" gradientUnits="userSpaceOnUse"><stop offset="0" stop-color="#ffc93e"/><stop offset="1" stop-color="#e98404"/></linearGradient></defs><g transform="translate(-1675 -228)"><use fill="url(#b)" xlink:href="#a"/></g><g transform="translate(-1675 -228)"><use fill="#794b00" xlink:href="#c"/></g></svg>