<svg xmlns="http://www.w3.org/2000/svg" xmlns:xlink="http://www.w3.org/1999/xlink" width="41" height="41" viewBox="0 0 41 41"><defs><path id="a" d="M1726 248.5a20.5 20.5 0 1 1 41 0 20.5 20.5 0 1 1-41 0z"/><path id="c" d="M1752.77 250.76a.3.3 0 0 0-.09.28l.88 5.14c.11.59-.13 1.17-.62 1.52a1.58 1.58 0 0 1-1.65.12l-4.64-2.43a.32.32 0 0 0-.3 0l-4.64 2.43c-.53.28-1.17.23-1.65-.12a1.51 1.51 0 0 1-.62-1.52l.88-5.14a.3.3 0 0 0-.09-.28l-3.76-3.64a1.52 1.52 0 0 1-.39-1.59c.18-.57.67-.98 1.26-1.06l5.2-.75c.1-.02.19-.08.23-.17l2.33-4.68c.26-.54.8-.87 1.4-.87.6 0 1.14.33 1.4.87l2.33 4.68c.04.09.13.15.23.17l5.2.75c.59.08 1.08.49 1.26 1.06.19.56.04 1.17-.39 1.59zm-.88-.89l3.76-3.64a.3.3 0 0 0 .08-.32.3.3 0 0 0-.25-.21l-5.2-.75a1.58 1.58 0 0 1-1.18-.85l-2.32-4.68a.3.3 0 0 0-.56 0l-2.32 4.68c-.23.46-.67.77-1.18.85l-5.2.75a.3.3 0 0 0-.25.21.3.3 0 0 0 .08.32l3.76 3.64c.37.36.54.87.45 1.38l-.89 5.14c-.03.17.08.27.13.3.04.04.17.11.32.03l4.65-2.43a1.58 1.58 0 0 1 1.46 0l4.65 2.43a.3.3 0 0 0 .33-.03.3.3 0 0 0 .12-.3l-.89-5.14c-.08-.51.08-1.02.45-1.38z"/><path id="d" d="M1753.73 239.11a.7.7 0 0 0-.91.13l-.7.84c-.21.26-.14.62.15.81.12.07.25.11.38.11.2 0 .4-.08.53-.24l.7-.84c.21-.26.14-.62-.15-.81z"/><path id="e" d="M1740.88 240.08l-.7-.84a.7.7 0 0 0-.91-.13c-.29.19-.36.55-.15.81l.7.84c.13.16.33.24.53.24.13 0 .26-.04.38-.11.29-.19.36-.55.15-.81z"/><path id="f" d="M1736.97 251.54c-.09-.41-.39-.63-.67-.5l-.93.43c-.28.14-.44.58-.34.99.07.33.28.54.51.54.05 0 .11-.01.16-.04l.93-.43c.28-.14.44-.58.34-.99z"/><path id="g" d="M1746.5 258c-.28 0-.5.35-.5.79v1.42c0 .44.22.79.5.79s.5-.35.5-.79v-1.42c0-.44-.22-.79-.5-.79z"/><path id="h" d="M1757.63 251.47l-.93-.43c-.28-.13-.58.09-.67.5-.1.41.06.85.34.99l.93.43c.05.03.11.04.16.04.23 0 .44-.21.51-.54.1-.41-.06-.85-.34-.99z"/><linearGradient id="b" x1="1726" x2="1765.83" y1="241.44" y2="241.44" gradientUnits="userSpaceOnUse"><stop offset="0" stop-color="#ffc93e"/><stop offset="1" stop-color="#e98404"/></linearGradient></defs><g transform="translate(-1726 -228)"><use fill="url(#b)" xlink:href="#a"/></g><g transform="translate(-1726 -228)"><use fill="#794b00" xlink:href="#c"/></g><g transform="translate(-1726 -228)"><use fill="#794b00" xlink:href="#d"/></g><g transform="translate(-1726 -228)"><use fill="#794b00" xlink:href="#e"/></g><g transform="translate(-1726 -228)"><use fill="#794b00" xlink:href="#f"/></g><g transform="translate(-1726 -228)"><use fill="#794b00" xlink:href="#g"/></g><g transform="translate(-1726 -228)"><use fill="#794b00" xlink:href="#h"/></g></svg>