<svg xmlns="http://www.w3.org/2000/svg" xmlns:xlink="http://www.w3.org/1999/xlink" width="41" height="41" viewBox="0 0 41 41"><defs><path id="a" d="M1624 248.5a20.5 20.5 0 1 1 41 0 20.5 20.5 0 1 1-41 0z"/><path id="c" d="M1655.98 240.86a9.4 9.4 0 0 1-4.89 6.68c-.24.55-.51 1.08-.8 1.57a7.47 7.47 0 0 1-3.39 3.14 2.64 2.64 0 0 0 2.09 2.85h.01c.26.06.46.29.46.56v2.66h1.1c.99 0 1.79.77 1.79 1.73v1.37a.6.6 0 0 1-.6.58h-13.45a.59.59 0 0 1-.59-.58v-1.37c0-.96.8-1.73 1.78-1.73h1.11v-2.66c0-.27.19-.5.45-.56h.01a2.66 2.66 0 0 0 2.1-2.83 7.42 7.42 0 0 1-3.45-3.16c-.29-.49-.56-1.02-.8-1.57a9.4 9.4 0 0 1-4.89-6.68c-.08-.52.07-1.05.42-1.45.35-.4.87-.64 1.42-.64h1.79v-.54c0-.68.57-1.23 1.26-1.23h12.18c.69 0 1.26.55 1.26 1.23v.54h1.79c.55 0 1.07.24 1.42.64.35.4.5.93.42 1.45zm-17.69 4.9c-.42-1.48-.64-3.1-.64-4.77v-1.06h-1.79c-.2 0-.39.08-.51.23a.61.61 0 0 0-.15.51 8.13 8.13 0 0 0 3.09 5.09zm12.27 13.71h-11.07a.59.59 0 0 0-.59.58v.79h12.26v-.79a.6.6 0 0 0-.6-.58zm-8.77-3.23v2.08h6.48v-2.08zm1.56-1.16h3.37a3.67 3.67 0 0 1-1.02-2.5 5.5 5.5 0 0 1-1.34.01 3.74 3.74 0 0 1-1.01 2.49zm7.81-14.09v-2.76a.07.07 0 0 0-.07-.07h-12.18a.07.07 0 0 0-.07.07v2.76c0 2.85.68 5.53 1.9 7.53 1.16 1.9 2.67 2.95 4.26 2.95 1.59 0 3.1-1.05 4.26-2.95 1.22-2 1.9-4.68 1.9-7.53zm3.49-.83a.65.65 0 0 0-.51-.23h-1.79v1.06c0 1.67-.22 3.29-.64 4.77a8.16 8.16 0 0 0 3.09-5.09.61.61 0 0 0-.15-.51z"/><path id="d" d="M1648.06 243.16l-1.29 1.23.3 1.75a.57.57 0 0 1-.23.57.66.66 0 0 1-.35.11.58.58 0 0 1-.28-.07l-1.59-.82-1.6.82a.6.6 0 0 1-.62-.04.6.6 0 0 1-.24-.57l.31-1.75-1.29-1.23a.57.57 0 1 1 .33-.99l1.78-.26.8-1.59a.6.6 0 0 1 1.06 0l.8 1.59 1.78.26c.22.03.41.18.48.39.07.21.01.44-.15.6zm-1.68-.01l-.91-.13a.62.62 0 0 1-.45-.32l-.4-.81-.41.81a.59.59 0 0 1-.44.32l-.91.13.66.62c.14.14.2.33.17.52l-.16.89.81-.42a.55.55 0 0 1 .28-.07c.09 0 .19.02.27.07l.81.42-.15-.89a.6.6 0 0 1 .17-.52z"/><linearGradient id="b" x1="1624" x2="1663.83" y1="241.44" y2="241.44" gradientUnits="userSpaceOnUse"><stop offset="0" stop-color="#ffc93e"/><stop offset="1" stop-color="#e98404"/></linearGradient></defs><g transform="translate(-1624 -228)"><use fill="url(#b)" xlink:href="#a"/></g><g transform="translate(-1624 -228)"><use fill="#794b00" xlink:href="#c"/></g><g transform="translate(-1624 -228)"><use fill="#794b00" xlink:href="#d"/></g></svg>