<svg xmlns="http://www.w3.org/2000/svg" xmlns:xlink="http://www.w3.org/1999/xlink" width="30" height="30" viewBox="0 0 30 30"><defs><path id="a" d="M1566.98 247.49c0 3.87-1.51 7.51-4.25 10.24a14.36 14.36 0 0 1-10.24 4.25c-3.87 0-7.51-1.51-10.24-4.25a14.36 14.36 0 0 1-4.25-10.24c0-3.87 1.51-7.51 4.25-10.24a14.36 14.36 0 0 1 10.24-4.25c3.87 0 7.51 1.51 10.24 4.25a14.36 14.36 0 0 1 4.25 10.24zm-4.86-9.01c-.92.82-1.92 1.51-2.99 2.06.55 1.91.87 4.06.92 6.3h5.62a13.17 13.17 0 0 0-3.55-8.36zm-8.98 9.66v4.75c1.66.08 3.28.43 4.79 1.04.49-1.76.78-3.73.82-5.79zm2.92-13.35c.7.7 1.34 1.61 1.9 2.72.28.56.54 1.15.76 1.78.88-.48 1.71-1.04 2.46-1.71a13.06 13.06 0 0 0-5.12-2.79zm-2.92 6.04c1.53-.08 3.02-.41 4.41-.99-.22-.62-.47-1.2-.75-1.75-1.03-2.04-2.31-3.29-3.66-3.59zm4.8.26c-1.52.61-3.13.97-4.8 1.05v4.71h5.61a24.18 24.18 0 0 0-.81-5.76zm-6.11 5.75v-4.71a14.43 14.43 0 0 1-4.79-1.05 23.28 23.28 0 0 0-.81 5.76zm-3.65-8.75c-.27.55-.52 1.13-.74 1.75 1.38.58 2.87.91 4.41.99v-6.33c-1.36.3-2.64 1.55-3.67 3.59zm-4.38-.51c.76.67 1.59 1.23 2.46 1.71.23-.63.49-1.22.77-1.78a10.7 10.7 0 0 1 1.9-2.72 13.1 13.1 0 0 0-5.13 2.79zm-4.48 9.26h5.62c.04-2.24.36-4.38.91-6.3a14.4 14.4 0 0 1-2.98-2.06 13.17 13.17 0 0 0-3.55 8.36zm0 1.3a13.12 13.12 0 0 0 3.57 8.38c.91-.82 1.91-1.5 2.98-2.05a24.78 24.78 0 0 1-.93-6.33zm9.61 12.05c-.7-.7-1.34-1.61-1.9-2.72-.28-.55-.53-1.13-.76-1.74-.87.47-1.69 1.03-2.44 1.7a13.05 13.05 0 0 0 5.1 2.76zm2.92.29v-6.29a13.1 13.1 0 0 0-4.4.98c.22.61.46 1.19.73 1.72 1.03 2.04 2.31 3.29 3.67 3.59zm0-7.59v-4.75h-5.62c.05 2.06.33 4.03.82 5.79 1.52-.61 3.13-.97 4.8-1.04zm1.3 7.59c1.35-.3 2.63-1.55 3.66-3.59.27-.53.51-1.11.73-1.72-1.38-.57-2.87-.9-4.39-.98zm2.91-.29a13.05 13.05 0 0 0 5.11-2.77 13.59 13.59 0 0 0-2.45-1.7c-.23.61-.48 1.2-.75 1.74a10.61 10.61 0 0 1-1.91 2.73zm6.05-3.67a13.22 13.22 0 0 0 3.57-8.38h-5.62a24.78 24.78 0 0 1-.93 6.33c1.07.55 2.07 1.24 2.98 2.05z"/></defs><g transform="translate(-1537 -232)"><use fill="#fff" xlink:href="#a"/></g></svg>