<svg xmlns="http://www.w3.org/2000/svg" xmlns:xlink="http://www.w3.org/1999/xlink" width="21" height="29" viewBox="0 0 21 29"><defs><path id="a" d="M1392 919.5a3.5 3.5 0 1 1-7 0 3.5 3.5 0 0 1 7 0zm-1.37 0a2.13 2.13 0 1 0-4.26 0 2.13 2.13 0 1 0 4.26 0z"/><path id="b" d="M1394 919.5a3.5 3.5 0 1 1 7 0 3.5 3.5 0 0 1-7 0zm1.37 0a2.13 2.13 0 1 0 4.26 0 2.13 2.13 0 1 0-4.26 0z"/><path id="c" d="M1383 927.73v4.77c0 1.37.77 2.63 1.95 3.27v6.27a2.96 2.96 0 0 0 2.95 2.96h3.37a.74.74 0 0 0 0-1.47h-3.37a1.5 1.5 0 0 1-1.49-1.5v-6.73c0-.3-.19-.58-.48-.68a2.27 2.27 0 0 1-1.47-2.12v-4.77a2.26 2.26 0 0 1 2.25-2.26h3.18a.74.74 0 1 0 0-1.47h-3.18a3.73 3.73 0 0 0-3.71 3.73z"/><path id="d" d="M1394.66 924h5.68a3.7 3.7 0 0 1 3.66 3.72v4.77c0 1.38-.76 2.64-1.93 3.28v6.27c0 1.63-1.3 2.96-2.91 2.96h-3.32a2.94 2.94 0 0 1-2.91-2.96v-6.27a3.75 3.75 0 0 1-1.93-3.28v-4.77a3.7 3.7 0 0 1 3.66-3.72zm-2.21 3.72v4.78c0 .94.58 1.79 1.45 2.11.29.11.47.39.47.69v6.74c0 .82.66 1.49 1.47 1.49h3.33c.81 0 1.47-.67 1.47-1.49v-6.74c0-.31.19-.58.47-.69a2.27 2.27 0 0 0 1.45-2.12v-4.77c0-1.24-.99-2.25-2.22-2.25h-5.68a2.23 2.23 0 0 0-2.22 2.25z"/></defs><g transform="translate(-1383 -916)"><use fill="#794b00" xlink:href="#a"/></g><g transform="translate(-1383 -916)"><use fill="#794b00" xlink:href="#b"/></g><g transform="translate(-1383 -916)"><use fill="#794b00" xlink:href="#c"/></g><g transform="translate(-1383 -916)"><use fill="#794b00" xlink:href="#d"/></g></svg>