<svg xmlns="http://www.w3.org/2000/svg" xmlns:xlink="http://www.w3.org/1999/xlink" width="28" height="24" viewBox="0 0 28 24"><defs><path id="a" d="M1404.69 1943.43l-9.64 9.72a2.85 2.85 0 0 1-4.07 0l-9.71-9.78a7.85 7.85 0 0 1-2.27-5.54c0-2.09.81-4.06 2.27-5.54a7.7 7.7 0 0 1 5.5-2.29c2.07 0 4.02.81 5.49 2.29l.75.77.76-.77a7.7 7.7 0 0 1 11.05.07 7.94 7.94 0 0 1-.13 11.07zm-.9-10.06a6.25 6.25 0 0 0-9-.05l-2.94 2.96a.71.71 0 0 1-1.01 0 .74.74 0 0 1 0-1.03l1.16-1.17-.76-.76a6.26 6.26 0 0 0-8.95 0 6.38 6.38 0 0 0-1.85 4.51c0 1.7.66 3.31 1.85 4.51l9.71 9.79c.56.56 1.47.56 2.03 0l9.64-9.72a6.49 6.49 0 0 0 .12-9.04z"/><path id="b" d="M1404 1937.31a4.96 4.96 0 0 0-1.29-3.07c-.54-.58-1.21-1-1.94-1.22a.61.61 0 0 0-.75.46c-.09.34.1.7.42.8.53.16 1.02.46 1.41.88.56.6.89 1.39.94 2.23.02.34.28.61.6.61h.04c.34-.02.59-.33.57-.69z"/></defs><g transform="translate(-1379 -1930)"><use fill="#583904" xlink:href="#a"/></g><g transform="translate(-1379 -1930)"><use fill="#583904" xlink:href="#b"/></g></svg>