<svg xmlns="http://www.w3.org/2000/svg" xmlns:xlink="http://www.w3.org/1999/xlink" width="22" height="29" viewBox="0 0 22 29"><defs><path id="a" d="M1393 1364a.8.8 0 0 1-.59-.26c-.42-.46-10.41-11.4-10.41-17.44 0-6.23 4.93-11.3 11-11.3 6.06 0 11 5.07 11 11.3 0 6.04-9.99 16.98-10.41 17.44a.8.8 0 0 1-.59.26zm0-27.34a9.52 9.52 0 0 0-9.39 9.64c0 4.18 6.31 12.17 9.39 15.65 3.08-3.48 9.39-11.47 9.39-15.65a9.52 9.52 0 0 0-9.39-9.64z"/><path id="b" d="M1393.5 1350c-2.48 0-4.5-2.24-4.5-5s2.02-5 4.5-5 4.5 2.24 4.5 5-2.02 5-4.5 5zm0-8.27c-1.62 0-2.94 1.47-2.94 3.27s1.32 3.27 2.94 3.27c1.62 0 2.94-1.47 2.94-3.27s-1.32-3.27-2.94-3.27z"/></defs><g transform="translate(-1382 -1335)"><use fill="#794b00" xlink:href="#a"/></g><g transform="translate(-1382 -1335)"><use fill="#794b00" xlink:href="#b"/></g></svg>