<svg xmlns="http://www.w3.org/2000/svg" xmlns:xlink="http://www.w3.org/1999/xlink" width="28" height="28" viewBox="0 0 28 28"><defs><path id="a" d="M1391 1085a3.8 3.8 0 0 1-3.82-3.78v-6.4h-6.4a3.8 3.8 0 0 1-3.78-3.82 3.8 3.8 0 0 1 3.78-3.82h6.4v-6.4a3.8 3.8 0 0 1 3.82-3.78 3.8 3.8 0 0 1 3.82 3.78v6.4h6.4a3.8 3.8 0 0 1 3.78 3.82 3.8 3.8 0 0 1-3.78 3.82h-6.4v6.4a3.8 3.8 0 0 1-3.82 3.78zm-10.22-16.55a2.57 2.57 0 0 0-2.51 2.55 2.57 2.57 0 0 0 2.51 2.55h7.67v7.67a2.57 2.57 0 0 0 2.55 2.51 2.57 2.57 0 0 0 2.55-2.51v-7.67h7.67a2.57 2.57 0 0 0 2.51-2.55 2.57 2.57 0 0 0-2.51-2.55h-7.67v-7.67a2.57 2.57 0 0 0-2.55-2.51 2.57 2.57 0 0 0-2.55 2.51v7.67z"/></defs><g transform="translate(-1377 -1057)"><use fill="#794b00" xlink:href="#a"/></g></svg>