<svg xmlns="http://www.w3.org/2000/svg" xmlns:xlink="http://www.w3.org/1999/xlink" width="28" height="28" viewBox="0 0 28 28"><defs><path id="a" d="M1400.41 644.52a13.83 13.83 0 0 1-12.6 19.48c-7.61 0-13.81-6.2-13.81-13.81a13.83 13.83 0 0 1 19.48-12.6 4.9 4.9 0 1 1 6.93 6.93zm-6.84-3.61a3.53 3.53 0 1 0 7.05-.01 3.53 3.53 0 0 0-7.05.01zm6.68 9.28c0-1.7-.34-3.34-1-4.88a4.93 4.93 0 0 1-6.56-6.56 12.45 12.45 0 0 0-17.31 11.44c0 6.85 5.58 12.43 12.43 12.43 6.86 0 12.44-5.58 12.44-12.43z"/><path id="b" d="M1399.32 639.82h-1.14v-1.14a.68.68 0 0 0-1.36 0v1.14h-1.14a.68.68 0 0 0 0 1.36h1.14v1.14a.68.68 0 0 0 1.36 0v-1.14h1.14a.68.68 0 0 0 0-1.36z"/><path id="c" d="M1395 655.67v1.98c0 .75-.63 1.35-1.41 1.35h-12.18c-.78 0-1.41-.6-1.41-1.35v-1.98a3.1 3.1 0 0 1 3.07-3.02c.02 0 1.77.08 2.29-1.71a5.27 5.27 0 0 1-2.01-3.57 2.98 2.98 0 0 1-.33-.81c-.6-2.25.52-4.52 2.5-5.07.19-.05.39-.09.6-.1a4.05 4.05 0 0 1 1.74-.39 4.34 4.34 0 0 1 4.28 4.38c0 .63-.13 1.24-.38 1.81a.54.54 0 0 1-.1.16 5.69 5.69 0 0 1-1.11 2.71 4.4 4.4 0 0 1-.9.88c.5 1.76 2.26 1.71 2.28 1.71a3.1 3.1 0 0 1 3.07 3.02zm-10.81-9.88c.29-.37.51-.79.63-1.25.08-.3.36-.51.68-.53.32-.02.62.16.74.45.04.09.1.17.19.23.1.08.22.11.35.11h2.93c.41 0 .8.12 1.12.31a3.05 3.05 0 0 0-2.97-2.87c-.44 0-.86.1-1.27.3a.52.52 0 0 1-.27.07c-.15.01-.3.03-.44.07-1.19.33-1.89 1.67-1.69 3.11zm3.31 4.63c.67 0 1.14-.32 1.17-.33 1.03-.61 1.75-2.01 1.76-3.63a.8.8 0 0 0-.72-.42h-2.93c-.38 0-.74-.1-1.05-.3a4.76 4.76 0 0 1-1.1 1.43c.26 1.84 1.48 3.25 2.87 3.25zm.97 1.1a3.5 3.5 0 0 1-1.94 0 3.36 3.36 0 0 1-.95 1.42 3.36 3.36 0 0 0 3.84.01 3.46 3.46 0 0 1-.95-1.43zm5.23 6.13v-1.98c0-.98-.84-1.79-1.87-1.79-.02 0-.62.01-1.26-.24a4.66 4.66 0 0 1-6.14 0c-.63.23-1.24.24-1.26.24-1.03 0-1.87.81-1.87 1.79v1.98c0 .06.05.11.11.11h12.18c.06 0 .11-.05.11-.11z"/></defs><g transform="translate(-1374 -636)"><use fill="#794b00" xlink:href="#a"/></g><g transform="translate(-1374 -636)"><use fill="#794b00" xlink:href="#b"/></g><g transform="translate(-1374 -636)"><use fill="#794b00" xlink:href="#c"/></g></svg>